<svg width="40" height="40" viewBox="0 0 40 40" fill="none" xmlns="http://www.w3.org/2000/svg">
<circle cx="20" cy="20" r="19.4444" stroke="white" stroke-opacity="0.8" stroke-width="1.11111"/>
<g clip-path="url(#clip0_100_2932)">
<path d="M16.242 25.8335H13.4201V16.7462H16.242V25.8335ZM14.8296 15.5066C13.9272 15.5066 13.1953 14.7592 13.1953 13.8569C13.1953 13.4235 13.3675 13.0078 13.674 12.7013C13.9805 12.3948 14.3961 12.2227 14.8296 12.2227C15.263 12.2227 15.6787 12.3948 15.9851 12.7013C16.2916 13.0078 16.4638 13.4235 16.4638 13.8569C16.4638 14.7592 15.7316 15.5066 14.8296 15.5066ZM26.8034 25.8335H23.9876V21.4099C23.9876 20.3556 23.9663 19.0036 22.5204 19.0036C21.0533 19.0036 20.8285 20.149 20.8285 21.3339V25.8335H18.0096V16.7462H20.7161V17.9858H20.7556C21.1323 17.2718 22.0526 16.5184 23.4255 16.5184C26.2814 16.5184 26.8064 18.399 26.8064 20.8417V25.8335H26.8034Z" fill="white" fill-opacity="0.8"/>
</g>
<defs>
<clipPath id="clip0_100_2932">
<rect width="15.5556" height="15.5556" fill="white" transform="translate(12.2266 12.2227)"/>
</clipPath>
</defs>
</svg>
