<svg width="40" height="40" viewBox="0 0 40 40" fill="none" xmlns="http://www.w3.org/2000/svg">
<circle cx="20" cy="20" r="19.4444" stroke="white" stroke-opacity="0.8" stroke-width="1.11111"/>
<g clip-path="url(#clip0_100_2936)">
<path d="M26.1753 16.8322C26.1852 16.9704 26.1852 17.1086 26.1852 17.2468C26.1852 21.4613 22.9774 26.3175 17.1144 26.3175C15.3081 26.3175 13.6302 25.7944 12.2188 24.8864C12.4754 24.9159 12.7221 24.9258 12.9886 24.9258C14.479 24.9258 15.851 24.4225 16.9466 23.5637C15.545 23.5341 14.3705 22.6162 13.9658 21.3528C14.1632 21.3824 14.3606 21.4021 14.5679 21.4021C14.8541 21.4021 15.1404 21.3626 15.4068 21.2936C13.9461 20.9974 12.8504 19.7143 12.8504 18.1647V18.1252C13.2748 18.3621 13.7684 18.5102 14.2915 18.5299C13.4328 17.9574 12.8702 16.9802 12.8702 15.8748C12.8702 15.2826 13.0281 14.7397 13.3044 14.2659C14.8738 16.2005 17.2328 17.4639 19.878 17.6021C19.8287 17.3652 19.7991 17.1185 19.7991 16.8717C19.7991 15.1148 21.2204 13.6836 22.9872 13.6836C23.9051 13.6836 24.7342 14.0685 25.3166 14.6904C26.0371 14.5522 26.728 14.2857 27.34 13.9205C27.103 14.6608 26.5997 15.2826 25.9384 15.6774C26.58 15.6083 27.2018 15.4306 27.7742 15.1839C27.34 15.8156 26.7971 16.3781 26.1753 16.8322Z" fill="white" fill-opacity="0.8"/>
</g>
<defs>
<clipPath id="clip0_100_2936">
<rect width="15.5556" height="15.5556" fill="white" transform="translate(12.2188 12.2227)"/>
</clipPath>
</defs>
</svg>
