<svg width="60" height="60" viewBox="0 0 60 60" fill="none" xmlns="http://www.w3.org/2000/svg">
<rect width="60" height="60" rx="10" fill="#3763EB"/>
<path d="M23.9805 22.0267C23.2034 22.8845 23.2277 24.2095 24.0507 25.0392C24.4797 25.4711 25.0432 25.687 25.6064 25.687C26.1732 25.687 26.7401 25.4682 27.1695 25.031L30.1504 21.9962H34.2131L41.0725 28.8551L44.9998 25.2111L35.9775 16L34.2131 17.7555H29.5054C28.8817 17.7555 28.2773 17.9434 27.7687 18.2879C27.6021 18.3998 27.446 18.5289 27.3027 18.6733L24.0503 21.9528C24.0262 21.9768 24.0027 22.0015 23.9805 22.0267Z" fill="white"/>
<path d="M33.4849 23.7563H30.8892L28.4257 26.2642C27.677 27.027 26.6761 27.447 25.607 27.447C24.5455 27.447 23.5496 27.0323 22.8021 26.2788C22.0628 25.5343 21.6556 24.5462 21.6556 23.4963C21.6549 22.4466 22.0623 21.4586 22.8009 20.7133L26.0536 17.4339C26.0939 17.3934 26.1351 17.3533 26.1767 17.3147L24.9163 16.5449L15.5449 27.0897L16.7683 29.3911C17.2959 29.1147 17.8862 28.9679 18.4989 28.9679C19.4986 28.9679 20.4375 29.3577 21.1434 30.0652C21.6439 30.5665 21.9843 31.186 22.139 31.8608C22.8133 32.0169 23.4317 32.3591 23.933 32.8608C24.4438 33.3735 24.7748 33.9985 24.9263 34.6568C25.6018 34.8122 26.2213 35.1551 26.7231 35.6579C27.2229 36.1589 27.5637 36.7785 27.7187 37.4533C28.393 37.6094 29.0114 37.9516 29.512 38.4533C30.9672 39.9115 30.9642 42.2813 29.506 43.7365L29.4438 43.7988C29.9725 44.2758 30.6408 44.514 31.3092 44.514C32.024 44.514 32.7385 44.2417 33.2819 43.6972C33.6165 43.3621 33.847 42.962 33.9749 42.5372C34.2659 42.6358 34.5698 42.6855 34.8738 42.6855C35.5879 42.6855 36.3027 42.4134 36.846 41.8689C37.2299 41.4846 37.4768 41.0151 37.5888 40.5205C37.7744 40.5592 37.9644 40.5791 38.158 40.5791H38.161C38.9051 40.5784 39.6045 40.2875 40.1303 39.7611C40.778 39.1115 41.038 38.2209 40.9117 37.3766C41.4598 37.2743 41.9638 37.0097 42.3664 36.6066C43.4513 35.5195 43.4495 33.752 42.3623 32.6664L33.4849 23.7563Z" fill="white"/>
<path d="M28.2523 39.6821C27.9131 39.3418 27.4796 39.153 27.036 39.1159C26.9231 39.106 26.8101 39.106 26.6972 39.1159C26.2978 39.1511 25.9064 39.3084 25.586 39.5901C25.5778 39.5959 25.5702 39.603 25.5624 39.61C25.5489 39.6213 25.5361 39.6334 25.5233 39.6458C25.5219 39.6469 25.5203 39.648 25.5192 39.6494C25.5103 39.657 25.502 39.6652 25.4933 39.6734C25.803 39.3553 25.9845 38.9593 26.036 38.5492C26.0454 38.4828 26.0506 38.4164 26.0518 38.3496C26.0532 38.3315 26.0532 38.3139 26.0532 38.2956C26.0532 37.7916 25.8607 37.2869 25.4764 36.9015C25.0907 36.5149 24.5844 36.3212 24.0779 36.3212C24.0621 36.3212 24.0468 36.3212 24.031 36.3224C23.8621 36.3258 23.6932 36.351 23.5293 36.3986C23.2306 36.4842 22.9491 36.6414 22.7101 36.8722C22.709 36.8726 22.7078 36.8738 22.7055 36.8756C22.7032 36.8774 22.7007 36.8797 22.6991 36.8827C22.6932 36.8873 22.6879 36.8928 22.6826 36.898C22.9168 36.6643 23.08 36.3869 23.172 36.0917C23.2331 35.8992 23.2629 35.6991 23.2629 35.4991C23.2629 35.4474 23.2613 35.3952 23.2565 35.3435C23.2212 34.8916 23.0312 34.4499 22.6861 34.1043C22.3 33.7177 21.7944 33.5245 21.2885 33.5245C21.2732 33.5245 21.2574 33.5245 21.2421 33.5257C20.9587 33.5316 20.6758 33.5992 20.416 33.7276C20.2375 33.8145 20.0709 33.9294 19.9207 34.0743C19.9226 34.0727 19.9242 34.0702 19.9253 34.069C19.9271 34.0668 19.929 34.0656 19.9306 34.0633C19.9358 34.0578 19.9406 34.0526 19.9448 34.048C19.9512 34.0416 19.9571 34.0352 19.9635 34.0281C19.9695 34.0217 19.9759 34.015 19.9816 34.0082C20.0945 33.8802 20.1876 33.7411 20.2611 33.595C20.3947 33.3316 20.4652 33.0446 20.4723 32.756C20.4735 32.7383 20.4735 32.7207 20.4735 32.7031C20.4735 32.1984 20.2814 31.6944 19.8967 31.309C19.511 30.9217 19.0047 30.7285 18.4985 30.7285C18.1879 30.7285 17.8775 30.8013 17.5946 30.9462C17.4403 31.0261 17.2932 31.1277 17.1593 31.2508C17.1453 31.2625 17.1323 31.2755 17.1188 31.289L15.5798 32.8251C15.1929 33.2107 15 33.717 15 34.2233C15 35.2377 15.8505 36.1365 16.8594 36.1949C16.8977 36.1974 16.9363 36.1986 16.9746 36.1986C17.4527 36.1986 17.9292 36.0267 18.306 35.6827C18.3076 35.6815 18.3087 35.6797 18.3105 35.6785L18.3135 35.6756C18.3142 35.6751 18.3147 35.6744 18.317 35.6721C18.3211 35.6687 18.3247 35.665 18.3289 35.6616L18.1146 35.8747C18.0894 35.8999 18.0647 35.925 18.0425 35.9514C18.0407 35.9532 18.0389 35.9555 18.037 35.9573C18.0359 35.9585 18.0347 35.9592 18.0343 35.9603C18.0148 35.9814 17.9967 36.0031 17.9784 36.0248C17.7319 36.3194 17.5866 36.6703 17.542 37.0305C17.4094 38.1001 18.2723 39.1596 19.3444 39.2498C19.8926 39.2972 20.4559 39.1136 20.8784 38.6986L20.8871 38.6899L20.8907 38.687C20.5264 39.0566 20.3384 39.535 20.3261 40.0172C20.3249 40.0349 20.3249 40.0525 20.3249 40.0699C20.3249 41.1399 21.2334 42.0451 22.3 42.0451C22.5922 42.0451 22.8838 41.981 23.1525 41.8526C23.3487 41.7588 23.5323 41.6308 23.6954 41.4683L24.5762 40.5899C24.5755 40.5903 24.575 40.591 24.575 40.5917C24.5732 40.5929 24.5721 40.594 24.5714 40.5952C24.5638 40.6034 24.5563 40.6121 24.5469 40.6226C24.535 40.6345 24.5251 40.6462 24.5151 40.6579C24.5121 40.6608 24.5098 40.6638 24.508 40.6668C24.0974 41.1385 23.9513 41.7604 24.0692 42.339C24.2539 43.2451 25.0889 43.93 26.0124 43.9306C26.5274 43.9311 27.0289 43.7237 27.3933 43.36L28.125 42.6306L28.28 42.4756C29.044 41.7142 29.0451 40.4773 28.2827 39.7133L28.2523 39.6821Z" fill="white"/>
</svg>
