<svg width="60" height="60" viewBox="0 0 60 60" fill="none" xmlns="http://www.w3.org/2000/svg">
<rect width="60" height="60" rx="10" fill="#5D50A2"/>
<path d="M44.9785 26.4185C44.947 26.3257 44.8873 26.2451 44.8076 26.188C44.728 26.1309 44.6325 26.1002 44.5345 26.1002H33.7795L30.451 15.3297C30.4213 15.2342 30.3618 15.1506 30.2813 15.0913C30.2007 15.032 30.1033 15 30.0033 15C29.9033 15 29.8059 15.032 29.7253 15.0913C29.6448 15.1506 29.5853 15.2342 29.5556 15.3297L26.2275 26.1002H15.472C15.3734 26.0995 15.277 26.1299 15.1967 26.1872C15.1163 26.2445 15.0561 26.3256 15.0246 26.4191C14.993 26.5126 14.9918 26.6137 15.0211 26.7079C15.0503 26.8021 15.1086 26.8847 15.1875 26.9439L23.9095 33.6035L20.5749 44.3922C20.5456 44.4871 20.5472 44.5889 20.5795 44.6828C20.6118 44.7768 20.6731 44.858 20.7545 44.9149C20.836 44.9717 20.9334 45.0012 21.0327 44.9991C21.132 44.997 21.2281 44.9634 21.307 44.9032L30.0033 38.26L38.6995 44.9055C38.7785 44.9657 38.8746 44.9993 38.9739 45.0014C39.0732 45.0035 39.1706 44.974 39.2521 44.9172C39.3335 44.8604 39.3948 44.7791 39.4271 44.6852C39.4594 44.5912 39.461 44.4895 39.4317 44.3946L36.097 33.6035L44.8158 26.9416C44.8943 26.8825 44.9523 26.8001 44.9815 26.7063C45.0107 26.6124 45.0096 26.5117 44.9785 26.4185Z" fill="white"/>
</svg>
