<svg width="60" height="60" viewBox="0 0 60 60" fill="none" xmlns="http://www.w3.org/2000/svg">
<rect width="60" height="60" rx="10" fill="#3763EB"/>
<path d="M29.3254 29.4511C31.3107 29.4511 33.0298 28.739 34.4345 27.3342C35.8391 25.9295 36.5512 24.2109 36.5512 22.2253C36.5512 20.2405 35.8391 18.5216 34.4342 17.1165C33.0294 15.712 31.3105 15 29.3254 15C27.3398 15 25.6212 15.712 24.2165 17.1167C22.8119 18.5213 22.0996 20.2402 22.0996 22.2253C22.0996 24.2109 22.8119 25.9298 24.2168 27.3344C25.6216 28.7388 27.3405 29.4511 29.3254 29.4511Z" fill="white"/>
<path d="M41.9684 38.0675C41.9279 37.483 41.8459 36.8453 41.7253 36.172C41.6036 35.4936 41.4468 34.8522 41.2591 34.2661C41.0652 33.6602 40.8016 33.0619 40.4756 32.4886C40.1373 31.8935 39.74 31.3753 39.2941 30.9489C38.8279 30.5028 38.2571 30.1441 37.597 29.8825C36.9392 29.6223 36.2102 29.4905 35.4304 29.4905C35.1242 29.4905 34.828 29.6161 34.256 29.9885C33.904 30.2181 33.4922 30.4836 33.0327 30.7772C32.6397 31.0276 32.1073 31.2622 31.4497 31.4746C30.8082 31.6822 30.1568 31.7875 29.5138 31.7875C28.8709 31.7875 28.2197 31.6822 27.5775 31.4746C26.9206 31.2625 26.3882 31.0279 25.9957 30.7775C25.5405 30.4866 25.1285 30.2211 24.7712 29.9883C24.1999 29.6159 23.9035 29.4902 23.5973 29.4902C22.8172 29.4902 22.0885 29.6223 21.4309 29.8828C20.7713 30.1439 20.2002 30.5026 19.7335 30.9491C19.2879 31.3758 18.8903 31.8937 18.5525 32.4886C18.2268 33.0619 17.9631 33.66 17.769 34.2663C17.5816 34.8525 17.4248 35.4936 17.303 36.172C17.1824 36.8444 17.1005 37.4823 17.06 38.0682C17.0201 38.6423 17 39.238 17 39.8398C17 41.4058 17.4978 42.6735 18.4795 43.6085C19.449 44.5311 20.7319 44.9992 22.292 44.9992H36.7371C38.2971 44.9992 39.5796 44.5314 40.5493 43.6085C41.5312 42.6742 42.029 41.4062 42.029 39.8395C42.0288 39.2351 42.0084 38.6388 41.9684 38.0675Z" fill="white"/>
</svg>
