<svg width="60" height="60" viewBox="0 0 60 60" fill="none" xmlns="http://www.w3.org/2000/svg">
<rect width="60" height="60" rx="10" fill="#3763EB"/>
<path d="M41.9953 26.6046L44.4514 24.1485C45.1369 23.463 45.1369 22.3516 44.4514 21.6662L38.2993 15.5141C37.6138 14.8286 36.5024 14.8286 35.817 15.5141L32.6924 18.6387C33.6659 18.7542 34.5661 19.1874 35.2683 19.8896L41.9953 26.6046Z" fill="white"/>
<path d="M43.0493 33.9111C43.4132 31.9318 42.7877 29.878 41.3564 28.4467L34.027 21.1304C33.5311 20.6344 32.8699 20.3613 32.1653 20.3613C31.4606 20.3613 30.7994 20.6344 30.3036 21.1304C30.0861 21.3479 29.9147 21.5942 29.7894 21.8573L29.7037 21.7716C28.6771 20.745 27.0068 20.7451 25.9802 21.7716C25.7556 21.9962 25.58 22.2529 25.4537 22.5277C25.0092 22.2069 24.4758 22.0337 23.9148 22.0337C23.2101 22.0337 22.549 22.3069 22.0531 22.8028C21.1328 23.723 21.0375 25.1605 21.767 26.1878C21.51 26.3129 21.2705 26.4814 21.0601 26.6918C20.5641 27.1877 20.291 27.8488 20.291 28.5535C20.291 29.2582 20.5641 29.9193 21.0601 30.4153L23.8146 33.1698C23.5515 33.2951 23.3049 33.4661 23.0873 33.6836C22.5913 34.1795 22.3182 34.8407 22.3182 35.5454C22.3182 36.25 22.5913 36.9112 23.0872 37.4071L28.6725 42.9923C29.5165 43.8364 30.6251 44.2584 31.7339 44.2584C32.6394 44.2584 33.5449 43.9765 34.3064 43.4134L35.5815 44.6884C35.7529 44.8598 35.9775 44.9455 36.202 44.9455C36.4266 44.9455 36.6513 44.8599 36.8226 44.6884L44.7041 36.8071C45.0468 36.4643 45.0468 35.9086 44.7041 35.5659L43.0493 33.9111Z" fill="white"/>
<path d="M18.7031 27.3454C18.8807 26.7204 19.1958 26.1418 19.6342 25.6472C19.3029 24.2115 19.7111 22.6628 20.8116 21.5623C21.6391 20.7349 22.741 20.2792 23.9145 20.2792C24.2465 20.2792 24.5731 20.3156 24.8899 20.3869C25.6987 19.6503 26.7389 19.2472 27.8417 19.2472C27.8527 19.2472 27.8636 19.2479 27.8745 19.2479L24.1485 15.5219C23.463 14.8364 22.3516 14.8364 21.6662 15.5219L15.5141 21.674C14.8286 22.3595 14.8286 23.4709 15.5141 24.1564L18.7031 27.3454Z" fill="white"/>
<path d="M20.5622 35.5458C20.5622 34.6712 20.8153 33.8365 21.2867 33.1254L19.8182 31.6568C19.8039 31.6426 19.7907 31.6277 19.7767 31.6133L15.5385 35.8515C14.853 36.537 14.853 37.6484 15.5385 38.3338L21.6906 44.4859C22.3761 45.1714 23.4875 45.1714 24.1729 44.4859L25.9278 42.7311L21.8453 38.6487C21.0179 37.8212 20.5622 36.7193 20.5622 35.5458Z" fill="white"/>
</svg>
