<svg width="60" height="60" viewBox="0 0 60 60" fill="none" xmlns="http://www.w3.org/2000/svg">
<rect width="60" height="60" rx="10" fill="#5D50A2"/>
<path d="M34.6299 31.8639C34.6299 33.2115 35.7262 34.3078 37.0738 34.3078H45.0004V29.4199H37.0738C35.7263 29.42 34.6299 30.5163 34.6299 31.8639ZM38.4103 31.9357C38.4103 32.4798 37.9692 32.9209 37.4251 32.9209C36.881 32.9209 36.4399 32.4798 36.4399 31.9357C36.4399 31.3916 36.881 30.9505 37.4251 30.9505C37.9692 30.9505 38.4103 31.3916 38.4103 31.9357Z" fill="white"/>
<path d="M37.0734 36.2006C34.6822 36.2006 32.7369 34.2552 32.7369 31.8641C32.7369 29.4729 34.6823 27.5275 37.0734 27.5275H45V24.2251C45 21.9912 43.1826 20.1738 40.9487 20.1738H19.0513C16.8174 20.1738 15 21.9912 15 24.2251V39.3854C15 41.6193 16.8174 43.4367 19.0513 43.4367H40.9488C43.1827 43.4367 45.0001 41.6193 45.0001 39.3854V36.2006H37.0734Z" fill="white"/>
<path d="M19.0517 18.2816C42.854 18.2816 41.1482 18.262 41.6708 18.3255C41.0215 16.9524 39.6234 16 38.0065 16H19.0517C16.8765 16 15.0969 17.7234 15.0049 19.8763C16.0667 18.8875 17.4897 18.2816 19.0517 18.2816Z" fill="white"/>
</svg>
