<svg width="192" height="46" viewBox="0 0 192 46" fill="none" xmlns="http://www.w3.org/2000/svg">
<g clip-path="url(#clip0_122_4052)">
<mask id="mask0_122_4052" style="mask-type:luminance" maskUnits="userSpaceOnUse" x="56" y="-38" width="136" height="77">
<path d="M191.042 -37.375H56.7335V38.3295H191.042V-37.375Z" fill="white"/>
</mask>
<g mask="url(#mask0_122_4052)">
<path d="M75.766 22.3559C75.858 23.1494 76.0075 24.3684 76.916 24.6559C77.3734 24.8 77.8509 24.8699 78.3305 24.8629C78.4455 24.8629 78.5145 24.8629 78.5145 24.9664C78.5145 25.0699 78.3075 25.1619 78.0545 25.1619C77.5715 25.1619 75.214 25.0929 74.409 25.0354C73.903 25.0354 73.7995 24.9204 73.7995 24.8169C73.7995 24.7134 73.7995 24.6789 73.949 24.6559C74.0985 24.6329 74.0755 24.2649 74.0295 23.8739L72.983 12.6154H72.9255L67.601 23.9774C67.1525 24.9319 67.0835 25.1273 66.888 25.1273C66.6925 25.1273 66.6235 24.9089 66.2095 24.1269C65.646 23.0574 63.76 19.2854 63.6565 19.0669C63.461 18.6644 61.0115 13.4319 60.77 12.8339H60.6895L59.8155 22.9654C59.8155 23.3219 59.8155 23.7129 59.8155 24.1154C59.8176 24.2758 59.8747 24.4308 59.9773 24.5542C60.0798 24.6777 60.2216 24.7623 60.379 24.7939C60.6499 24.8623 60.9276 24.9008 61.207 24.9089C61.299 24.9089 61.3795 24.9089 61.3795 25.0124C61.3795 25.1159 61.253 25.2078 60.9885 25.2078C60.1835 25.2078 59.137 25.1389 58.9645 25.1389C58.792 25.1389 57.7225 25.2078 57.1245 25.2078C56.906 25.2078 56.7565 25.2079 56.7565 25.0124C56.7565 24.8169 56.86 24.9089 56.975 24.9089C57.1955 24.9127 57.4156 24.8895 57.6305 24.8399C58.355 24.7019 58.4125 23.8509 58.5045 23.0229L60.057 8.75135C60.057 8.52135 60.1605 8.36035 60.287 8.36035C60.4135 8.36035 60.5055 8.45235 60.6205 8.69385L67.302 22.4249L73.719 8.71685C73.811 8.52135 73.8915 8.36035 74.041 8.36035C74.1905 8.36035 74.2595 8.54435 74.3055 8.95835L75.766 22.3559Z" fill="white"/>
<path d="M91.797 17.9514C91.9005 17.9514 91.9005 17.8824 91.889 17.8019L89.8075 11.9023C89.704 11.5688 89.589 11.5688 89.4855 11.9023L87.565 17.8249C87.565 17.9284 87.565 17.9744 87.6225 17.9744L91.797 17.9514ZM89.497 9.21135C89.75 8.49835 89.842 8.36035 89.9685 8.36035C90.095 8.36035 90.187 8.47535 90.4515 9.15385C90.716 9.83235 94.2465 18.9749 95.569 22.3099C96.3625 24.2534 96.995 24.6098 97.455 24.7364C97.7366 24.8307 98.032 24.8773 98.329 24.8744C98.4555 24.8744 98.5475 24.8744 98.5475 25.0009C98.5475 25.1274 98.352 25.1734 98.1105 25.1734C97.869 25.1734 96.19 25.1734 94.6605 25.1734C94.2465 25.1734 94.005 25.1734 94.005 25.0239C94.005 24.8743 94.005 24.8974 94.1545 24.8744C94.304 24.8514 94.419 24.6329 94.281 24.2879L92.257 18.9174C92.2443 18.8759 92.2182 18.8399 92.1829 18.8149C92.1475 18.79 92.1048 18.7775 92.0615 18.7794H87.381C87.3313 18.782 87.2835 18.8001 87.2444 18.8309C87.2053 18.8618 87.1767 18.9041 87.1625 18.9519L85.863 22.7699C85.681 23.2406 85.5762 23.7377 85.5525 24.2419C85.5525 24.6789 86.0125 24.8744 86.3805 24.8744H86.6335C86.783 24.8744 86.852 24.8744 86.852 25.0009C86.852 25.1274 86.7255 25.1734 86.53 25.1734C86.001 25.1734 85.058 25.1044 84.828 25.1044C84.598 25.1044 83.379 25.1734 82.3555 25.1734C82.068 25.1734 81.9415 25.1734 81.9415 25.0009C81.9415 24.8284 82.0335 24.8744 82.137 24.8744H82.7695C83.77 24.7364 84.207 23.9084 84.6095 22.8159L89.497 9.21135Z" fill="white"/>
<path d="M108.15 22.517C109.415 19.5845 112.347 11.9715 112.819 10.396C112.924 10.1308 112.989 9.85196 113.014 9.568C113.021 9.46621 112.998 9.36468 112.95 9.27514C112.901 9.1856 112.828 9.11171 112.738 9.062C112.476 8.99035 112.205 8.95932 111.933 8.97C111.795 8.97 111.692 8.97 111.692 8.8435C111.692 8.717 111.818 8.671 112.163 8.671C113.037 8.671 114.049 8.74 114.314 8.74C114.578 8.74 115.383 8.625 115.993 8.625C116.223 8.625 116.361 8.625 116.361 8.7745C116.361 8.924 116.269 8.924 116.096 8.924C115.73 8.91283 115.367 9.00445 115.05 9.1885C114.762 9.384 114.44 9.7635 113.9 11.247C113.658 11.8565 112.566 14.4785 111.45 17.158C110.116 20.3435 109.15 22.701 108.633 23.7705C108.023 25.0815 107.931 25.438 107.713 25.438C107.494 25.438 107.345 25.1275 106.931 24.081L101.583 10.741C101.1 9.522 100.778 9.2805 100.008 9.062C99.7371 8.99548 99.4588 8.96455 99.1799 8.97C99.0534 8.97 99.0074 8.97 99.0074 8.8205C99.0074 8.671 99.2259 8.671 99.5709 8.671C100.617 8.671 101.871 8.74 102.124 8.74C102.377 8.74 103.274 8.671 104.159 8.671C104.55 8.671 104.746 8.671 104.746 8.8205C104.746 8.97 104.677 8.97 104.527 8.97C104.247 8.95967 103.967 8.9986 103.699 9.085C103.612 9.11861 103.537 9.17885 103.485 9.25724C103.434 9.33564 103.408 9.42824 103.412 9.522C103.539 10.149 103.74 10.7589 104.01 11.339L108.15 22.517Z" fill="white"/>
<path d="M124.848 16.9047C124.846 16.9582 124.86 17.0111 124.889 17.0562C124.918 17.1014 124.96 17.1368 125.009 17.1577C125.743 17.4321 126.526 17.5534 127.309 17.5142C127.883 17.546 128.453 17.4015 128.942 17.1002C129.415 16.6843 129.783 16.162 130.015 15.5762C130.247 14.9904 130.336 14.3579 130.276 13.7307C130.276 11.0052 128.838 9.37222 126.504 9.37222C126.014 9.35856 125.524 9.401 125.043 9.49872C124.988 9.51639 124.94 9.55189 124.906 9.59972C124.873 9.64755 124.857 9.70502 124.859 9.76322L124.848 16.9047ZM123.111 15.0072C123.111 11.5572 123.111 10.9822 123.111 10.2807C123.111 9.57922 122.893 9.18822 122.168 9.03872C121.924 9.01502 121.677 9.01502 121.432 9.03872C121.34 9.03872 121.248 9.03872 121.248 8.90072C121.248 8.76272 121.363 8.72822 121.605 8.72822C122.582 8.72822 123.962 8.79722 124.066 8.79722C124.169 8.79722 125.917 8.62472 126.596 8.62472C127.997 8.51871 129.396 8.85238 130.598 9.57922C131.055 9.93208 131.428 10.3826 131.688 10.898C131.949 11.4133 132.091 11.9804 132.104 12.5577C132.104 14.1677 131.426 15.7892 129.459 17.5947C131.253 19.8947 132.737 21.8267 134.002 23.1837C134.682 24.0016 135.625 24.5584 136.67 24.7592C136.951 24.8068 137.236 24.8299 137.521 24.8282C137.624 24.8282 137.716 24.8282 137.716 24.9547C137.716 25.0812 137.578 25.1272 137.187 25.1272H135.635C134.845 25.1983 134.05 25.0553 133.335 24.7132C132.143 23.8586 131.125 22.7854 130.333 21.5507C129.413 20.4007 128.39 18.8827 127.953 18.3192C127.918 18.2769 127.874 18.2433 127.824 18.2214C127.774 18.1994 127.72 18.1895 127.665 18.1927H124.986C124.871 18.1927 124.825 18.2617 124.825 18.3652V18.8942C124.825 20.9872 124.825 22.7122 124.94 23.6322C125.009 24.2647 125.135 24.7822 125.791 24.7822C126.115 24.8304 126.441 24.8612 126.768 24.8742C126.906 24.8742 126.952 24.8742 126.952 25.0007C126.952 25.1272 126.837 25.1732 126.596 25.1732C125.446 25.1732 124.02 25.1042 123.916 25.1042C123.813 25.1042 122.513 25.1732 121.858 25.1732C121.616 25.1732 121.513 25.1732 121.513 25.0007C121.513 24.8282 121.513 24.8742 121.685 24.8742C121.906 24.8662 122.126 24.8353 122.341 24.7822C122.778 24.6902 122.881 24.2187 122.973 23.6322C123.088 22.7122 123.088 20.9872 123.088 18.8942L123.111 15.0072Z" fill="white"/>
<path d="M144.812 16.9047C144.811 16.9567 144.824 17.008 144.85 17.0527C144.877 17.0975 144.915 17.1339 144.962 17.1577C145.696 17.4321 146.479 17.5534 147.262 17.5142C147.839 17.5447 148.412 17.4004 148.906 17.1002C149.377 16.6825 149.743 16.1599 149.975 15.5746C150.207 14.9892 150.298 14.3576 150.24 13.7307C150.24 11.0052 148.791 9.37218 146.457 9.37218C145.966 9.35852 145.476 9.40096 144.996 9.49868C144.942 9.51667 144.895 9.55265 144.863 9.60072C144.832 9.64878 144.818 9.70607 144.824 9.76318L144.812 16.9047ZM143.064 15.0072C143.064 11.5572 143.064 10.9822 143.064 10.2807C143.064 9.57918 142.846 9.18818 142.121 9.03868C141.876 9.01498 141.63 9.01498 141.385 9.03868C141.293 9.03868 141.213 9.03868 141.213 8.90068C141.213 8.76268 141.316 8.72818 141.558 8.72818C142.535 8.72818 143.858 8.79718 144.03 8.79718C144.203 8.79718 145.882 8.62468 146.56 8.62468C147.957 8.52033 149.352 8.85397 150.551 9.57918C151.01 9.93033 151.383 10.3805 151.644 10.8962C151.905 11.4119 152.046 11.9799 152.057 12.5577C152.057 14.1677 151.379 15.7892 149.412 17.5947C151.206 19.8947 152.69 21.8267 154.012 23.1837C154.692 24.0016 155.635 24.5583 156.68 24.7592C156.961 24.8068 157.246 24.8299 157.531 24.8282C157.635 24.8282 157.727 24.8282 157.727 24.9547C157.727 25.0812 157.6 25.1272 157.198 25.1272H155.634C154.844 25.1971 154.049 25.0541 153.334 24.7132C152.158 23.8395 151.159 22.7507 150.39 21.5047C149.47 20.3547 148.446 18.8367 148.009 18.2732C147.977 18.231 147.935 18.1974 147.887 18.1754C147.839 18.1533 147.786 18.1434 147.733 18.1467H145.042C144.939 18.1467 144.893 18.2157 144.893 18.3192V18.8482C144.893 20.9412 144.893 22.6662 144.996 23.5862C145.065 24.2187 145.192 24.7362 145.847 24.7362C146.175 24.7845 146.505 24.8152 146.836 24.8282C146.963 24.8282 147.009 24.8282 147.009 24.9547C147.009 25.0812 146.894 25.1272 146.664 25.1272C145.514 25.1272 144.076 25.0582 143.973 25.0582C143.869 25.0582 142.57 25.1272 141.926 25.1272C141.684 25.1272 141.569 25.1272 141.569 24.9547C141.569 24.7822 141.569 24.8282 141.742 24.8282C141.963 24.8201 142.182 24.7893 142.397 24.7362C142.834 24.6442 142.949 24.1727 143.03 23.5862C143.145 22.6662 143.145 20.9412 143.145 18.8482L143.064 15.0072Z" fill="white"/>
<path d="M164.833 18.8485C164.833 20.9415 164.833 22.6665 164.937 23.5865C165.006 24.219 165.132 24.7365 165.788 24.7365C166.116 24.7848 166.446 24.8155 166.777 24.8285C166.904 24.8285 166.949 24.8285 166.949 24.955C166.949 25.0815 166.834 25.1275 166.593 25.1275C165.443 25.1275 164.017 25.1275 163.913 25.1275C163.81 25.1275 162.43 25.1275 161.774 25.1275C161.533 25.1275 161.418 25.1275 161.418 24.955C161.418 24.7825 161.418 24.8285 161.602 24.8285C161.823 24.8204 162.043 24.7896 162.258 24.7365C162.695 24.6445 162.798 24.173 162.89 23.5865C162.993 22.6665 162.993 20.9415 162.993 18.8485V15.0075C162.993 11.5575 162.993 10.9825 162.993 10.281C162.993 9.5795 162.741 9.131 162.258 9.062C162.036 9.00632 161.808 8.97927 161.579 8.9815C161.487 8.9815 161.406 8.9815 161.406 8.8435C161.406 8.7055 161.51 8.671 161.751 8.671C162.476 8.671 163.844 8.74 163.959 8.74C164.074 8.74 165.42 8.625 166.076 8.625C166.317 8.625 166.42 8.625 166.42 8.7975C166.42 8.97 166.34 8.9355 166.248 8.9355C166.068 8.91789 165.887 8.91789 165.708 8.9355C165.11 9.0505 164.937 9.4185 164.891 10.1775C164.845 10.9365 164.891 11.4885 164.891 14.904L164.833 18.8485Z" fill="white"/>
<path d="M182.141 24.6564C178.22 24.6564 175.161 21.3789 175.161 16.2844C175.161 11.5119 177.886 9.10842 181.532 9.10842C184.982 9.10842 188.167 11.9259 188.167 17.1584C188.167 23.5179 184.108 24.6564 182.141 24.6564ZM190.881 26.1974L186.396 23.8974C187.586 23.0776 188.56 21.9822 189.234 20.7047C189.909 19.4271 190.265 18.0053 190.272 16.5604C190.272 11.5004 186.603 8.37243 181.681 8.37243C180.551 8.35236 179.428 8.55924 178.379 8.98081C177.33 9.40238 176.376 10.0301 175.574 10.8268C174.772 11.6234 174.138 12.5729 173.71 13.619C173.281 14.6651 173.067 15.7865 173.079 16.9169C173.079 20.8384 175.575 25.4959 181.624 25.4959C182.813 25.4879 183.988 25.2334 185.074 24.7484L187.834 26.2779H191.042C190.985 26.2581 190.931 26.2311 190.881 26.1974Z" fill="white"/>
</g>
<mask id="mask1_122_4052" style="mask-type:luminance" maskUnits="userSpaceOnUse" x="56" y="-38" width="136" height="77">
<path d="M191.042 -37.375H56.7335V38.3295H191.042V-37.375Z" fill="white"/>
</mask>
<g mask="url(#mask1_122_4052)">
<path d="M60.0226 37.5706C59.7296 37.3112 59.4981 36.9898 59.3449 36.6297C59.1918 36.2697 59.1207 35.88 59.1371 35.4891C59.1499 34.7616 59.4471 34.0681 59.9651 33.5571C60.2647 33.2861 60.6152 33.0775 60.9963 32.9432C61.3773 32.809 61.7812 32.7518 62.1846 32.7751C62.5387 32.7759 62.8923 32.8028 63.2426 32.8556C63.4885 32.9105 63.7385 32.9451 63.9901 32.9591C64.0591 32.9591 64.0821 32.9591 64.0821 33.0396C64.0821 33.1201 64.0821 33.1776 64.0821 33.4306C64.0821 33.6836 64.0821 34.0631 64.0821 34.1551C64.0821 34.2471 64.0821 34.3046 63.9901 34.3046C63.8981 34.3046 63.9901 34.3046 63.9901 34.1551C63.9813 34.025 63.945 33.8982 63.8835 33.7833C63.8221 33.6683 63.7368 33.5676 63.6336 33.4881C63.2082 33.2081 62.7046 33.0711 62.1961 33.0971C61.6046 33.0434 61.0153 33.2206 60.5516 33.5916C60.314 33.8314 60.1321 34.1205 60.0188 34.4385C59.9055 34.7565 59.8636 35.0956 59.8961 35.4316C59.8976 35.7693 59.9658 36.1035 60.0967 36.4148C60.2277 36.7261 60.4189 37.0085 60.6594 37.2457C60.8998 37.4829 61.1847 37.6703 61.4978 37.7971C61.8108 37.9239 62.1458 37.9876 62.4836 37.9846C62.6878 38.0085 62.8948 37.9914 63.0923 37.9341C63.2898 37.8768 63.4738 37.7806 63.6336 37.6511C63.7773 37.483 63.8762 37.2812 63.9211 37.0646C63.9211 36.9841 63.9211 36.9611 63.9901 36.9611C64.0591 36.9611 64.0591 36.9611 64.0591 37.0646C64.0172 37.3664 63.9596 37.6658 63.8866 37.9616C63.8866 38.0996 63.8866 38.1226 63.7026 38.1686C63.306 38.28 62.8955 38.3343 62.4836 38.3296C61.6153 38.3888 60.7568 38.1177 60.0801 37.5706" fill="white"/>
<path d="M68.4865 38.0419C69.142 38.0419 70.4645 37.6854 70.4645 35.6499C70.5031 35.3312 70.4746 35.008 70.3808 34.7011C70.287 34.3941 70.13 34.1102 69.9198 33.8675C69.7097 33.6249 69.4511 33.4289 69.1607 33.2923C68.8703 33.1556 68.5544 33.0812 68.2335 33.0739C67.9371 33.061 67.6415 33.1134 67.3675 33.2274C67.0936 33.3414 66.8481 33.5143 66.6484 33.7337C66.4487 33.9532 66.2997 34.2139 66.2119 34.4973C66.1242 34.7807 66.0998 35.08 66.1405 35.3739C66.1004 35.7031 66.1294 36.0371 66.2259 36.3544C66.3223 36.6717 66.484 36.9654 66.7005 37.2165C66.917 37.4677 67.1837 37.6709 67.4833 37.813C67.783 37.9552 68.109 38.0331 68.4405 38.0419M68.3255 32.7749C68.693 32.7394 69.0638 32.7816 69.4139 32.8987C69.7641 33.0158 70.0856 33.2052 70.3578 33.4546C70.63 33.704 70.8467 34.0078 70.9939 34.3464C71.141 34.685 71.2154 35.0507 71.212 35.4199C71.2237 35.811 71.1542 36.2004 71.0077 36.5632C70.8612 36.9261 70.6411 37.2547 70.3611 37.5281C70.0812 37.8016 69.7476 38.014 69.3814 38.1519C69.0152 38.2898 68.6243 38.3502 68.2335 38.3294C67.8608 38.3485 67.4881 38.2904 67.1388 38.159C66.7895 38.0275 66.4711 37.8254 66.2034 37.5653C65.9358 37.3052 65.7246 36.9927 65.5832 36.6473C65.4418 36.3019 65.3732 35.931 65.3815 35.5579C65.3826 35.1789 65.4606 34.8042 65.611 34.4564C65.7614 34.1085 65.981 33.7949 66.2563 33.5346C66.5317 33.2743 66.8571 33.0727 67.2129 32.9421C67.5686 32.8115 67.9472 32.7546 68.3255 32.7749Z" fill="white"/>
<path d="M73.857 35.5463C73.857 35.5463 73.857 35.6038 73.857 35.6383C74.1177 35.7173 74.3897 35.7523 74.662 35.7418C74.8508 35.7555 75.0393 35.7114 75.2025 35.6153C75.3582 35.4846 75.4795 35.3177 75.5557 35.1292C75.6319 34.9408 75.6607 34.7365 75.6395 34.5343C75.6651 34.3579 75.6514 34.1781 75.5994 34.0076C75.5473 33.8372 75.4582 33.6804 75.3384 33.5485C75.2185 33.4165 75.071 33.3128 74.9063 33.2446C74.7417 33.1765 74.564 33.1456 74.386 33.1543C74.2101 33.1363 74.0328 33.1363 73.857 33.1543C73.8499 33.1665 73.8462 33.1804 73.8462 33.1945C73.8462 33.2087 73.8499 33.2225 73.857 33.2348V35.5463ZM73.236 34.9483C73.236 33.7983 73.236 33.6488 73.236 33.4303C73.236 33.2118 73.1785 33.0738 72.937 33.0393H72.6955C72.685 33.0453 72.6731 33.0485 72.661 33.0485C72.6489 33.0485 72.637 33.0453 72.6265 33.0393C72.6265 33.0393 72.6265 32.9703 72.753 32.9703H73.6155H74.524C74.9971 32.9369 75.4694 33.045 75.881 33.2808C76.0332 33.3927 76.158 33.5379 76.2457 33.7053C76.3333 33.8727 76.3817 34.0579 76.387 34.2468C76.3711 34.566 76.2819 34.8773 76.1264 35.1565C75.9708 35.4357 75.7531 35.6753 75.49 35.8568C76.088 36.5928 76.64 37.2368 77.0195 37.6738C77.2206 37.9289 77.5059 38.1042 77.8245 38.1683H78.089C78.0977 38.1632 78.1076 38.1606 78.1177 38.1606C78.1278 38.1606 78.1377 38.1632 78.1465 38.1683C78.1465 38.1683 78.1465 38.1683 77.974 38.1683H77.5255C77.2573 38.1898 76.9881 38.1423 76.7435 38.0303C76.3486 37.7504 76.0093 37.3994 75.743 36.9953C75.444 36.6043 75.122 36.1558 74.961 35.9603C74.8 35.7648 74.961 35.9603 74.8575 35.9603H73.9375V36.2248C73.9375 36.9033 73.9375 37.4438 73.9375 37.7313C73.9375 38.0188 74.0065 38.0763 74.225 38.1108H74.5585C74.5585 38.1108 74.5585 38.1108 74.432 38.1108H73.5465H72.822C72.7415 38.1108 72.707 38.1108 72.707 38.1108H72.9255C73.075 38.1108 73.0865 37.9383 73.121 37.7313C73.151 37.2257 73.151 36.7188 73.121 36.2133L73.236 34.9483Z" fill="white"/>
<path d="M79.2965 34.9486C79.2965 33.7986 79.2965 33.6491 79.2965 33.4306C79.2965 33.2121 79.239 33.0741 78.9975 33.0396H78.7445C78.7355 33.0437 78.7257 33.0458 78.7158 33.0458C78.7058 33.0458 78.696 33.0437 78.687 33.0396C78.687 33.0396 78.687 32.9706 78.802 32.9706H79.653H80.688C81.1866 32.918 81.686 33.0624 82.0795 33.3731C82.1966 33.4816 82.2897 33.6133 82.3531 33.7598C82.4164 33.9064 82.4486 34.0644 82.4475 34.2241C82.4457 34.462 82.394 34.6969 82.2958 34.9136C82.1976 35.1304 82.055 35.3241 81.8773 35.4823C81.6996 35.6405 81.4906 35.7597 81.264 35.8322C81.0374 35.9046 80.7981 35.9288 80.5615 35.9031H80.3545C80.3545 35.9031 80.274 35.9031 80.274 35.8341C80.274 35.7651 80.274 35.7651 80.4695 35.7651C80.6342 35.7825 80.8008 35.7661 80.959 35.717C81.1172 35.6679 81.2637 35.5871 81.3896 35.4795C81.5155 35.3718 81.6182 35.2397 81.6913 35.0911C81.7645 34.9425 81.8066 34.7805 81.815 34.6151C81.8238 34.4179 81.7915 34.221 81.7203 34.0369C81.649 33.8528 81.5403 33.6855 81.401 33.5456C81.2724 33.4218 81.1182 33.3278 80.9493 33.2702C80.7804 33.2126 80.6009 33.1927 80.4235 33.2121C80.2856 33.2038 80.1474 33.2038 80.0095 33.2121C80.0095 33.2121 79.952 33.2121 79.952 33.3386V36.2251C79.952 36.9036 79.952 37.4556 79.952 37.7431C79.952 38.0306 80.021 38.0881 80.2395 38.1226H80.573C80.5818 38.1175 80.5917 38.1149 80.6018 38.1149C80.6119 38.1149 80.6218 38.1175 80.6305 38.1226C80.6305 38.1226 80.6305 38.1226 80.5155 38.1226H79.5955H78.8825C78.802 38.1226 78.756 38.1226 78.756 38.1226C78.7665 38.1165 78.7784 38.1133 78.7905 38.1133C78.8026 38.1133 78.8145 38.1165 78.825 38.1226H79.0435C79.1815 38.1226 79.2045 37.9501 79.239 37.7431C79.2735 37.5361 79.239 36.9036 79.239 36.2251L79.2965 34.9486Z" fill="white"/>
<path d="M86.8865 38.0419C87.542 38.0419 88.853 37.6854 88.853 35.6499C88.8915 35.3322 88.8633 35.0099 88.7702 34.7037C88.6771 34.3975 88.5211 34.1142 88.3122 33.8717C88.1033 33.6292 87.8461 33.4331 87.557 33.2957C87.268 33.1583 86.9534 33.0828 86.6335 33.0739C86.3361 33.0592 86.0392 33.1103 85.7638 33.2236C85.4885 33.3368 85.2415 33.5095 85.0405 33.7291C84.8395 33.9488 84.6895 34.2101 84.6011 34.4944C84.5127 34.7787 84.488 35.079 84.529 35.3739C84.4906 35.7028 84.521 36.0361 84.6181 36.3526C84.7152 36.6692 84.877 36.9621 85.0932 37.2129C85.3094 37.4637 85.5753 37.6669 85.8741 37.8096C86.1729 37.9523 86.4981 38.0314 86.829 38.0419M86.714 32.7749C87.0815 32.7394 87.4523 32.7816 87.8024 32.8987C88.1525 33.0158 88.4741 33.2052 88.7463 33.4546C89.0185 33.704 89.2352 34.0078 89.3823 34.3464C89.5295 34.685 89.6038 35.0507 89.6005 35.4199C89.6138 35.8105 89.5458 36.1996 89.4006 36.5624C89.2554 36.9253 89.0364 37.254 88.7573 37.5276C88.4783 37.8012 88.1454 38.0138 87.7797 38.1519C87.4141 38.2899 87.0238 38.3504 86.6335 38.3294C86.2604 38.3502 85.8869 38.2934 85.5369 38.1625C85.1868 38.0317 84.8676 37.8297 84.5996 37.5692C84.3316 37.3087 84.1205 36.9955 83.9797 36.6493C83.8389 36.3031 83.7714 35.9315 83.7815 35.5579C83.781 35.1795 83.8576 34.805 84.0067 34.4572C84.1558 34.1094 84.3743 33.7957 84.6488 33.5352C84.9232 33.2747 85.2479 33.073 85.603 32.9422C85.9581 32.8115 86.3362 32.7546 86.714 32.7749Z" fill="white"/>
<path d="M92.257 35.5463C92.2507 35.5608 92.2474 35.5764 92.2474 35.5923C92.2474 35.6081 92.2507 35.6238 92.257 35.6383C92.5179 35.7163 92.7898 35.7512 93.062 35.7418C93.2508 35.7555 93.4394 35.7114 93.6025 35.6153C93.7582 35.4846 93.8795 35.3177 93.9557 35.1292C94.0319 34.9408 94.0607 34.7365 94.0395 34.5343C94.0652 34.3579 94.0515 34.1781 93.9994 34.0076C93.9474 33.8372 93.8582 33.6804 93.7384 33.5485C93.6186 33.4165 93.471 33.3128 93.3064 33.2446C93.1417 33.1765 92.964 33.1456 92.786 33.1543C92.614 33.1355 92.4405 33.1355 92.2685 33.1543C92.2513 33.1594 92.2363 33.1701 92.2259 33.1846C92.2155 33.1992 92.2102 33.2169 92.211 33.2348L92.257 35.5463ZM91.6245 34.9483C91.6245 33.7983 91.6245 33.6488 91.6245 33.4303C91.6245 33.2118 91.567 33.0738 91.3255 33.0393H91.084C91.075 33.0434 91.0652 33.0455 91.0552 33.0455C91.0453 33.0455 91.0355 33.0434 91.0265 33.0393C91.0265 33.0393 91.0265 32.9703 91.1415 32.9703H92.004H92.9125C93.3856 32.9369 93.8579 33.045 94.2695 33.2808C94.4218 33.3927 94.5465 33.5379 94.6342 33.7053C94.7219 33.8727 94.7702 34.0579 94.7755 34.2468C94.7596 34.566 94.6704 34.8773 94.5149 35.1565C94.3593 35.4357 94.1416 35.6753 93.8785 35.8568C94.4765 36.5928 95.0285 37.2368 95.408 37.6738C95.6133 37.9297 95.9025 38.1049 96.2245 38.1683H96.4775C96.488 38.1622 96.4999 38.159 96.512 38.159C96.5241 38.159 96.536 38.1622 96.5465 38.1683C96.5465 38.1683 96.5465 38.1683 96.374 38.1683H95.914C95.6458 38.1898 95.3766 38.1423 95.132 38.0303C94.7413 37.7493 94.4059 37.3984 94.143 36.9953C93.8325 36.6043 93.5105 36.1558 93.3495 35.9603C93.3355 35.9522 93.3196 35.9479 93.3035 35.9479C93.2873 35.9479 93.2715 35.9522 93.2575 35.9603H92.326V36.2248C92.326 36.9033 92.326 37.4438 92.326 37.7313C92.326 38.0188 92.395 38.0763 92.625 38.1108H92.947H93.0045C93.0045 38.1108 93.0045 38.1108 92.8895 38.1108H91.9925H91.268C91.199 38.1108 91.153 38.1108 91.153 38.1108H91.2105H91.4405C91.5785 38.1108 91.59 37.9383 91.6245 37.7313C91.6545 37.2257 91.6545 36.7188 91.6245 36.2133V34.9483Z" fill="white"/>
<path d="M99.6516 35.9834L98.9386 34.0514C98.9386 33.9364 98.8466 33.9364 98.8121 34.0514L98.1336 35.9374L99.6516 35.9834ZM98.8351 33.0509C98.9271 32.8209 98.9616 32.7749 99.0191 32.7749C99.0766 32.7749 99.1111 32.8784 99.1916 33.0279C99.2721 33.1774 100.491 36.2364 100.94 37.3059C101.204 37.9384 101.4 38.0304 101.561 38.0764C101.656 38.0906 101.753 38.0906 101.848 38.0764H101.94C101.94 38.0764 101.86 38.0764 101.779 38.0764C101.699 38.0764 101.124 38.0764 100.629 38.0764C100.491 38.0764 100.376 38.0764 100.376 38.0764C100.394 38.0691 100.411 38.058 100.424 38.0438C100.438 38.0297 100.448 38.0128 100.455 37.9943C100.461 37.9758 100.464 37.9561 100.462 37.9365C100.461 37.917 100.455 37.898 100.445 37.8809L99.7896 36.2709C99.7896 36.2709 99.7896 36.2709 99.7206 36.2709H98.1336C98.1231 36.2648 98.1112 36.2617 98.0991 36.2617C98.087 36.2617 98.0751 36.2648 98.0646 36.2709L97.6506 37.4209C97.585 37.5701 97.546 37.7297 97.5356 37.8924C97.5356 38.0304 97.6621 38.0879 97.7886 38.0879H97.8576H97.9266C97.9266 38.0879 97.9266 38.0879 97.8231 38.0879H97.1676H96.4316C96.3396 38.0879 96.2821 38.0879 96.2821 38.0879C96.2926 38.0818 96.3045 38.0787 96.3166 38.0787C96.3287 38.0787 96.3406 38.0818 96.3511 38.0879H96.5696C96.9031 38.0879 97.0411 37.8004 97.1791 37.4439L98.8351 33.0509Z" fill="white"/>
<path d="M104.459 36.225C104.459 36.9035 104.459 37.4555 104.459 37.743C104.459 38.0305 104.459 38.088 104.735 38.1225H105.068C105.068 38.1225 105.068 38.1225 104.953 38.1225H104.056H103.297C103.217 38.1225 103.182 38.1225 103.182 38.1225H103.24H103.458C103.608 38.1225 103.642 37.9385 103.677 37.7315C103.711 37.5245 103.677 36.892 103.677 36.2135V33.235H102.734C102.274 33.235 102.101 33.2925 101.998 33.4535C101.952 33.5262 101.913 33.6032 101.883 33.6835C101.883 33.741 101.883 33.7525 101.802 33.7525C101.802 33.672 101.952 33.0395 101.963 32.982C101.975 32.9245 101.963 32.8555 102.032 32.8555C102.137 32.89 102.245 32.9169 102.354 32.936H102.929H105.678C105.854 32.9457 106.03 32.9457 106.207 32.936H106.414C106.414 32.936 106.414 32.936 106.414 33.0165C106.414 33.235 106.414 33.741 106.414 33.8215C106.414 33.902 106.414 33.9135 106.356 33.9135C106.299 33.9135 106.356 33.9135 106.287 33.787V33.718C106.287 33.4995 106.103 33.3385 105.402 33.327H104.459V36.225Z" fill="white"/>
<path d="M108.484 34.9482C108.484 33.7982 108.484 33.6487 108.484 33.4302C108.484 33.2117 108.484 33.0737 108.185 33.0392H107.943C107.933 33.0453 107.921 33.0485 107.909 33.0485C107.896 33.0485 107.885 33.0453 107.874 33.0392C107.874 33.0392 107.874 32.9702 108.001 32.9702H108.84H110.577H110.91H111.014C111.014 32.9702 111.014 32.9702 111.014 33.0392C111.007 33.1503 111.007 33.2616 111.014 33.3727C111.014 33.4417 111.014 33.7522 111.014 33.8327C111.014 33.9132 111.014 33.9132 110.945 33.9132C110.876 33.9132 110.945 33.9132 110.945 33.8212C110.958 33.7375 110.958 33.652 110.945 33.5682C110.945 33.4532 110.818 33.4072 110.416 33.3612C110.289 33.3612 109.45 33.3612 109.369 33.3612C109.289 33.3612 109.369 33.3612 109.369 33.4417V35.1897V35.2702C109.369 35.2702 110.416 35.2702 110.588 35.2702C110.714 35.2795 110.839 35.2471 110.945 35.1782L110.784 35.0747C110.755 35.2034 110.735 35.3341 110.726 35.4657C110.718 35.6151 110.718 35.7648 110.726 35.9142C110.726 35.9142 110.726 36.0522 110.657 36.0522C110.588 36.0522 110.657 36.0522 110.657 35.9832C110.672 35.9073 110.672 35.8291 110.657 35.7532C110.657 35.6497 110.565 35.5692 110.278 35.5347C109.99 35.5002 109.3 35.5347 109.128 35.5347V35.5922V36.2247C109.128 36.4662 109.128 37.2827 109.128 37.3747C109.128 37.8462 109.277 37.9382 110.002 37.9382C110.245 37.9495 110.489 37.9262 110.726 37.8692C110.817 37.8242 110.893 37.7532 110.944 37.6653C110.995 37.5773 111.02 37.4763 111.014 37.3747C111.014 37.2942 111.014 37.2712 111.094 37.2712C111.175 37.2712 111.094 37.2712 111.094 37.3747C111.075 37.603 111.041 37.8297 110.991 38.0532C110.991 38.2372 110.864 38.2372 110.588 38.2372H109.323H108.484H108.058C107.978 38.2372 107.943 38.2372 107.943 38.2372H108.162C108.311 38.2372 108.323 38.0647 108.357 37.8577C108.434 37.3166 108.476 36.7712 108.484 36.2247V34.9482Z" fill="white"/>
<path d="M119.869 34.9486C119.869 33.7986 119.869 33.6491 119.869 33.4306C119.869 33.2121 119.811 33.0741 119.57 33.0396H119.328C119.328 33.0396 119.328 32.9706 119.443 32.9706H120.283H121.329C121.828 32.918 122.327 33.0624 122.721 33.3731C122.835 33.4826 122.926 33.6148 122.988 33.7613C123.049 33.9077 123.08 34.0653 123.077 34.2241C123.068 34.4622 123.009 34.6959 122.904 34.9097C122.799 35.1235 122.65 35.3126 122.466 35.4646C122.283 35.6166 122.069 35.7282 121.839 35.7918C121.61 35.8555 121.369 35.8699 121.134 35.8341H120.927C120.927 35.8341 120.846 35.8341 120.846 35.7651C120.846 35.6961 120.846 35.6961 121.042 35.6961C121.206 35.7135 121.373 35.6971 121.531 35.648C121.689 35.5989 121.836 35.5181 121.962 35.4105C122.088 35.3029 122.19 35.1707 122.263 35.0221C122.336 34.8735 122.379 34.7115 122.387 34.5461C122.396 34.3489 122.364 34.152 122.292 33.9679C122.221 33.7838 122.112 33.6165 121.973 33.4766C121.843 33.3519 121.687 33.2574 121.516 33.1998C121.345 33.1421 121.163 33.1228 120.984 33.1431C120.85 33.1355 120.716 33.1355 120.582 33.1431C120.582 33.1431 120.582 33.1431 120.582 33.2696V36.2251C120.582 36.9036 120.582 37.4556 120.582 37.7431C120.582 38.0306 120.651 38.0881 120.869 38.1226H121.191C121.191 38.1226 121.191 38.1226 121.076 38.1226H120.168H119.443C119.374 38.1226 119.328 38.1226 119.328 38.1226H119.558C119.696 38.1226 119.708 37.9501 119.742 37.7431C119.772 37.2375 119.772 36.7306 119.742 36.2251L119.869 34.9486Z" fill="white"/>
<path d="M125.734 35.5463C125.734 35.5463 125.734 35.6038 125.734 35.6383C125.995 35.7153 126.266 35.7502 126.539 35.7418C126.731 35.755 126.923 35.711 127.091 35.6153C127.246 35.4846 127.368 35.3177 127.444 35.1292C127.52 34.9408 127.549 34.7365 127.528 34.5343C127.551 34.3583 127.536 34.1792 127.483 34.0097C127.43 33.8402 127.341 33.6843 127.222 33.5528C127.102 33.4214 126.956 33.3176 126.792 33.2488C126.628 33.1799 126.451 33.1477 126.274 33.1543C126.098 33.1363 125.921 33.1363 125.745 33.1543C125.738 33.1665 125.734 33.1804 125.734 33.1945C125.734 33.2087 125.738 33.2225 125.745 33.2348L125.734 35.5463ZM125.101 34.9483C125.101 33.7983 125.101 33.6488 125.101 33.4303C125.101 33.2118 125.101 33.0738 124.802 33.0393H124.584C124.574 33.0434 124.565 33.0455 124.555 33.0455C124.545 33.0455 124.535 33.0434 124.526 33.0393C124.526 33.0393 124.526 32.9703 124.641 32.9703H125.503H126.423C126.897 32.9369 127.369 33.045 127.78 33.2808C127.933 33.3927 128.058 33.5379 128.145 33.7053C128.233 33.8727 128.281 34.0579 128.287 34.2468C128.271 34.566 128.181 34.8773 128.026 35.1565C127.87 35.4357 127.653 35.6753 127.389 35.8568C127.987 36.5928 128.54 37.2368 128.919 37.6738C129.119 37.9305 129.405 38.1062 129.724 38.1683H129.977C129.987 38.1622 129.999 38.159 130.012 38.159C130.024 38.159 130.036 38.1622 130.046 38.1683C130.046 38.1683 130.046 38.1683 129.873 38.1683H129.425C129.157 38.1914 128.887 38.1438 128.643 38.0303C128.246 37.7534 127.906 37.4018 127.642 36.9953L126.86 35.9603C126.844 35.9522 126.827 35.948 126.809 35.948C126.791 35.948 126.773 35.9522 126.757 35.9603H125.826V36.2248C125.826 36.9033 125.826 37.4438 125.826 37.7313C125.826 38.0188 125.895 38.0763 126.113 38.1108H126.435C126.435 38.1108 126.435 38.1108 126.32 38.1108H125.423H124.71C124.63 38.1108 124.595 38.1108 124.595 38.1108H124.653H124.871C125.009 38.1108 125.032 37.9383 125.066 37.7313C125.101 37.5243 125.066 36.8918 125.066 36.2133L125.101 34.9483Z" fill="white"/>
<path d="M133.519 38.0419C134.175 38.0419 135.486 37.6854 135.486 35.6499C135.524 35.3359 135.497 35.0174 135.407 34.7142C135.316 34.4111 135.164 34.1298 134.96 33.8881C134.756 33.6463 134.505 33.4492 134.221 33.3091C133.938 33.169 133.628 33.089 133.312 33.0739C133.016 33.061 132.72 33.1134 132.446 33.2274C132.172 33.3414 131.927 33.5143 131.727 33.7337C131.527 33.9532 131.378 34.2139 131.29 34.4973C131.203 34.7807 131.178 35.08 131.219 35.3739C131.179 35.7031 131.208 36.0371 131.304 36.3544C131.401 36.6717 131.563 36.9654 131.779 37.2165C131.996 37.4677 132.262 37.6709 132.562 37.813C132.862 37.9552 133.188 38.0331 133.519 38.0419ZM133.347 32.7749C133.714 32.7394 134.085 32.7816 134.435 32.8987C134.785 33.0158 135.107 33.2052 135.379 33.4546C135.651 33.704 135.868 34.0078 136.015 34.3464C136.162 34.685 136.236 35.0507 136.233 35.4199C136.241 35.8036 136.171 36.1849 136.026 36.5404C135.882 36.8959 135.666 37.2181 135.393 37.4873C135.119 37.7565 134.793 37.967 134.436 38.1059C134.078 38.2448 133.696 38.3091 133.312 38.2949C132.939 38.3157 132.566 38.2589 132.215 38.128C131.865 37.9972 131.546 37.7952 131.278 37.5347C131.01 37.2742 130.799 36.961 130.658 36.6148C130.517 36.2686 130.45 35.897 130.46 35.5234C130.464 35.152 130.543 34.7852 130.691 34.4446C130.84 34.1041 131.055 33.7966 131.324 33.5405C131.593 33.2843 131.91 33.0846 132.258 32.9531C132.605 32.8217 132.975 32.761 133.347 32.7749Z" fill="white"/>
<path d="M138.257 34.9482C138.257 33.7982 138.257 33.6487 138.257 33.4302C138.257 33.2117 138.257 33.0737 137.958 33.0392H137.693C137.684 33.0434 137.675 33.0455 137.665 33.0455C137.655 33.0455 137.645 33.0434 137.636 33.0392C137.636 33.0392 137.636 32.9702 137.751 32.9702H138.579H140.465C140.576 32.981 140.688 32.981 140.798 32.9702H140.902C140.902 32.9702 140.902 32.9702 140.902 33.0392C140.902 33.1082 140.902 33.1772 140.902 33.3727C140.902 33.5682 140.902 33.7522 140.902 33.8327C140.902 33.9132 140.902 33.9132 140.844 33.9132C140.787 33.9132 140.844 33.9132 140.844 33.8327C140.834 33.7418 140.81 33.6528 140.775 33.5682C140.717 33.4945 140.642 33.4369 140.555 33.4007C140.469 33.3644 140.374 33.3509 140.281 33.3612H139.131C139.131 33.3612 139.131 33.3612 139.131 33.4417V35.3622V35.4312H140.453C140.626 35.4312 140.729 35.4312 140.798 35.3047C140.867 35.1782 140.683 35.0747 140.683 35.0747C140.674 35.2049 140.674 35.3356 140.683 35.4657C140.675 35.6228 140.675 35.7802 140.683 35.9372C140.683 36.0062 140.683 36.0752 140.683 36.0752C140.683 36.0752 140.683 36.0752 140.683 36.0062C140.699 35.9226 140.699 35.8368 140.683 35.7532C140.683 35.6497 140.534 35.5577 140.315 35.5347C140.097 35.5117 139.269 35.5347 139.165 35.5347C139.062 35.5347 139.165 35.5347 139.165 35.6037V36.2247C139.165 36.9147 139.165 37.4782 139.165 37.7427C139.165 38.0072 139.165 38.0877 139.43 38.1222H139.752C139.762 38.1162 139.774 38.113 139.786 38.113C139.799 38.113 139.81 38.1162 139.821 38.1222C139.821 38.1222 139.821 38.1222 139.694 38.1222H138.786H138.061C137.992 38.1222 137.946 38.1222 137.946 38.1222H138.176C138.314 38.1222 138.337 37.9497 138.36 37.7427C138.39 37.2372 138.39 36.7303 138.36 36.2247L138.257 34.9482Z" fill="white"/>
<path d="M143.191 34.9482C143.191 33.7982 143.191 33.6487 143.191 33.4302C143.191 33.2117 143.191 33.0737 142.892 33.0392H142.65C142.65 33.0392 142.65 32.9702 142.765 32.9702H143.605H145.284H145.617C145.617 32.9702 145.617 32.9702 145.709 32.9702C145.801 32.9702 145.709 32.9702 145.709 33.0392C145.709 33.1082 145.709 33.1772 145.709 33.3727C145.709 33.5682 145.709 33.7522 145.709 33.8327C145.709 33.9132 145.709 33.9132 145.709 33.9132C145.709 33.9132 145.709 33.9132 145.709 33.8212C145.722 33.7374 145.722 33.6521 145.709 33.5682C145.709 33.4532 145.583 33.4072 145.192 33.3612C145.065 33.3612 144.214 33.3612 144.134 33.3612C144.053 33.3612 144.134 33.3612 144.134 33.4417V35.1897V35.2702C144.134 35.2702 145.192 35.2702 145.353 35.2702C145.514 35.2702 145.64 35.2702 145.709 35.1782C145.778 35.0862 145.79 35.0862 145.813 35.0862C145.784 35.2149 145.764 35.3456 145.755 35.4772C145.755 35.6152 145.755 35.8797 145.755 35.9257C145.755 35.9717 145.755 36.0637 145.686 36.0637C145.617 36.0637 145.686 36.0637 145.686 35.9947C145.701 35.9188 145.701 35.8406 145.686 35.7647C145.686 35.6612 145.594 35.5807 145.318 35.5462C145.042 35.5117 144.341 35.5462 144.168 35.5462V35.6037V37.3747C144.168 37.8462 144.318 37.9382 145.042 37.9382C145.289 37.9495 145.537 37.9263 145.778 37.8692C145.875 37.8281 145.957 37.7591 146.014 37.671C146.072 37.583 146.102 37.4798 146.1 37.3747C146.1 37.2942 146.1 37.2712 146.181 37.2712C146.261 37.2712 146.181 37.2712 146.181 37.3747C146.181 37.4782 146.123 37.9037 146.089 38.0532C146.054 38.2027 145.962 38.2372 145.675 38.2372H144.41H143.49H143.064C142.995 38.2372 142.949 38.2372 142.949 38.2372H143.179C143.317 38.2372 143.329 38.0647 143.363 37.8577C143.393 37.3522 143.393 36.8453 143.363 36.3397L143.191 34.9482Z" fill="white"/>
<path d="M147.641 38.1339C147.538 38.1339 147.538 38.0649 147.538 37.8694C147.538 37.6739 147.538 37.2368 147.538 37.1219C147.538 37.0068 147.538 37.0069 147.595 37.0069C147.653 37.0069 147.664 37.0069 147.664 37.0874C147.655 37.1753 147.655 37.2639 147.664 37.3519C147.75 37.5795 147.91 37.7715 148.119 37.8967C148.328 38.022 148.573 38.0731 148.814 38.0419C149.539 38.0419 149.907 37.6393 149.907 37.1103C149.907 36.5813 149.642 36.3629 148.987 35.8799L148.734 35.6384C147.94 35.0404 147.687 34.6148 147.687 34.1203C147.687 33.2923 148.343 32.7979 149.297 32.7979C149.552 32.8006 149.806 32.8275 150.056 32.8784C150.14 32.8905 150.225 32.8905 150.309 32.8784C150.309 32.8784 150.39 32.8784 150.39 32.9359C150.376 33.181 150.376 33.4267 150.39 33.6718C150.39 33.7868 150.39 33.8328 150.332 33.8328C150.275 33.8328 150.332 33.8329 150.263 33.7409C150.241 33.6225 150.206 33.5069 150.16 33.3959C150.039 33.2708 149.891 33.1748 149.728 33.115C149.564 33.0552 149.39 33.0333 149.217 33.0509C148.676 33.0509 148.239 33.3154 148.239 33.8099C148.239 34.3044 148.469 34.5114 149.182 34.9599L149.389 35.0979C150.275 35.7074 150.539 36.2479 150.539 36.7999C150.534 37.0335 150.468 37.2619 150.35 37.4632C150.231 37.6645 150.062 37.8321 149.861 37.9499C149.506 38.1325 149.109 38.2197 148.711 38.2029C148.349 38.208 147.989 38.1416 147.653 38.0074" fill="white"/>
<path d="M152.483 38.1339C152.379 38.1339 152.368 38.0649 152.368 37.8694C152.354 37.6204 152.354 37.3708 152.368 37.1219C152.368 37.0528 152.368 37.0069 152.368 37.0069C152.368 37.0069 152.437 37.0069 152.437 37.0874C152.427 37.1753 152.427 37.2639 152.437 37.3519C152.523 37.5795 152.683 37.7715 152.892 37.8967C153.1 38.022 153.345 38.0731 153.587 38.0419C154.311 38.0419 154.737 37.6393 154.737 37.1103C154.737 36.5813 154.461 36.3629 153.817 35.8799L153.483 35.6384C152.701 35.0404 152.448 34.6148 152.448 34.1203C152.448 33.2923 153.104 32.7979 154.058 32.7979C154.313 32.8013 154.567 32.8282 154.817 32.8784C154.901 32.8905 154.986 32.8905 155.07 32.8784C155.128 32.8784 155.151 32.8784 155.151 32.9359C155.137 33.181 155.137 33.4267 155.151 33.6718C155.151 33.7868 155.151 33.8328 155.151 33.8328C155.151 33.8328 155.151 33.8329 155.082 33.7409C155.061 33.6207 155.022 33.5045 154.967 33.3959C154.967 33.3154 154.679 33.0509 154.024 33.0509C153.368 33.0509 153.058 33.3154 153.058 33.8099C153.058 34.3044 153.276 34.5114 154.001 34.9599L154.208 35.0979C155.093 35.7074 155.358 36.2479 155.358 36.7999C155.352 37.0335 155.287 37.2619 155.168 37.4632C155.049 37.6645 154.881 37.8321 154.679 37.9499C154.324 38.1325 153.928 38.2197 153.529 38.2029C153.167 38.2093 152.807 38.1428 152.471 38.0074" fill="white"/>
<path d="M158.428 36.2244C158.428 36.9029 158.428 37.4549 158.428 37.7424C158.428 38.0299 158.428 38.0874 158.693 38.1219H159.026C159.026 38.1219 159.026 38.1219 158.911 38.1219H158.003H157.278C157.198 38.1219 157.163 38.1219 157.163 38.1219H157.382C157.531 38.1219 157.554 37.9494 157.577 37.7424C157.6 37.5354 157.577 36.9029 157.577 36.2244V34.9479C157.577 33.7979 157.577 33.6484 157.577 33.4299C157.577 33.2114 157.508 33.0849 157.347 33.0504C157.271 33.0402 157.193 33.0402 157.117 33.0504C157.117 33.0504 157.117 32.9814 157.232 32.9814H157.98H158.704C158.785 32.9814 158.819 32.9814 158.819 33.0504C158.81 33.0546 158.8 33.0567 158.79 33.0567C158.78 33.0567 158.771 33.0546 158.762 33.0504H158.578C158.382 33.0504 158.336 33.1884 158.325 33.4414C158.313 33.6944 158.325 33.8669 158.325 34.9594L158.428 36.2244Z" fill="white"/>
<path d="M163.603 38.0419C164.259 38.0419 165.57 37.6854 165.57 35.6499C165.608 35.3359 165.581 35.0174 165.491 34.7142C165.4 34.4111 165.248 34.1298 165.044 33.8881C164.84 33.6463 164.589 33.4492 164.305 33.3091C164.022 33.169 163.712 33.089 163.396 33.0739C163.1 33.061 162.804 33.1134 162.53 33.2274C162.256 33.3414 162.011 33.5143 161.811 33.7337C161.611 33.9532 161.462 34.2139 161.374 34.4973C161.287 34.7807 161.262 35.08 161.303 35.3739C161.263 35.7031 161.292 36.0371 161.388 36.3544C161.485 36.6717 161.647 36.9654 161.863 37.2165C162.08 37.4677 162.346 37.6709 162.646 37.813C162.946 37.9552 163.272 38.0331 163.603 38.0419ZM163.431 32.7749C163.798 32.7394 164.169 32.7816 164.519 32.8987C164.869 33.0158 165.191 33.2052 165.463 33.4546C165.735 33.704 165.952 34.0078 166.099 34.3464C166.246 34.685 166.32 35.0507 166.317 35.4199C166.325 35.8036 166.255 36.1849 166.11 36.5404C165.966 36.8959 165.75 37.2181 165.477 37.4873C165.203 37.7565 164.877 37.967 164.52 38.1059C164.162 38.2448 163.78 38.3091 163.396 38.2949C163.023 38.3157 162.65 38.2589 162.299 38.128C161.949 37.9972 161.63 37.7952 161.362 37.5347C161.094 37.2742 160.883 36.961 160.742 36.6148C160.601 36.2686 160.534 35.897 160.544 35.5234C160.548 35.152 160.627 34.7852 160.775 34.4446C160.924 34.1041 161.139 33.7966 161.408 33.5405C161.677 33.2843 161.994 33.0846 162.342 32.9531C162.689 32.8217 163.059 32.761 163.431 32.7749Z" fill="white"/>
<path d="M168.652 37.2716C168.652 37.8581 168.732 38.0306 168.928 38.0766C169.05 38.0895 169.173 38.0895 169.296 38.0766H169.353C169.353 38.0766 169.353 38.0766 169.227 38.0766C168.813 38.0766 168.514 38.0766 168.456 38.0766H167.743C167.674 38.0766 167.628 38.0766 167.628 38.0766C167.727 38.0896 167.828 38.0896 167.927 38.0766C168.111 38.0766 168.134 37.8351 168.134 37.2026V33.1661C168.134 32.8786 168.134 32.8096 168.238 32.8096C168.341 32.8096 168.445 32.9476 168.514 33.0281L170.814 35.4316L172.539 37.2371L172.458 33.7066C172.458 33.2581 172.458 33.0971 172.182 33.0511C172.063 33.0419 171.944 33.0419 171.826 33.0511C171.826 33.0511 171.826 33.0511 171.826 32.9821C171.826 32.9131 171.826 32.9821 171.975 32.9821H172.734H173.355C173.424 32.9821 173.482 32.9821 173.482 32.9821C173.479 33.0014 173.469 33.019 173.454 33.0317C173.439 33.0444 173.421 33.0513 173.401 33.0511H173.229C172.987 33.0511 172.976 33.2466 172.976 33.6606V37.7891C172.976 38.2606 172.976 38.2951 172.976 38.2951C172.976 38.2951 172.826 38.2376 172.424 37.8696C172.355 37.8006 171.274 36.7196 170.526 35.9606C169.779 35.2016 168.79 34.2011 168.571 33.9251L168.652 37.2716Z" fill="white"/>
<path d="M177.668 35.9834L176.943 34.0514C176.943 33.9364 176.863 33.9364 176.828 34.0514L176.138 35.9834H177.668ZM176.851 33.0509C176.943 32.8209 176.978 32.7749 177.024 32.7749C177.07 32.7749 177.127 32.8784 177.208 33.0279C177.288 33.1774 178.507 36.2364 178.956 37.3059C179.22 37.9384 179.416 38.0304 179.577 38.0764C179.672 38.0913 179.769 38.0913 179.864 38.0764H179.956C179.956 38.0764 179.876 38.0764 179.784 38.0764C179.692 38.0764 179.14 38.0764 178.634 38.0764C178.496 38.0764 178.381 38.0764 178.381 38.0764C178.399 38.0691 178.415 38.058 178.429 38.0438C178.442 38.0297 178.453 38.0128 178.459 37.9943C178.466 37.9758 178.468 37.9561 178.467 37.9365C178.465 37.917 178.459 37.898 178.45 37.8809L177.794 36.2709C177.794 36.2709 177.794 36.2709 177.725 36.2709H176.046C176.046 36.2709 175.989 36.2709 175.966 36.2709L175.552 37.4209C175.494 37.5722 175.46 37.731 175.448 37.8924C175.448 38.0304 175.575 38.0879 175.701 38.0879H175.759C175.828 38.0879 175.839 38.0879 175.839 38.0879C175.839 38.0879 175.839 38.0879 175.736 38.0879H175.08H174.344C174.252 38.0879 174.195 38.0879 174.195 38.0879C174.205 38.0818 174.217 38.0787 174.229 38.0787C174.241 38.0787 174.253 38.0818 174.264 38.0879H174.482C174.816 38.0879 174.954 37.8004 175.092 37.4439L176.851 33.0509Z" fill="white"/>
<path d="M182.084 36.2244C182.084 37.2594 182.084 37.6849 182.233 37.8114C182.383 37.9379 182.636 37.9724 183.211 37.9724C183.59 37.9724 183.912 37.9724 184.085 37.7654C184.174 37.6476 184.234 37.5093 184.257 37.3629C184.257 37.3629 184.257 37.2709 184.338 37.2709C184.418 37.2709 184.338 37.2709 184.338 37.3859C184.322 37.6222 184.287 37.8567 184.234 38.0874C184.177 38.2484 184.154 38.2714 183.763 38.2714C183.372 38.2714 182.843 38.2714 182.498 38.2714H181.348H180.922C180.853 38.2714 180.807 38.2714 180.807 38.2714H181.026C181.175 38.2714 181.187 38.1104 181.221 37.9034C181.251 37.394 181.251 36.8833 181.221 36.3739V34.9479C181.221 33.7979 181.221 33.6484 181.221 33.4299C181.221 33.2114 181.164 33.0734 180.922 33.0389H180.681C180.672 33.0431 180.662 33.0452 180.652 33.0452C180.642 33.0452 180.632 33.0431 180.623 33.0389C180.623 33.0389 180.623 32.9814 180.738 32.9814H182.371C182.44 32.9814 182.486 32.9814 182.486 33.0389H182.245C182.026 33.0389 181.992 33.1884 181.969 33.4414C181.946 33.6944 181.969 33.8669 181.969 34.9594L182.084 36.2244Z" fill="white"/>
<path d="M185.729 38.1339C185.637 38.1339 185.626 38.0649 185.626 37.8694C185.626 37.6739 185.626 37.2368 185.626 37.1219C185.626 37.0068 185.626 37.0069 185.626 37.0069C185.626 37.0069 185.695 37.0069 185.695 37.0874C185.685 37.1753 185.685 37.2639 185.695 37.3519C185.781 37.5795 185.941 37.7715 186.15 37.8967C186.358 38.022 186.603 38.0731 186.845 38.0419C187.558 38.0419 187.995 37.6393 187.995 37.1103C187.995 36.5813 187.719 36.3629 187.075 35.8799L186.741 35.6384C185.948 35.0404 185.695 34.6148 185.695 34.1203C185.695 33.2923 186.35 32.7979 187.316 32.7979C187.567 32.8012 187.818 32.8281 188.064 32.8784C188.151 32.8913 188.24 32.8913 188.328 32.8784C188.386 32.8784 188.397 32.8784 188.397 32.9359C188.384 33.181 188.384 33.4267 188.397 33.6718C188.397 33.7868 188.397 33.8328 188.397 33.8328C188.397 33.8328 188.397 33.8329 188.328 33.7409C188.312 33.6211 188.277 33.5047 188.225 33.3959C188.225 33.3154 187.937 33.0509 187.282 33.0509C186.626 33.0509 186.304 33.3154 186.304 33.8099C186.304 34.3044 186.534 34.5114 187.259 34.9599L187.466 35.0979C188.351 35.7074 188.616 36.2479 188.616 36.7999C188.612 37.034 188.548 37.2633 188.429 37.465C188.31 37.6666 188.14 37.8338 187.937 37.9499C187.582 38.1325 187.186 38.2197 186.787 38.2029C186.425 38.208 186.065 38.1416 185.729 38.0074" fill="white"/>
</g>
</g>
<g clip-path="url(#clip1_122_4052)">
<mask id="mask2_122_4052" style="mask-type:luminance" maskUnits="userSpaceOnUse" x="-66" y="0" width="180" height="101">
<path d="M113.145 0H-65.933V100.939H113.145V0Z" fill="white"/>
</mask>
<g mask="url(#mask2_122_4052)">
<path d="M23.5982 2.13154C19.492 2.13154 15.478 3.34917 12.0639 5.63046C8.64968 7.91174 5.98865 11.1542 4.41727 14.9479C2.84589 18.7415 2.43475 22.9159 3.23583 26.9432C4.03691 30.9705 6.01423 34.6698 8.91776 37.5734C11.8213 40.4769 15.5206 42.4542 19.5479 43.2553C23.5752 44.0564 27.7496 43.6452 31.5433 42.0738C35.3369 40.5025 38.5794 37.8414 40.8607 34.4272C43.1419 31.0131 44.3596 26.9991 44.3596 22.8929C44.3555 17.3879 42.1669 12.1095 38.2742 8.21688C34.3816 4.32425 29.1032 2.1356 23.5982 2.13154ZM23.5982 45.7702C19.0698 45.7702 14.6432 44.4272 10.8782 41.911C7.11315 39.3949 4.17895 35.8186 2.44671 31.6346C0.714468 27.4507 0.262014 22.8469 1.14658 18.4058C2.03114 13.9646 4.21298 9.88554 7.41611 6.68456C10.6192 3.48357 14.6998 1.30447 19.1415 0.422882C23.5833 -0.458704 28.1867 -0.00316505 32.3695 1.73188C36.5523 3.46692 40.1266 6.40352 42.6402 10.1702C45.1539 13.9369 46.4939 18.3645 46.4909 22.8929C46.4868 28.9617 44.0732 34.7806 39.7804 39.0705C35.4876 43.3604 29.6671 45.7702 23.5982 45.7702Z" fill="white"/>
</g>
<path d="M26.9257 8.93945L15.4871 13.0948L33.3811 31.0041L37.5517 19.5655L26.9257 8.93945Z" fill="white"/>
<path d="M20.2709 36.8303L31.7249 32.675L13.8156 14.7656L9.6449 26.2043L20.2709 36.8303Z" fill="white"/>
</g>
<defs>
<clipPath id="clip0_122_4052">
<rect width="134.55" height="31.05" fill="white" transform="translate(56.7335 7.4751)"/>
</clipPath>
<clipPath id="clip1_122_4052">
<rect width="47.5333" height="46" fill="white"/>
</clipPath>
</defs>
</svg>
