<svg width="60" height="60" viewBox="0 0 60 60" fill="none" xmlns="http://www.w3.org/2000/svg">
<rect width="60" height="60" rx="10" fill="#3763EB"/>
<path d="M43.4375 41.25H16.5625C15.6996 41.25 15 41.9496 15 42.8125V43.4375C15 44.3004 15.6996 45 16.5625 45H43.4375C44.3004 45 45 44.3004 45 43.4375V42.8125C45 41.9496 44.3004 41.25 43.4375 41.25Z" fill="white"/>
<path d="M42.1875 15H17.8125C16.9496 15 16.25 15.6996 16.25 16.5625V17.1875C16.25 18.0504 16.9496 18.75 17.8125 18.75H42.1875C43.0504 18.75 43.75 18.0504 43.75 17.1875V16.5625C43.75 15.6996 43.0504 15 42.1875 15Z" fill="white"/>
<path d="M42.1875 40.625C42.2704 40.625 42.3499 40.5921 42.4085 40.5335C42.4671 40.4749 42.5 40.3954 42.5 40.3125V19.6875C42.5 19.6046 42.4671 19.5251 42.4085 19.4665C42.3499 19.4079 42.2704 19.375 42.1875 19.375H17.8125C17.7296 19.375 17.6501 19.4079 17.5915 19.4665C17.5329 19.5251 17.5 19.6046 17.5 19.6875V40.3125C17.5 40.3954 17.5329 40.4749 17.5915 40.5335C17.6501 40.5921 17.7296 40.625 17.8125 40.625H26.5625V37.5C26.5625 36.5883 26.9247 35.714 27.5693 35.0693C28.214 34.4247 29.0883 34.0625 30 34.0625C30.9117 34.0625 31.786 34.4247 32.4307 35.0693C33.0753 35.714 33.4375 36.5883 33.4375 37.5V40.625H42.1875ZM24.0625 37.8125C24.0625 37.9783 23.9967 38.1372 23.8794 38.2544C23.7622 38.3717 23.6033 38.4375 23.4375 38.4375H21.5625C21.3967 38.4375 21.2378 38.3717 21.1206 38.2544C21.0033 38.1372 20.9375 37.9783 20.9375 37.8125V35.9375C20.9375 35.7717 21.0033 35.6128 21.1206 35.4956C21.2378 35.3783 21.3967 35.3125 21.5625 35.3125H23.4375C23.6033 35.3125 23.7622 35.3783 23.8794 35.4956C23.9967 35.6128 24.0625 35.7717 24.0625 35.9375V37.8125ZM24.0625 30.9375C24.0625 31.1033 23.9967 31.2622 23.8794 31.3794C23.7622 31.4967 23.6033 31.5625 23.4375 31.5625H21.5625C21.3967 31.5625 21.2378 31.4967 21.1206 31.3794C21.0033 31.2622 20.9375 31.1033 20.9375 30.9375V29.0625C20.9375 28.8967 21.0033 28.7378 21.1206 28.6206C21.2378 28.5033 21.3967 28.4375 21.5625 28.4375H23.4375C23.6033 28.4375 23.7622 28.5033 23.8794 28.6206C23.9967 28.7378 24.0625 28.8967 24.0625 29.0625V30.9375ZM24.0625 24.0625C24.0625 24.2283 23.9967 24.3872 23.8794 24.5044C23.7622 24.6217 23.6033 24.6875 23.4375 24.6875H21.5625C21.3967 24.6875 21.2378 24.6217 21.1206 24.5044C21.0033 24.3872 20.9375 24.2283 20.9375 24.0625V22.1875C20.9375 22.0217 21.0033 21.8628 21.1206 21.7456C21.2378 21.6283 21.3967 21.5625 21.5625 21.5625H23.4375C23.6033 21.5625 23.7622 21.6283 23.8794 21.7456C23.9967 21.8628 24.0625 22.0217 24.0625 22.1875V24.0625ZM31.5625 30.9375C31.5625 31.1033 31.4967 31.2622 31.3794 31.3794C31.2622 31.4967 31.1033 31.5625 30.9375 31.5625H29.0625C28.8967 31.5625 28.7378 31.4967 28.6206 31.3794C28.5033 31.2622 28.4375 31.1033 28.4375 30.9375V29.0625C28.4375 28.8967 28.5033 28.7378 28.6206 28.6206C28.7378 28.5033 28.8967 28.4375 29.0625 28.4375H30.9375C31.1033 28.4375 31.2622 28.5033 31.3794 28.6206C31.4967 28.7378 31.5625 28.8967 31.5625 29.0625V30.9375ZM31.5625 24.0625C31.5625 24.2283 31.4967 24.3872 31.3794 24.5044C31.2622 24.6217 31.1033 24.6875 30.9375 24.6875H29.0625C28.8967 24.6875 28.7378 24.6217 28.6206 24.5044C28.5033 24.3872 28.4375 24.2283 28.4375 24.0625V22.1875C28.4375 22.0217 28.5033 21.8628 28.6206 21.7456C28.7378 21.6283 28.8967 21.5625 29.0625 21.5625H30.9375C31.1033 21.5625 31.2622 21.6283 31.3794 21.7456C31.4967 21.8628 31.5625 22.0217 31.5625 22.1875V24.0625ZM35.9375 22.1875C35.9375 22.0217 36.0033 21.8628 36.1206 21.7456C36.2378 21.6283 36.3967 21.5625 36.5625 21.5625H38.4375C38.6033 21.5625 38.7622 21.6283 38.8794 21.7456C38.9967 21.8628 39.0625 22.0217 39.0625 22.1875V24.0625C39.0625 24.2283 38.9967 24.3872 38.8794 24.5044C38.7622 24.6217 38.6033 24.6875 38.4375 24.6875H36.5625C36.3967 24.6875 36.2378 24.6217 36.1206 24.5044C36.0033 24.3872 35.9375 24.2283 35.9375 24.0625V22.1875ZM35.9375 29.0625C35.9375 28.8967 36.0033 28.7378 36.1206 28.6206C36.2378 28.5033 36.3967 28.4375 36.5625 28.4375H38.4375C38.6033 28.4375 38.7622 28.5033 38.8794 28.6206C38.9967 28.7378 39.0625 28.8967 39.0625 29.0625V30.9375C39.0625 31.1033 38.9967 31.2622 38.8794 31.3794C38.7622 31.4967 38.6033 31.5625 38.4375 31.5625H36.5625C36.3967 31.5625 36.2378 31.4967 36.1206 31.3794C36.0033 31.2622 35.9375 31.1033 35.9375 30.9375V29.0625ZM35.9375 35.9375C35.9375 35.7717 36.0033 35.6128 36.1206 35.4956C36.2378 35.3783 36.3967 35.3125 36.5625 35.3125H38.4375C38.6033 35.3125 38.7622 35.3783 38.8794 35.4956C38.9967 35.6128 39.0625 35.7717 39.0625 35.9375V37.8125C39.0625 37.9783 38.9967 38.1372 38.8794 38.2544C38.7622 38.3717 38.6033 38.4375 38.4375 38.4375H36.5625C36.3967 38.4375 36.2378 38.3717 36.1206 38.2544C36.0033 38.1372 35.9375 37.9783 35.9375 37.8125V35.9375Z" fill="white"/>
</svg>
