<svg width="60" height="60" viewBox="0 0 60 60" fill="none" xmlns="http://www.w3.org/2000/svg">
<rect width="60" height="60" rx="10" fill="#5D50A2"/>
<path d="M44.125 21.5V38.5156C44.1225 39.7208 43.6427 40.8758 42.7905 41.728C41.9383 42.5802 40.7833 43.06 39.5781 43.0625H27.1094C25.9042 43.06 24.7492 42.5802 23.897 41.728C23.0448 40.8758 22.565 39.7208 22.5625 38.5156V35.5625H33.0156C34.7188 35.5625 36.3522 34.8859 37.5566 33.6816C38.7609 32.4772 39.4375 30.8438 39.4375 29.1406V23.6375L42.5594 20.825C42.6936 20.7049 42.8596 20.626 43.0375 20.5977C43.2154 20.5694 43.3977 20.593 43.5625 20.6656C43.7259 20.7369 43.8656 20.8532 43.9652 21.0009C44.0648 21.1487 44.1202 21.3218 44.125 21.5ZM33.0156 14.9375H20.5469C19.3417 14.94 18.1867 15.4198 17.3345 16.272C16.4823 17.1242 16.0025 18.2792 16 19.4844V36.5C16.0009 36.6851 16.0566 36.8658 16.1601 37.0192C16.2635 37.1727 16.41 37.2922 16.5813 37.3625C16.6925 37.415 16.8145 37.4407 16.9375 37.4375C17.0609 37.4382 17.1832 37.4146 17.2974 37.3679C17.4116 37.3213 17.5155 37.2525 17.6031 37.1656L21.0719 33.6875H33.0156C34.2208 33.685 35.3758 33.2052 36.228 32.353C37.0802 31.5008 37.56 30.3458 37.5625 29.1406V19.4844C37.56 18.2792 37.0802 17.1242 36.228 16.272C35.3758 15.4198 34.2208 14.94 33.0156 14.9375Z" fill="white"/>
</svg>
