<svg width="60" height="60" viewBox="0 0 60 60" fill="none" xmlns="http://www.w3.org/2000/svg">
<rect width="60" height="60" rx="10" fill="#5D50A2"/>
<path fill-rule="evenodd" clip-rule="evenodd" d="M21.516 15C19.5793 15 18 16.5793 18 18.516V41.484C18 43.4207 19.5793 45 21.516 45H38.7418C40.6785 45 42.2578 43.4207 42.2578 41.484V18.516C42.2578 16.5793 40.6785 15 38.7418 15H21.516ZM22.9509 19.3066H37.3069C38.448 19.3066 39.3867 20.2454 39.3867 21.3865V21.387C39.3867 22.5281 38.448 23.4668 37.3069 23.4668H22.9509C21.8098 23.4668 20.8711 22.528 20.8711 21.3869V21.3865C20.8711 20.2454 21.8098 19.3066 22.9509 19.3066ZM22.9512 26.4844C24.0923 26.4844 25.0312 27.4233 25.0312 28.5645C25.0312 29.7056 24.0923 30.6445 22.9512 30.6445C21.81 30.6445 20.8711 29.7056 20.8711 28.5645C20.8711 27.4233 21.81 26.4844 22.9512 26.4844ZM30.1289 26.4844C31.2701 26.4844 32.209 27.4233 32.209 28.5645C32.209 29.7056 31.2701 30.6445 30.1289 30.6445C28.9877 30.6445 28.0488 29.7056 28.0488 28.5645C28.0488 27.4233 28.9877 26.4844 30.1289 26.4844ZM37.3066 26.4844C38.4478 26.4844 39.3867 27.4233 39.3867 28.5645C39.3867 29.7056 38.4478 30.6445 37.3066 30.6445C36.1655 30.6445 35.2266 29.7056 35.2266 28.5645C35.2266 27.4233 36.1655 26.4844 37.3066 26.4844ZM22.9512 32.2266C24.0923 32.2266 25.0312 33.1655 25.0312 34.3066C25.0312 35.4478 24.0923 36.3867 22.9512 36.3867C21.81 36.3867 20.8711 35.4478 20.8711 34.3066C20.8711 33.1655 21.81 32.2266 22.9512 32.2266ZM30.1289 32.2266C31.2701 32.2266 32.209 33.1655 32.209 34.3066C32.209 35.4478 31.2701 36.3867 30.1289 36.3867C28.9877 36.3867 28.0488 35.4478 28.0488 34.3066C28.0488 33.1655 28.9877 32.2266 30.1289 32.2266ZM37.3064 32.2266H37.3069C38.448 32.2266 39.3867 33.1653 39.3867 34.3064V40.0491C39.3867 41.1901 38.4479 42.1289 37.3069 42.1289H37.3064C36.1653 42.1289 35.2266 41.1901 35.2266 40.0491V34.3064C35.2266 33.1653 36.1653 32.2266 37.3064 32.2266ZM22.9512 37.9688C24.0923 37.9688 25.0312 38.9077 25.0312 40.0488C25.0312 41.19 24.0923 42.1289 22.9512 42.1289C21.81 42.1289 20.8711 41.19 20.8711 40.0488C20.8711 38.9077 21.81 37.9688 22.9512 37.9688ZM30.1289 37.9688C31.2701 37.9688 32.209 38.9077 32.209 40.0488C32.209 41.19 31.2701 42.1289 30.1289 42.1289C28.9877 42.1289 28.0488 41.19 28.0488 40.0488C28.0488 38.9077 28.9877 37.9688 30.1289 37.9688Z" fill="white"/>
</svg>
