<svg width="60" height="60" viewBox="0 0 60 60" fill="none" xmlns="http://www.w3.org/2000/svg">
<rect width="60" height="60" rx="10" fill="#3763EB"/>
<path d="M44.4412 42.6737L41.1087 39.3412C41.9812 38.115 42.5 36.62 42.5 35C42.5 30.8575 39.1425 27.5 35 27.5C30.8575 27.5 27.5 30.8575 27.5 35C27.5 39.1425 30.8575 42.5 35 42.5C36.62 42.5 38.115 41.9812 39.3412 41.1087L42.6737 44.4412C42.9175 44.685 43.2375 44.8075 43.5575 44.8075C43.8775 44.8075 44.1975 44.685 44.4412 44.4412C44.93 43.9525 44.93 43.1625 44.4412 42.6737ZM34.1587 38.7463C33.4075 38.7463 32.6537 38.465 32.0788 37.9037L30.6637 36.5187C30.17 36.035 30.1625 35.2437 30.645 34.7512C31.1275 34.2575 31.9188 34.25 32.4125 34.7313L33.8275 36.1162C34.0075 36.2937 34.3013 36.2925 34.48 36.1162L37.8713 32.8363C38.3688 32.36 39.1613 32.3738 39.6388 32.8725C40.1175 33.37 40.1012 34.1612 39.6025 34.64L36.2238 37.9075C35.6588 38.465 34.91 38.7463 34.1587 38.7463ZM25 35C25 29.4862 29.4862 25 35 25C36.8225 25 38.5275 25.4975 40 26.3538V21.25C40 17.8038 37.195 15 33.75 15H21.2488C17.8025 15 15 17.805 15 21.2512V38.75C15 42.1963 17.805 45 21.25 45H35C29.4862 45 25 40.5138 25 35ZM27.5 21.25H33.75C34.44 21.25 35 21.8088 35 22.5C35 23.1912 34.44 23.75 33.75 23.75H27.5C26.81 23.75 26.25 23.1912 26.25 22.5C26.25 21.8088 26.81 21.25 27.5 21.25ZM22.5 36.25H21.25C20.56 36.25 20 35.6912 20 35C20 34.3088 20.56 33.75 21.25 33.75H22.5C23.19 33.75 23.75 34.3088 23.75 35C23.75 35.6912 23.19 36.25 22.5 36.25ZM22.5 30H21.25C20.56 30 20 29.4412 20 28.75C20 28.0588 20.56 27.5 21.25 27.5H22.5C23.19 27.5 23.75 28.0588 23.75 28.75C23.75 29.4412 23.19 30 22.5 30ZM22.5 23.75H21.25C20.56 23.75 20 23.1912 20 22.5C20 21.8088 20.56 21.25 21.25 21.25H22.5C23.19 21.25 23.75 21.8088 23.75 22.5C23.75 23.1912 23.19 23.75 22.5 23.75Z" fill="white"/>
</svg>
