<svg width="60" height="60" viewBox="0 0 60 60" fill="none" xmlns="http://www.w3.org/2000/svg">
<rect width="60" height="60" rx="10" fill="#3763EB"/>
<path d="M36.25 44.2675V36.25H44.2675L36.25 44.2675ZM33.75 45H15V18.75C15 16.6825 16.6825 15 18.75 15H41.25C43.3175 15 45 16.6825 45 18.75V33.75H33.75V45ZM20 23.125C20 24.16 20.84 25 21.875 25C22.91 25 23.75 24.16 23.75 23.125C23.75 22.09 22.91 21.25 21.875 21.25C20.84 21.25 20 22.09 20 23.125ZM23.75 36.875C23.75 35.84 22.91 35 21.875 35C20.84 35 20 35.84 20 36.875C20 37.91 20.84 38.75 21.875 38.75C22.91 38.75 23.75 37.91 23.75 36.875ZM23.75 30C23.75 28.965 22.91 28.125 21.875 28.125C20.84 28.125 20 28.965 20 30C20 31.035 20.84 31.875 21.875 31.875C22.91 31.875 23.75 31.035 23.75 30Z" fill="white"/>
</svg>
