<svg width="60" height="60" viewBox="0 0 60 60" fill="none" xmlns="http://www.w3.org/2000/svg">
<g opacity="0.6">
<rect width="60" height="60" rx="10" fill="#5D50A2"/>
<path d="M43.9667 18.995C41.2295 18.5149 38.5252 17.8632 35.8698 17.0438C34.0296 16.474 32.2162 15.8184 30.4804 15.0957C30.3281 15.0325 30.1649 15 30 15C29.8351 15 29.6719 15.0325 29.5196 15.0957C27.7838 15.8184 25.9704 16.474 24.1302 17.0438C21.4748 17.8632 18.7705 18.5149 16.0333 18.995C15.7438 19.046 15.4815 19.1974 15.2925 19.4225C15.1036 19.6477 15 19.9323 15 20.2262V27.7193C15 34.6402 20.0149 41.1148 28.0881 44.6164C28.6937 44.8697 29.3436 45.0001 30 45.0001C30.6564 45.0001 31.3063 44.8697 31.9119 44.6164C39.9851 41.1148 45 34.6402 45 27.7193V20.2262C45 19.9323 44.8965 19.6477 44.7075 19.4225C44.5185 19.1974 44.2562 19.046 43.9667 18.995ZM35.5713 27.7589L29.3213 34.0089C29.2053 34.125 29.0675 34.217 28.9158 34.2799C28.7642 34.3427 28.6016 34.375 28.4375 34.375C28.2734 34.375 28.1108 34.3427 27.9592 34.2799C27.8075 34.217 27.6697 34.125 27.5537 34.0089L24.4287 30.8839C24.3102 30.7683 24.2158 30.6304 24.151 30.4782C24.0863 30.3259 24.0524 30.1623 24.0513 29.9968C24.0503 29.8313 24.0821 29.6672 24.1449 29.5142C24.2078 29.3611 24.3004 29.222 24.4174 29.105C24.5344 28.988 24.6735 28.8953 24.8266 28.8325C24.9797 28.7696 25.1437 28.7378 25.3092 28.7389C25.4747 28.7399 25.6383 28.7738 25.7906 28.8386C25.9429 28.9034 26.0808 28.9977 26.1963 29.1162L28.4375 31.3572L33.8037 25.9912C33.9192 25.8727 34.0571 25.7784 34.2094 25.7136C34.3617 25.6488 34.5253 25.6149 34.6908 25.6139C34.8563 25.6128 35.0203 25.6446 35.1734 25.7075C35.3265 25.7703 35.4656 25.863 35.5826 25.98C35.6996 26.097 35.7922 26.2361 35.8551 26.3892C35.9179 26.5422 35.9497 26.7063 35.9487 26.8718C35.9476 27.0373 35.9137 27.2009 35.849 27.3532C35.7842 27.5054 35.6898 27.6433 35.5713 27.7589Z" fill="white"/>
</g>
</svg>
