<svg width="200" height="200" viewBox="0 0 200 200" fill="none" xmlns="http://www.w3.org/2000/svg">
<rect width="200" height="200" rx="20" fill="#5D50A2"/>
<path d="M72.5854 155.001H55.1696L53.8315 152.634L46.2668 139.28L45.1289 137.294L37.3429 123.57L36.4158 121.922L28.4401 107.85L27.7026 106.582L19.5268 92.1403L19 91.2317L27.4076 76.4199H28.0292L36.4158 91.2211L36.9426 92.1403L45.1289 106.582L45.8454 107.85L53.8315 121.922L54.7692 123.57L62.5447 137.294L63.6826 139.28L71.2473 152.634L72.5854 155.001Z" fill="white"/>
<path d="M107.418 154.999H90.0018L88.6637 152.633L81.099 139.279L79.9611 137.293L72.1857 123.569L71.248 121.921L63.2829 107.849L62.5454 106.57L54.359 92.1389L53.8322 91.2198L45.4457 76.4186L45.1296 75.8692L36.5429 60.6982L36.4375 60.508L45.1296 45.168L53.8322 60.508L53.9481 60.6982L62.5454 75.8692L62.8509 76.4186L71.248 91.2198L71.7748 92.1389L79.9611 106.581L80.6776 107.849L88.6637 121.921L89.5909 123.569L97.3664 137.293L98.5148 139.279L106.079 152.633L107.418 154.999Z" fill="white"/>
<path d="M156.598 139.268V154.999C151.162 154.999 145.915 154.207 140.952 152.717L140.9 152.633L140.868 152.696C135.937 151.217 131.291 149.062 127.045 146.347C123.863 144.297 120.903 141.931 118.205 139.279C117.226 138.318 116.256 137.303 115.35 136.257C113.675 134.345 112.126 132.306 110.735 130.172L107.174 123.897C107.174 123.897 107.164 123.865 107.153 123.833C107.122 123.749 107.069 123.654 107.027 123.569C106.732 122.946 106.068 121.921 106.068 121.921L98.0713 107.849L97.3549 106.581L89.1686 92.1389L88.6628 91.2198L80.2658 76.4186L79.9497 75.8692L71.3419 60.6982L71.2471 60.5186L79.9497 45.168L88.6628 60.508L88.5575 60.6982H88.7787L97.376 75.8692L97.6921 76.4186L103.413 86.5185L106.089 91.2198L106.595 92.1389L114.781 106.581L115.508 107.849L123.768 121.414C124.242 122.153 124.748 122.861 125.275 123.569C127.919 127.108 131.154 130.172 134.81 132.634C139.014 135.465 143.776 137.483 148.907 138.508C149.413 138.613 149.929 138.698 150.445 138.793C152.436 139.11 154.491 139.268 156.587 139.268H156.598Z" fill="white"/>
<path d="M149.761 45.4226C149.666 45.4226 149.55 45.4437 149.445 45.4543C144.272 46.1199 139.32 47.525 134.695 49.5534C132.229 50.6416 129.848 51.8882 127.583 53.3145C125.55 54.5822 123.622 55.9874 121.788 57.4981C120.556 58.5123 119.365 59.5794 118.227 60.6992C115.562 63.3087 113.16 66.2035 111.084 69.3306L114.793 75.8702L115.109 76.4196L120.229 85.4525C121.515 82.1985 123.232 79.177 125.297 76.4196C126.635 74.6447 128.099 72.9755 129.711 71.4647C132.24 69.0665 135.095 66.9958 138.193 65.3372C139.594 64.5765 141.037 63.9215 142.534 63.351C146.895 61.6501 151.658 60.7309 156.62 60.7309V45C154.313 45 152.026 45.1479 149.782 45.4226H149.761Z" fill="white"/>
<path d="M180.301 99.9899C180.301 102.747 179.838 105.389 178.963 107.85C177.72 111.41 175.666 114.58 173.011 117.126C169.418 120.602 164.708 122.937 159.493 123.57H156.596V76.4199H159.493C161.695 76.684 163.792 77.244 165.772 78.0786C167.016 78.6174 168.206 79.2407 169.334 79.9591C172.652 82.0932 175.402 85.0091 177.309 88.4532C177.962 89.6259 178.521 90.8514 178.974 92.1508C179.753 94.38 180.217 96.7677 180.291 99.2504C180.301 99.5039 180.301 99.7469 180.301 99.9899Z" fill="white"/>
</svg>
