<svg width="154" height="46" viewBox="0 0 154 46" fill="none" xmlns="http://www.w3.org/2000/svg">
<path d="M73.9199 13.0797V4.95508H76.2771L78.6827 11.3435H78.7444L81.1015 4.95508H83.3617V13.0797H81.8902L81.9871 6.5323H81.8637L79.2995 13.0797H77.9513L75.4091 6.5323H75.299L75.3871 13.0797H73.9243H73.9199Z" fill="#5D50A2"/>
<path d="M86.6502 13.2522C86.2978 13.2522 85.9849 13.1815 85.703 13.0446C85.4254 12.9032 85.2095 12.7 85.0509 12.4216C84.8967 12.1477 84.8174 11.8119 84.8174 11.4187C84.8174 11.083 84.8791 10.7958 85.0024 10.5572C85.1258 10.3187 85.3152 10.1243 85.5664 9.97407C85.8219 9.82386 86.1347 9.69132 86.5137 9.58529C86.8882 9.47926 87.3375 9.3909 87.853 9.32905C88.113 9.28929 88.3333 9.24511 88.5095 9.20535C88.6858 9.16559 88.8179 9.09931 88.9016 9.01537C88.9853 8.93142 89.0294 8.79888 89.0294 8.62658C89.0294 8.37034 88.9413 8.15386 88.7651 7.96831C88.5888 7.78275 88.3024 7.68997 87.9015 7.68997C87.6636 7.68997 87.4433 7.73416 87.2318 7.8181C87.0247 7.90204 86.8397 8.03458 86.6811 8.20688C86.5225 8.37918 86.4123 8.6045 86.355 8.88283L84.9804 8.45429C85.0641 8.14061 85.1875 7.86227 85.3593 7.61928C85.5311 7.37188 85.7426 7.16424 85.9894 6.99194C86.2405 6.81964 86.5313 6.69151 86.8661 6.61198C87.201 6.52804 87.5578 6.48828 87.9323 6.48828C88.5315 6.48828 89.0206 6.58548 89.4127 6.78429C89.8004 6.9831 90.0868 7.2791 90.2719 7.68114C90.4569 8.08318 90.5494 8.6045 90.5494 9.24511V10.4512C90.5582 10.7207 90.5671 11.0079 90.5759 11.3127C90.5847 11.6176 90.5979 11.918 90.6199 12.2184C90.642 12.5188 90.6684 12.806 90.6992 13.0843H89.3246C89.2849 12.8546 89.2497 12.6072 89.2277 12.3465C89.2012 12.0859 89.1836 11.8164 89.166 11.5469H88.9809C88.8664 11.8517 88.7034 12.1345 88.4919 12.404C88.2804 12.669 88.0205 12.8811 87.7121 13.0313C87.4036 13.1815 87.0512 13.2611 86.6502 13.2611V13.2522ZM87.2626 12.0947C87.4257 12.0947 87.5931 12.0638 87.7605 12.0108C87.9279 11.9533 88.0954 11.8694 88.2584 11.7589C88.4214 11.6485 88.5712 11.5071 88.7122 11.3348C88.8532 11.1625 88.9721 10.9637 89.0691 10.734L89.0426 9.62505L89.351 9.70016C89.2056 9.80619 89.0294 9.89012 88.8311 9.95198C88.6285 10.0138 88.417 10.0668 88.1923 10.1066C87.9676 10.1464 87.7429 10.1905 87.5182 10.2303C87.2935 10.2701 87.0908 10.3275 86.9102 10.3982C86.7295 10.4689 86.5885 10.5661 86.4784 10.6942C86.3727 10.8223 86.3198 10.9946 86.3198 11.2155C86.3198 11.4939 86.4079 11.7103 86.5841 11.8694C86.7604 12.024 86.9851 12.1035 87.2671 12.1035L87.2626 12.0947Z" fill="#5D50A2"/>
<path d="M93.5447 13.08L91.3594 6.65625H93.0645L94.5492 11.8385H94.7343L96.2191 6.65625H97.8889L95.6815 13.08H93.5447Z" fill="#5D50A2"/>
<path d="M98.9111 13.0813V9.85623L98.9243 6.64435H100.237L100.202 8.85776H100.422C100.488 8.32319 100.599 7.8858 100.762 7.5412C100.92 7.1966 101.141 6.93594 101.422 6.75922C101.704 6.5825 102.048 6.49414 102.449 6.49414C102.533 6.49414 102.621 6.49414 102.713 6.50739C102.806 6.51623 102.912 6.53833 103.026 6.56925L102.965 8.21715C102.832 8.15972 102.7 8.11995 102.564 8.09345C102.427 8.06694 102.304 8.05811 102.189 8.05811C101.872 8.05811 101.594 8.14205 101.361 8.30551C101.127 8.46898 100.938 8.70313 100.788 9.00797C100.643 9.31281 100.533 9.67067 100.471 10.0771V13.0813H98.9111Z" fill="#5D50A2"/>
<path d="M104.093 13.0813V9.85623L104.106 6.64435H105.419L105.384 8.85776H105.604C105.67 8.32319 105.78 7.8858 105.943 7.5412C106.102 7.1966 106.322 6.93594 106.604 6.75922C106.886 6.5825 107.23 6.49414 107.631 6.49414C107.714 6.49414 107.803 6.49414 107.895 6.50739C107.988 6.51623 108.093 6.53833 108.208 6.56925L108.146 8.21715C108.014 8.15972 107.882 8.11995 107.745 8.09345C107.609 8.06694 107.485 8.05811 107.371 8.05811C107.054 8.05811 106.776 8.14205 106.542 8.30551C106.309 8.46898 106.119 8.70313 105.97 9.00797C105.824 9.31281 105.714 9.67067 105.652 10.0771V13.0813H104.093Z" fill="#5D50A2"/>
<path d="M110.057 5.63581C109.74 5.63581 109.498 5.56954 109.335 5.43259C109.172 5.29563 109.088 5.10565 109.088 4.85824C109.088 4.59758 109.172 4.39877 109.339 4.26182C109.506 4.12486 109.744 4.05859 110.057 4.05859C110.383 4.05859 110.63 4.12486 110.793 4.26182C110.956 4.39877 111.04 4.59316 111.04 4.84499C111.04 5.09681 110.956 5.29562 110.789 5.42816C110.621 5.56512 110.379 5.63139 110.057 5.63139V5.63581ZM109.269 13.0801V6.64311H110.815V13.0801H109.269Z" fill="#5D50A2"/>
<path d="M116.979 15.1215V13.3367C116.979 13.1378 116.992 12.9302 117.023 12.7049C117.05 12.4796 117.089 12.2498 117.133 12.0157C117.177 11.7815 117.221 11.5518 117.261 11.3221H117.027C116.913 11.7064 116.763 12.0422 116.578 12.3294C116.393 12.6165 116.16 12.8418 115.873 13.0053C115.587 13.1688 115.23 13.2527 114.807 13.2527C114.252 13.2527 113.78 13.1069 113.397 12.8109C113.014 12.5149 112.723 12.1173 112.525 11.6092C112.326 11.1056 112.229 10.5312 112.229 9.89063C112.229 9.21026 112.335 8.61383 112.542 8.10577C112.749 7.5977 113.058 7.20009 113.463 6.91292C113.868 6.62575 114.353 6.48438 114.917 6.48438C115.309 6.48438 115.653 6.55948 115.944 6.70527C116.234 6.85107 116.472 7.06754 116.657 7.3503C116.842 7.63305 116.97 7.98207 117.045 8.38852H117.265L117.239 6.65226H118.539L118.552 9.84203L118.539 15.1215H116.979ZM115.344 11.9848C115.556 11.9848 115.75 11.9406 115.926 11.8478C116.102 11.7594 116.256 11.6446 116.384 11.5032C116.516 11.3618 116.627 11.2072 116.723 11.0349C116.816 10.8626 116.887 10.6859 116.926 10.5003C116.966 10.3148 116.988 10.1469 116.988 9.98783V9.78018C116.988 9.55928 116.953 9.32956 116.882 9.0954C116.812 8.86125 116.71 8.64476 116.583 8.45037C116.45 8.25156 116.283 8.09251 116.08 7.96439C115.878 7.83627 115.631 7.77442 115.344 7.77442C115.04 7.77442 114.776 7.86278 114.547 8.03508C114.318 8.20738 114.146 8.45037 114.031 8.76846C113.917 9.08656 113.86 9.45768 113.86 9.8818C113.86 10.3059 113.917 10.6549 114.031 10.9642C114.146 11.2779 114.313 11.5253 114.529 11.7108C114.745 11.8964 115.018 11.9892 115.344 11.9892V11.9848Z" fill="#5D50A2"/>
<path d="M77.7542 26.2324C77.1506 26.2324 76.6043 26.1441 76.1152 25.9629C75.6262 25.7818 75.2164 25.5167 74.8772 25.1633C74.5379 24.8098 74.2824 24.3813 74.1105 23.8688C73.9387 23.3607 73.8506 22.7687 73.8506 22.0972C73.8506 21.4257 73.9387 20.7983 74.1194 20.2637C74.3 19.7292 74.5555 19.2785 74.8948 18.903C75.2296 18.5275 75.6306 18.2447 76.0976 18.0548C76.5646 17.8604 77.0801 17.7676 77.6441 17.7676C78.0935 17.7676 78.5076 17.825 78.8821 17.9443C79.2566 18.0636 79.5826 18.2359 79.8558 18.4612C80.129 18.6865 80.3449 18.956 80.4991 19.2741C80.6533 19.5878 80.737 19.9501 80.7458 20.3521L79.2963 20.7453C79.2963 20.3609 79.217 20.0473 79.0583 19.8043C78.8997 19.5613 78.6927 19.3757 78.4371 19.252C78.1816 19.1239 77.904 19.0621 77.6044 19.0621C77.3445 19.0621 77.0801 19.1151 76.8202 19.2211C76.5602 19.3271 76.3267 19.4994 76.1284 19.738C75.9258 19.9766 75.7672 20.2814 75.6482 20.6481C75.5292 21.0192 75.4719 21.4743 75.4719 22.0133C75.4719 22.7025 75.5689 23.2591 75.7671 23.6877C75.9654 24.1162 76.2386 24.4299 76.5955 24.6287C76.9523 24.8319 77.3533 24.9291 77.8027 24.9291C78.2521 24.9291 78.6266 24.8364 78.8953 24.6508C79.1641 24.4652 79.3624 24.2223 79.4901 23.9174C79.6179 23.6126 79.684 23.2812 79.6928 22.9189L81.0542 23.1398C81.0454 23.5684 80.9793 23.9704 80.8559 24.346C80.7326 24.7215 80.5387 25.0528 80.2788 25.3356C80.0188 25.6183 79.6752 25.8392 79.261 25.9939C78.8425 26.1485 78.3402 26.228 77.7498 26.228L77.7542 26.2324Z" fill="#5D50A2"/>
<path d="M85.1909 26.2332C84.5608 26.2332 84.0057 26.1006 83.5298 25.84C83.0496 25.5793 82.6751 25.195 82.4019 24.6913C82.1288 24.1877 81.9922 23.5647 81.9922 22.8269C81.9922 22.0891 82.1332 21.4573 82.4107 20.9581C82.6883 20.4589 83.0672 20.0834 83.5519 19.836C84.0365 19.5885 84.5828 19.4648 85.1953 19.4648C85.8077 19.4648 86.3716 19.593 86.8519 19.8448C87.3365 20.101 87.7154 20.481 87.993 20.9846C88.2706 21.4883 88.4116 22.1156 88.4116 22.8623C88.4116 23.6089 88.2706 24.2451 87.9886 24.7399C87.7066 25.2347 87.3233 25.6102 86.8343 25.8621C86.3452 26.1139 85.7989 26.2376 85.1953 26.2376L85.1909 26.2332ZM85.2525 25.0359C85.5962 25.0359 85.8826 24.9564 86.1161 24.7973C86.3496 24.6383 86.5303 24.3953 86.6624 24.0772C86.7946 23.7591 86.8607 23.3747 86.8607 22.9329C86.8607 22.4646 86.7946 22.067 86.658 21.7313C86.5214 21.3999 86.3276 21.1437 86.0764 20.9625C85.8209 20.7814 85.5125 20.693 85.1424 20.693C84.8164 20.693 84.53 20.7726 84.2877 20.9316C84.0453 21.0906 83.8603 21.3292 83.7281 21.6385C83.5959 21.9522 83.5298 22.3365 83.5298 22.796C83.5298 23.5161 83.684 24.0728 83.9881 24.4572C84.2965 24.8415 84.715 25.0359 85.2481 25.0359H85.2525Z" fill="#5D50A2"/>
<path d="M89.7832 26.0618V22.8367L89.7964 19.6248H91.1094L91.0741 21.8382H91.2944C91.3605 21.3037 91.4707 20.8663 91.6337 20.5217C91.7923 20.1771 92.0126 19.9164 92.2946 19.7397C92.5765 19.563 92.9202 19.4746 93.3211 19.4746C93.4048 19.4746 93.493 19.4746 93.5855 19.4879C93.678 19.4967 93.7837 19.5188 93.8983 19.5497L93.8366 21.1976C93.7044 21.1402 93.5723 21.1004 93.4357 21.0739C93.2991 21.0474 93.1757 21.0386 93.0612 21.0386C92.744 21.0386 92.4664 21.1225 92.2329 21.286C91.9994 21.4494 91.8099 21.6836 91.6601 21.9884C91.5147 22.2933 91.4046 22.6511 91.3429 23.0576V26.0618H89.7832Z" fill="#5D50A2"/>
<path d="M94.9771 28.102L94.9639 22.8844L94.9771 19.6239H96.2768L96.2636 21.3601L96.4619 21.3867C96.55 20.9758 96.6866 20.6312 96.8672 20.3484C97.0479 20.0657 97.2814 19.8492 97.5721 19.6946C97.8629 19.5444 98.2022 19.4648 98.5855 19.4648C99.1671 19.4648 99.6561 19.6062 100.057 19.8934C100.458 20.1805 100.762 20.5826 100.965 21.0951C101.167 21.6076 101.273 22.1996 101.273 22.8755C101.273 23.5515 101.181 24.086 100.991 24.5941C100.802 25.0978 100.515 25.4998 100.132 25.7958C99.7487 26.0918 99.2684 26.2376 98.6957 26.2376C98.2683 26.2376 97.9158 26.1537 97.6294 25.9858C97.343 25.8179 97.1095 25.5882 96.9289 25.301C96.7482 25.0138 96.6029 24.6825 96.4883 24.3025L96.268 24.2893C96.3253 24.519 96.3693 24.7487 96.4046 24.9829C96.4354 25.217 96.4663 25.4468 96.4883 25.6721C96.5103 25.8974 96.5236 26.1139 96.5236 26.3171V28.102H94.9771ZM98.1802 24.9652C98.4974 24.9652 98.7661 24.8769 98.982 24.6957C99.1979 24.5146 99.3698 24.2672 99.4931 23.9579C99.6165 23.6442 99.6782 23.282 99.6782 22.8623C99.6782 22.4425 99.6165 22.067 99.4931 21.7534C99.3698 21.4397 99.1935 21.2011 98.9644 21.0288C98.7353 20.8565 98.4665 20.7726 98.1537 20.7726C97.885 20.7726 97.6426 20.8344 97.4356 20.9581C97.2285 21.0818 97.0567 21.2453 96.9201 21.4441C96.7835 21.6473 96.6866 21.8594 96.6205 22.0891C96.5544 22.3188 96.5236 22.5397 96.5236 22.7518V22.9727C96.5236 23.1273 96.5456 23.2952 96.5852 23.4764C96.6249 23.6575 96.691 23.8342 96.7835 24.0109C96.8716 24.1877 96.9862 24.3467 97.1227 24.4837C97.2593 24.625 97.4135 24.7399 97.5898 24.8283C97.766 24.9166 97.9643 24.9652 98.1846 24.9652H98.1802Z" fill="#5D50A2"/>
<path d="M105.569 26.2332C104.939 26.2332 104.384 26.1006 103.908 25.84C103.428 25.5793 103.053 25.195 102.78 24.6913C102.507 24.1877 102.37 23.5647 102.37 22.8269C102.37 22.0891 102.511 21.4573 102.789 20.9581C103.066 20.4589 103.445 20.0834 103.93 19.836C104.414 19.5885 104.961 19.4648 105.573 19.4648C106.186 19.4648 106.75 19.593 107.23 19.8448C107.714 20.101 108.093 20.481 108.371 20.9846C108.649 21.4883 108.789 22.1156 108.789 22.8623C108.789 23.6089 108.648 24.2451 108.367 24.7399C108.085 25.2347 107.701 25.6102 107.212 25.8621C106.723 26.1139 106.177 26.2376 105.573 26.2376L105.569 26.2332ZM105.63 25.0359C105.974 25.0359 106.261 24.9564 106.494 24.7973C106.728 24.6383 106.908 24.3953 107.04 24.0772C107.173 23.7591 107.239 23.3747 107.239 22.9329C107.239 22.4646 107.173 22.067 107.036 21.7313C106.899 21.3999 106.706 21.1437 106.454 20.9625C106.199 20.7814 105.89 20.693 105.52 20.693C105.194 20.693 104.908 20.7726 104.666 20.9316C104.423 21.0906 104.238 21.3292 104.106 21.6385C103.974 21.9522 103.908 22.3365 103.908 22.796C103.908 23.5161 104.062 24.0728 104.366 24.4572C104.674 24.8415 105.093 25.0359 105.626 25.0359H105.63Z" fill="#5D50A2"/>
<path d="M110.16 26.0618V22.8367L110.173 19.6248H111.486L111.451 21.8382H111.671C111.737 21.3037 111.848 20.8663 112.011 20.5217C112.169 20.1771 112.39 19.9164 112.672 19.7397C112.953 19.563 113.297 19.4746 113.698 19.4746C113.782 19.4746 113.87 19.4746 113.962 19.4879C114.055 19.4967 114.161 19.5188 114.275 19.5497L114.214 21.1976C114.081 21.1402 113.949 21.1004 113.813 21.0739C113.676 21.0474 113.553 21.0386 113.438 21.0386C113.121 21.0386 112.843 21.1225 112.61 21.286C112.376 21.4494 112.187 21.6836 112.037 21.9884C111.892 22.2933 111.782 22.6511 111.72 23.0576V26.0618H110.16Z" fill="#5D50A2"/>
<path d="M116.737 26.2327C116.385 26.2327 116.072 26.162 115.79 26.025C115.512 25.8837 115.296 25.6804 115.138 25.4021C114.984 25.1282 114.904 24.7924 114.904 24.3992C114.904 24.0634 114.966 23.7763 115.089 23.5377C115.213 23.2991 115.402 23.1048 115.653 22.9545C115.909 22.8043 116.222 22.6718 116.601 22.5658C116.975 22.4597 117.424 22.3714 117.94 22.3095C118.2 22.2697 118.42 22.2256 118.596 22.1858C118.773 22.146 118.905 22.0798 118.989 21.9958C119.072 21.9119 119.116 21.7794 119.116 21.6071C119.116 21.3508 119.028 21.1343 118.852 20.9488C118.676 20.7632 118.389 20.6704 117.988 20.6704C117.75 20.6704 117.53 20.7146 117.319 20.7986C117.112 20.8825 116.927 21.015 116.768 21.1874C116.609 21.3597 116.499 21.585 116.442 21.8633L115.067 21.4348C115.151 21.1211 115.274 20.8427 115.446 20.5998C115.618 20.3523 115.83 20.1447 116.076 19.9724C116.327 19.8001 116.618 19.672 116.953 19.5925C117.288 19.5085 117.645 19.4688 118.019 19.4688C118.618 19.4688 119.108 19.566 119.5 19.7648C119.887 19.9636 120.174 20.2596 120.359 20.6616C120.544 21.0636 120.636 21.585 120.636 22.2256V23.4317C120.645 23.7012 120.654 23.9883 120.663 24.2932C120.672 24.598 120.685 24.8984 120.707 25.1989C120.729 25.4993 120.755 25.7865 120.786 26.0648H119.412C119.372 25.8351 119.337 25.5877 119.315 25.327C119.288 25.0663 119.271 24.7968 119.253 24.5273H119.068C118.953 24.8322 118.79 25.1149 118.579 25.3844C118.367 25.6495 118.107 25.8616 117.799 26.0118C117.491 26.162 117.138 26.2415 116.737 26.2415V26.2327ZM117.354 25.0752C117.517 25.0752 117.684 25.0442 117.852 24.9912C118.019 24.9338 118.187 24.8498 118.35 24.7394C118.513 24.6289 118.663 24.4876 118.804 24.3153C118.945 24.143 119.063 23.9442 119.16 23.7144L119.134 22.6055L119.442 22.6806C119.297 22.7867 119.121 22.8706 118.922 22.9324C118.72 22.9943 118.508 23.0473 118.284 23.0871C118.059 23.1268 117.834 23.171 117.61 23.2108C117.385 23.2505 117.182 23.308 117.002 23.3787C116.821 23.4494 116.68 23.5466 116.57 23.6747C116.464 23.8028 116.411 23.9751 116.411 24.196C116.411 24.4743 116.499 24.6908 116.675 24.8498C116.852 25.0045 117.076 25.084 117.358 25.084L117.354 25.0752Z" fill="#5D50A2"/>
<path d="M124.571 26.2056C123.902 26.2056 123.4 26.0245 123.074 25.6578C122.747 25.2911 122.584 24.7212 122.584 23.9392V20.8643H121.65L121.677 19.6317H122.316C122.545 19.6228 122.717 19.5831 122.831 19.5168C122.946 19.4461 123.016 19.318 123.038 19.128L123.175 18.1914H124.096V19.6184H125.766V20.9085H124.096V23.8862C124.096 24.191 124.166 24.4075 124.303 24.5445C124.444 24.6814 124.655 24.7477 124.942 24.7477C125.087 24.7477 125.241 24.73 125.395 24.6991C125.55 24.6682 125.691 24.6063 125.814 24.5135V25.9891C125.567 26.0731 125.343 26.1261 125.131 26.157C124.924 26.1835 124.735 26.2012 124.571 26.2012V26.2056Z" fill="#5D50A2"/>
<path d="M129.947 26.2317C129.423 26.2317 128.96 26.1566 128.555 26.002C128.149 25.8518 127.806 25.6309 127.528 25.3481C127.25 25.0654 127.043 24.7252 126.902 24.3276C126.761 23.93 126.695 23.4705 126.695 22.9536C126.695 22.4367 126.766 21.9772 126.902 21.5487C127.043 21.1201 127.246 20.749 127.515 20.4354C127.784 20.1217 128.114 19.8787 128.502 19.7108C128.889 19.5429 129.33 19.459 129.819 19.459C130.308 19.459 130.718 19.5341 131.088 19.6887C131.458 19.8389 131.771 20.0731 132.013 20.3823C132.26 20.696 132.441 21.076 132.564 21.5354C132.687 21.9905 132.736 22.5206 132.709 23.1303L127.691 23.1568V22.26L131.802 22.2335L131.251 22.7239C131.299 22.2556 131.264 21.8712 131.145 21.5708C131.026 21.2704 130.85 21.0495 130.617 20.9081C130.383 20.7667 130.119 20.6916 129.823 20.6916C129.497 20.6916 129.207 20.78 128.96 20.9567C128.709 21.1334 128.515 21.3896 128.378 21.721C128.237 22.0523 128.171 22.4588 128.171 22.9315C128.171 23.6472 128.326 24.1774 128.638 24.5308C128.951 24.8843 129.383 25.061 129.938 25.061C130.185 25.061 130.392 25.0301 130.559 24.9682C130.727 24.9064 130.868 24.8224 130.982 24.7164C131.097 24.6103 131.189 24.4911 131.26 24.3585C131.33 24.226 131.383 24.0979 131.427 23.9653L132.775 24.2613C132.701 24.5662 132.595 24.8357 132.449 25.0742C132.304 25.3128 132.119 25.5204 131.885 25.6972C131.652 25.8739 131.374 26.0064 131.057 26.0992C130.74 26.1876 130.365 26.2362 129.938 26.2362L129.947 26.2317Z" fill="#5D50A2"/>
<path d="M74.1328 39.3239V31.1992H75.6925V39.3239H74.1328ZM75.1506 36.9735V35.7188H77.0539C77.7148 35.7188 78.2083 35.5907 78.5343 35.3389C78.8559 35.0826 79.0189 34.6541 79.0189 34.0444C79.0189 33.5098 78.8691 33.1078 78.5651 32.8339C78.2611 32.5599 77.7897 32.423 77.1552 32.423H75.155V31.2036H77.2037C77.7368 31.2036 78.2083 31.2655 78.6224 31.3892C79.0366 31.5129 79.389 31.694 79.6842 31.9326C79.9794 32.1712 80.2041 32.4716 80.3671 32.8383C80.5258 33.205 80.6051 33.6247 80.6051 34.1018C80.6051 34.7248 80.4597 35.2505 80.1733 35.679C79.8869 36.1076 79.4639 36.4301 78.9088 36.651C78.3537 36.8719 77.6663 36.9824 76.8468 36.9824H75.155L75.1506 36.9735Z" fill="#5D50A2"/>
<path d="M81.8301 39.3216V36.0965L81.8433 32.8846H83.1562L83.121 35.098H83.3413C83.4074 34.5634 83.5175 34.126 83.6805 33.7814C83.8392 33.4368 84.0594 33.1762 84.3414 32.9995C84.6234 32.8227 84.9671 32.7344 85.368 32.7344C85.4517 32.7344 85.5398 32.7344 85.6324 32.7476C85.7249 32.7565 85.8306 32.7786 85.9452 32.8095L85.8835 34.4574C85.7513 34.4 85.6191 34.3602 85.4825 34.3337C85.346 34.3072 85.2226 34.2983 85.1081 34.2983C84.7908 34.2983 84.5133 34.3823 84.2798 34.5457C84.0462 34.7092 83.8568 34.9434 83.707 35.2482C83.5616 35.553 83.4514 35.9109 83.3898 36.3174V39.3216H81.8301Z" fill="#5D50A2"/>
<path d="M89.8227 39.493C89.1926 39.493 88.6375 39.3604 88.1617 39.0997C87.6814 38.8391 87.3069 38.4547 87.0338 37.9511C86.7606 37.4474 86.624 36.8245 86.624 36.0867C86.624 35.3489 86.765 34.7171 87.0426 34.2179C87.3201 33.7187 87.6991 33.3431 88.1837 33.0957C88.6683 32.8483 89.2147 32.7246 89.8271 32.7246C90.4395 32.7246 91.0035 32.8527 91.4837 33.1045C91.9684 33.3608 92.3473 33.7407 92.6248 34.2444C92.9024 34.748 93.0434 35.3754 93.0434 36.122C93.0434 36.8687 92.9024 37.5049 92.6204 37.9997C92.3385 38.4945 91.9551 38.87 91.4661 39.1218C90.977 39.3737 90.4307 39.4974 89.8271 39.4974L89.8227 39.493ZM89.8844 38.3001C90.228 38.3001 90.5144 38.2206 90.7479 38.0615C90.9814 37.9025 91.1621 37.6595 91.2943 37.3414C91.4264 37.0233 91.4925 36.6389 91.4925 36.1971C91.4925 35.7288 91.4264 35.3312 91.2899 34.9954C91.1533 34.6641 90.9594 34.4079 90.7083 34.2267C90.4527 34.0456 90.1443 33.9572 89.7742 33.9572C89.4482 33.9572 89.1618 34.0367 88.9195 34.1958C88.6772 34.3548 88.4921 34.5934 88.3599 34.9027C88.2278 35.2163 88.1617 35.6007 88.1617 36.0602C88.1617 36.7803 88.3159 37.337 88.6199 37.7213C88.9283 38.1057 89.3469 38.3001 89.88 38.3001H89.8844Z" fill="#5D50A2"/>
<path d="M94.9021 39.3215V35.0626H93.8447V33.8918L95.5146 33.9757V33.7548C95.259 33.6797 95.0519 33.5693 94.8845 33.4235C94.7171 33.2777 94.5937 33.1054 94.51 32.9066C94.4263 32.7078 94.3867 32.5001 94.3867 32.2792C94.3867 31.9258 94.4704 31.621 94.6378 31.3691C94.8052 31.1129 95.0475 30.9141 95.3604 30.7639C95.6732 30.6181 96.0477 30.543 96.4706 30.543C96.8231 30.543 97.1447 30.5871 97.4355 30.6799C97.7263 30.7683 97.9598 30.8832 98.1405 31.0245L98.0171 32.4383C97.8365 32.2969 97.625 32.1865 97.3871 32.0981C97.1447 32.0142 96.9156 31.97 96.6953 31.97C96.4398 31.97 96.2327 32.0407 96.0697 32.1865C95.9067 32.3323 95.823 32.5576 95.823 32.8712C95.823 33.0833 95.8626 33.2556 95.9463 33.3837C96.03 33.5118 96.127 33.609 96.2415 33.6797C96.3561 33.7504 96.475 33.7946 96.5984 33.8211H98.0964L98.0832 35.0626H96.4266V39.3215H94.9065H94.9021Z" fill="#5D50A2"/>
<path d="M102.071 39.4954C101.547 39.4954 101.084 39.4203 100.679 39.2657C100.273 39.1155 99.9296 38.8946 99.652 38.6118C99.3745 38.3291 99.1674 37.9889 99.0264 37.5913C98.8854 37.1937 98.8193 36.7342 98.8193 36.2173C98.8193 35.7004 98.8898 35.2409 99.0264 34.8124C99.1674 34.3838 99.3701 34.0127 99.6388 33.699C99.9076 33.3853 100.238 33.1424 100.626 32.9745C101.013 32.8066 101.454 32.7227 101.943 32.7227C102.432 32.7227 102.842 32.7978 103.212 32.9524C103.582 33.1026 103.895 33.3368 104.137 33.646C104.384 33.9597 104.565 34.3396 104.688 34.7991C104.811 35.2542 104.86 35.7843 104.833 36.394L99.8151 36.4205V35.5237L103.926 35.4971L103.375 35.9875C103.423 35.5192 103.388 35.1349 103.269 34.8344C103.15 34.534 102.974 34.3131 102.741 34.1718C102.507 34.0304 102.243 33.9553 101.948 33.9553C101.621 33.9553 101.331 34.0436 101.084 34.2204C100.833 34.3971 100.639 34.6533 100.502 34.9847C100.361 35.316 100.295 35.7225 100.295 36.1952C100.295 36.9109 100.45 37.4411 100.762 37.7945C101.075 38.1479 101.507 38.3247 102.062 38.3247C102.309 38.3247 102.516 38.2937 102.683 38.2319C102.851 38.17 102.992 38.0861 103.106 37.98C103.221 37.874 103.313 37.7547 103.384 37.6222C103.454 37.4897 103.507 37.3615 103.551 37.229L104.899 37.525C104.825 37.8298 104.719 38.0993 104.573 38.3379C104.428 38.5765 104.243 38.7841 104.009 38.9608C103.776 39.1376 103.498 39.2701 103.181 39.3629C102.864 39.4512 102.489 39.4998 102.062 39.4998L102.071 39.4954Z" fill="#5D50A2"/>
<path d="M108.812 39.4954C108.38 39.4954 107.988 39.4512 107.64 39.3673C107.292 39.2834 106.996 39.1552 106.75 38.9918C106.503 38.8283 106.309 38.6295 106.159 38.3998C106.014 38.17 105.926 37.9182 105.899 37.6487L107.089 37.2069C107.115 37.4101 107.199 37.6001 107.345 37.768C107.49 37.9359 107.697 38.0684 107.957 38.17C108.217 38.2672 108.534 38.3158 108.904 38.3158C109.314 38.3158 109.631 38.254 109.856 38.1258C110.081 37.9977 110.195 37.8166 110.195 37.578C110.195 37.3969 110.133 37.2555 110.01 37.1539C109.887 37.0523 109.711 36.9683 109.477 36.9021C109.243 36.8358 108.966 36.7695 108.649 36.7033C108.336 36.637 108.027 36.5619 107.723 36.4824C107.415 36.3984 107.133 36.288 106.869 36.1422C106.609 36.0008 106.397 35.8064 106.243 35.5678C106.089 35.3293 106.01 35.0288 106.01 34.671C106.01 34.2866 106.115 33.9464 106.322 33.6549C106.529 33.3633 106.833 33.1379 107.23 32.9701C107.627 32.8066 108.107 32.7227 108.671 32.7227C109.204 32.7227 109.662 32.7978 110.05 32.9436C110.437 33.0893 110.755 33.3014 111.001 33.5797C111.248 33.8537 111.402 34.1762 111.468 34.5473L110.191 34.967C110.164 34.7373 110.089 34.5429 109.957 34.3838C109.825 34.2248 109.653 34.1011 109.437 34.0215C109.221 33.9376 108.966 33.8978 108.671 33.8978C108.296 33.8978 107.997 33.9641 107.781 34.0967C107.565 34.2292 107.455 34.4103 107.455 34.6401C107.455 34.8124 107.521 34.9537 107.657 35.0598C107.794 35.1658 107.979 35.2542 108.221 35.316C108.464 35.3823 108.741 35.453 109.063 35.5237C109.376 35.5811 109.684 35.6518 109.988 35.7401C110.296 35.8241 110.574 35.9389 110.821 36.0803C111.072 36.2217 111.266 36.4028 111.411 36.6281C111.552 36.8535 111.627 37.1451 111.627 37.4941C111.627 37.9226 111.517 38.2805 111.297 38.5765C111.076 38.8725 110.755 39.0978 110.332 39.2613C109.909 39.4203 109.402 39.4998 108.803 39.4998L108.812 39.4954Z" fill="#5D50A2"/>
<path d="M115.535 39.4954C115.104 39.4954 114.711 39.4512 114.363 39.3673C114.015 39.2834 113.72 39.1552 113.473 38.9918C113.227 38.8283 113.033 38.6295 112.883 38.3998C112.738 38.17 112.649 37.9182 112.623 37.6487L113.813 37.2069C113.839 37.4101 113.923 37.6001 114.068 37.768C114.214 37.9359 114.421 38.0684 114.681 38.17C114.941 38.2672 115.258 38.3158 115.628 38.3158C116.038 38.3158 116.355 38.254 116.58 38.1258C116.804 37.9977 116.919 37.8166 116.919 37.578C116.919 37.3969 116.857 37.2555 116.734 37.1539C116.61 37.0523 116.434 36.9683 116.201 36.9021C115.967 36.8358 115.69 36.7695 115.372 36.7033C115.06 36.637 114.751 36.5619 114.447 36.4824C114.139 36.3984 113.857 36.288 113.592 36.1422C113.332 36.0008 113.121 35.8064 112.967 35.5678C112.812 35.3293 112.733 35.0288 112.733 34.671C112.733 34.2866 112.839 33.9464 113.046 33.6549C113.253 33.3633 113.557 33.1379 113.954 32.9701C114.35 32.8066 114.83 32.7227 115.394 32.7227C115.927 32.7227 116.386 32.7978 116.773 32.9436C117.161 33.0893 117.478 33.3014 117.725 33.5797C117.972 33.8581 118.126 34.1762 118.192 34.5473L116.914 34.967C116.888 34.7373 116.813 34.5429 116.681 34.3838C116.549 34.2248 116.377 34.1011 116.161 34.0215C115.945 33.9376 115.69 33.8978 115.394 33.8978C115.02 33.8978 114.72 33.9641 114.504 34.0967C114.288 34.2292 114.178 34.4103 114.178 34.6401C114.178 34.8124 114.244 34.9537 114.381 35.0598C114.518 35.1658 114.703 35.2542 114.945 35.316C115.187 35.3823 115.465 35.453 115.786 35.5237C116.099 35.5811 116.408 35.6518 116.712 35.7401C117.02 35.8241 117.298 35.9389 117.544 36.0803C117.796 36.2217 117.989 36.4028 118.135 36.6281C118.276 36.8535 118.351 37.1451 118.351 37.4941C118.351 37.9226 118.241 38.2805 118.02 38.5765C117.8 38.8725 117.478 39.0978 117.055 39.2613C116.632 39.4203 116.126 39.4998 115.527 39.4998L115.535 39.4954Z" fill="#5D50A2"/>
<path d="M120.448 31.8741C120.131 31.8741 119.888 31.8078 119.725 31.6709C119.562 31.5339 119.479 31.3439 119.479 31.0965C119.479 30.8359 119.562 30.6371 119.73 30.5001C119.897 30.3631 120.135 30.2969 120.448 30.2969C120.774 30.2969 121.021 30.3631 121.184 30.5001C121.347 30.6371 121.43 30.8314 121.43 31.0833C121.43 31.3351 121.347 31.5339 121.179 31.6665C121.012 31.8034 120.769 31.8697 120.448 31.8697V31.8741ZM119.659 39.3228V32.8858H121.206V39.3228H119.659Z" fill="#5D50A2"/>
<path d="M125.81 39.493C125.18 39.493 124.625 39.3604 124.149 39.0997C123.669 38.8391 123.294 38.4547 123.021 37.9511C122.748 37.4474 122.611 36.8245 122.611 36.0867C122.611 35.3489 122.752 34.7171 123.03 34.2179C123.307 33.7187 123.686 33.3431 124.171 33.0957C124.656 32.8483 125.202 32.7246 125.814 32.7246C126.427 32.7246 126.991 32.8527 127.471 33.1045C127.956 33.3608 128.335 33.7407 128.612 34.2444C128.89 34.748 129.031 35.3754 129.031 36.122C129.031 36.8687 128.89 37.5049 128.608 37.9997C128.326 38.4945 127.942 38.87 127.453 39.1218C126.964 39.3737 126.418 39.4974 125.814 39.4974L125.81 39.493ZM125.872 38.3001C126.215 38.3001 126.502 38.2206 126.735 38.0615C126.969 37.9025 127.149 37.6595 127.282 37.3414C127.414 37.0233 127.48 36.6389 127.48 36.1971C127.48 35.7288 127.414 35.3312 127.277 34.9954C127.141 34.6641 126.947 34.4079 126.696 34.2267C126.44 34.0456 126.132 33.9572 125.762 33.9572C125.436 33.9572 125.149 34.0367 124.907 34.1958C124.664 34.3548 124.479 34.5934 124.347 34.9027C124.215 35.2163 124.149 35.6007 124.149 36.0602C124.149 36.7803 124.303 37.337 124.607 37.7213C124.916 38.1057 125.334 38.3001 125.867 38.3001H125.872Z" fill="#5D50A2"/>
<path d="M130.4 39.3231V35.3823L130.414 32.8817H131.713L131.665 34.8521H131.898C132.004 34.375 132.158 33.9774 132.352 33.6593C132.55 33.3412 132.797 33.1026 133.097 32.9524C133.396 32.8022 133.74 32.7227 134.132 32.7227C134.868 32.7227 135.427 32.9833 135.815 33.5046C136.199 34.026 136.392 34.8256 136.392 35.8992V39.3187H134.819V36.0582C134.819 35.3602 134.714 34.8521 134.507 34.5252C134.3 34.2027 133.991 34.0392 133.581 34.0392C133.229 34.0392 132.934 34.1497 132.696 34.3661C132.458 34.5826 132.277 34.8698 132.154 35.2277C132.031 35.5855 131.96 35.9743 131.947 36.3896V39.3187H130.4V39.3231Z" fill="#5D50A2"/>
<path d="M139.499 39.4963C139.146 39.4963 138.834 39.4257 138.552 39.2887C138.274 39.1473 138.058 38.9441 137.9 38.6658C137.745 38.3918 137.666 38.0561 137.666 37.6629C137.666 37.3271 137.728 37.0399 137.851 36.8014C137.974 36.5628 138.164 36.3684 138.415 36.2182C138.671 36.068 138.983 35.9354 139.362 35.8294C139.737 35.7234 140.186 35.635 140.702 35.5732C140.962 35.5334 141.182 35.4892 141.358 35.4495C141.534 35.4097 141.667 35.3434 141.75 35.2595C141.834 35.1756 141.878 35.043 141.878 34.8707C141.878 34.6145 141.79 34.398 141.614 34.2124C141.437 34.0269 141.151 33.9341 140.75 33.9341C140.512 33.9341 140.292 33.9783 140.08 34.0622C139.873 34.1462 139.688 34.2787 139.53 34.451C139.371 34.6233 139.261 34.8486 139.204 35.127L137.829 34.6984C137.913 34.3847 138.036 34.1064 138.208 33.8634C138.38 33.616 138.591 33.4084 138.838 33.2361C139.089 33.0638 139.38 32.9356 139.715 32.8561C140.05 32.7722 140.406 32.7324 140.781 32.7324C141.38 32.7324 141.869 32.8296 142.261 33.0284C142.649 33.2272 142.935 33.5232 143.121 33.9253C143.306 34.3273 143.398 34.8486 143.398 35.4892V36.6953C143.407 36.9648 143.416 37.252 143.425 37.5568C143.433 37.8617 143.447 38.1621 143.469 38.4625C143.491 38.763 143.517 39.0501 143.548 39.3285H142.173C142.134 39.0987 142.098 38.8513 142.076 38.5907C142.05 38.33 142.032 38.0605 142.015 37.791H141.83C141.715 38.0958 141.552 38.3786 141.341 38.6481C141.129 38.9132 140.869 39.1252 140.561 39.2754C140.252 39.4257 139.9 39.5052 139.499 39.5052V39.4963ZM140.111 38.3388C140.274 38.3388 140.442 38.3079 140.609 38.2549C140.777 38.1975 140.944 38.1135 141.107 38.0031C141.27 37.8926 141.42 37.7512 141.561 37.5789C141.702 37.4066 141.821 37.2078 141.918 36.9781L141.891 35.8692L142.2 35.9443C142.054 36.0503 141.878 36.1343 141.68 36.1961C141.477 36.258 141.266 36.311 141.041 36.3507C140.816 36.3905 140.592 36.4347 140.367 36.4745C140.142 36.5142 139.939 36.5716 139.759 36.6423C139.578 36.713 139.437 36.8102 139.327 36.9383C139.221 37.0665 139.168 37.2388 139.168 37.4597C139.168 37.738 139.257 37.9545 139.433 38.1135C139.609 38.2681 139.834 38.3477 140.116 38.3477L140.111 38.3388Z" fill="#5D50A2"/>
<path d="M145.068 39.3227V30.584H146.602V39.3227H145.068Z" fill="#5D50A2"/>
<path d="M150.84 39.4954C150.408 39.4954 150.016 39.4512 149.668 39.3673C149.32 39.2834 149.025 39.1552 148.778 38.9918C148.531 38.8283 148.337 38.6295 148.188 38.3998C148.042 38.17 147.954 37.9182 147.928 37.6487L149.117 37.2069C149.144 37.4101 149.227 37.6001 149.373 37.768C149.518 37.9359 149.725 38.0684 149.985 38.17C150.245 38.2672 150.562 38.3158 150.933 38.3158C151.342 38.3158 151.66 38.254 151.884 38.1258C152.109 37.9977 152.223 37.8166 152.223 37.578C152.223 37.3969 152.162 37.2555 152.038 37.1539C151.915 37.0523 151.739 36.9683 151.505 36.9021C151.272 36.8358 150.994 36.7695 150.677 36.7033C150.364 36.637 150.056 36.5619 149.752 36.4824C149.443 36.3984 149.161 36.288 148.897 36.1422C148.637 36.0008 148.426 35.8064 148.271 35.5678C148.117 35.3293 148.038 35.0288 148.038 34.671C148.038 34.2866 148.144 33.9464 148.351 33.6549C148.558 33.3633 148.862 33.1379 149.258 32.9701C149.655 32.8066 150.135 32.7227 150.699 32.7227C151.232 32.7227 151.69 32.7978 152.078 32.9436C152.466 33.0893 152.783 33.3014 153.03 33.5797C153.276 33.8581 153.431 34.1762 153.497 34.5473L152.219 34.967C152.193 34.7373 152.118 34.5429 151.986 34.3838C151.853 34.2248 151.682 34.1011 151.466 34.0215C151.25 33.9376 150.994 33.8978 150.699 33.8978C150.325 33.8978 150.025 33.9641 149.809 34.0967C149.593 34.2292 149.483 34.4103 149.483 34.6401C149.483 34.8124 149.549 34.9537 149.686 35.0598C149.822 35.1658 150.007 35.2542 150.25 35.316C150.492 35.3823 150.77 35.453 151.091 35.5237C151.404 35.5811 151.712 35.6518 152.016 35.7401C152.325 35.8241 152.602 35.9389 152.849 36.0803C153.1 36.2217 153.294 36.4028 153.44 36.6281C153.58 36.8535 153.655 37.1451 153.655 37.4941C153.655 37.9226 153.545 38.2805 153.325 38.5765C153.105 38.8725 152.783 39.0978 152.36 39.2613C151.937 39.4203 151.43 39.4998 150.831 39.4998L150.84 39.4954Z" fill="#5D50A2"/>
<path d="M22.4083 45.9996H15.1254L14.5659 45.01L11.4024 39.4256L10.9266 38.5951L7.67065 32.8561L7.28293 32.1669L3.94768 26.2822L3.63927 25.752L0.220294 19.7126L0 19.3327L3.5159 13.1387H3.77585L7.28293 19.3283L7.50322 19.7126L10.9266 25.752L11.2262 26.2822L14.5659 32.1669L14.958 32.8561L18.2095 38.5951L18.6854 39.4256L21.8488 45.01L22.4083 45.9996Z" fill="#5D50A2"/>
<path d="M36.9745 45.9996H29.6915L29.132 45.01L25.9686 39.4257L25.4927 38.5951L22.2412 32.8561L21.849 32.1669L18.5182 26.2822L18.2098 25.7476L14.7864 19.7127L14.5661 19.3283L11.059 13.1387L10.9268 12.909L7.33605 6.56474L7.29199 6.48522L10.9268 0.0703125L14.5661 6.48522L14.6146 6.56474L18.2098 12.909L18.3376 13.1387L21.849 19.3283L22.0693 19.7127L25.4927 25.752L25.7923 26.2822L29.132 32.1669L29.5197 32.8561L32.7712 38.5951L33.2515 39.4257L36.4149 45.01L36.9745 45.9996Z" fill="#5D50A2"/>
<path d="M57.5407 39.4212V45.9996C55.2673 45.9996 53.0732 45.6683 50.998 45.0453L50.976 45.01L50.9627 45.0365C48.9008 44.418 46.9578 43.5167 45.1822 42.3813C43.8516 41.5242 42.6136 40.5346 41.4857 39.4257C41.0759 39.0236 40.6706 38.5995 40.2917 38.1621C39.5911 37.3625 38.9435 36.5098 38.3619 35.6174L36.8727 32.9931C36.8727 32.9931 36.8683 32.9798 36.8639 32.9666C36.8507 32.9312 36.8286 32.8915 36.811 32.8561C36.6877 32.5955 36.4101 32.1669 36.4101 32.1669L33.066 26.2822L32.7664 25.752L29.3431 19.7127L29.1316 19.3283L25.6201 13.1387L25.4879 12.909L21.8883 6.56474L21.8486 6.48963L25.4879 0.0703125L29.1316 6.48522L29.0875 6.56474H29.18L32.7752 12.909L32.9074 13.1387L35.2998 17.3623L36.4189 19.3283L36.6304 19.7127L40.0538 25.752L40.3578 26.2822L43.812 31.9549C44.0102 32.2641 44.2217 32.5601 44.442 32.8561C45.5479 34.3362 46.9005 35.6174 48.4294 36.6468C50.1873 37.8308 52.1788 38.6746 54.3244 39.1032C54.5359 39.1473 54.7518 39.1827 54.9677 39.2224C55.8004 39.355 56.6595 39.4212 57.5363 39.4212H57.5407Z" fill="#5D50A2"/>
<path d="M54.6818 0.176716C54.6422 0.176716 54.5937 0.185552 54.5496 0.18997C52.3864 0.468303 50.3156 1.0559 48.3814 1.90415C47.3504 2.3592 46.3547 2.88052 45.4074 3.47695C44.5571 4.0071 43.7508 4.5947 42.9842 5.22647C42.4687 5.6506 41.9708 6.09681 41.495 6.56512C40.3803 7.65636 39.3758 8.86688 38.5078 10.1746L40.0587 12.9093L40.1909 13.1391L42.3321 16.9164C42.8697 15.5557 43.5878 14.2922 44.4514 13.1391C45.0109 12.3969 45.6233 11.6988 46.2974 11.067C47.3548 10.0642 48.5488 9.19823 49.8442 8.5046C50.4301 8.18651 51.0338 7.91261 51.6594 7.67403C53.4834 6.96274 55.4749 6.57837 57.5501 6.57837V0C56.5852 0 55.6291 0.061849 54.6906 0.176716H54.6818Z" fill="#5D50A2"/>
<path d="M67.4533 22.9952C67.4533 24.1483 67.2594 25.2528 66.8937 26.2822C66.3738 27.771 65.5147 29.0964 64.4044 30.1611C62.902 31.6147 60.9326 32.591 58.7517 32.8561H57.54V13.1387H58.7517C59.6725 13.2491 60.5493 13.4833 61.3776 13.8323C61.8975 14.0576 62.3953 14.3183 62.8668 14.6187C64.2546 15.5111 65.4045 16.7305 66.202 18.1707C66.4752 18.6611 66.7087 19.1736 66.8981 19.717C67.2242 20.6492 67.418 21.6477 67.4489 22.6859C67.4533 22.7919 67.4533 22.8936 67.4533 22.9952Z" fill="#5D50A2"/>
</svg>
