<svg width="134" height="32" viewBox="0 0 134 32" fill="none" xmlns="http://www.w3.org/2000/svg">
<g clip-path="url(#clip0_122_2496)">
<mask id="mask0_122_2496" style="mask-type:luminance" maskUnits="userSpaceOnUse" x="39" y="-26" width="94" height="53">
<path d="M132.899 -26H39.4668V26.664H132.899V-26Z" fill="white"/>
</mask>
<g mask="url(#mask0_122_2496)">
<path d="M52.7068 15.5524C52.7708 16.1044 52.8748 16.9524 53.5068 17.1524C53.8249 17.2527 54.1572 17.3013 54.4908 17.2964C54.5708 17.2964 54.6188 17.2964 54.6188 17.3684C54.6188 17.4404 54.4748 17.5044 54.2988 17.5044C53.9628 17.5044 52.3228 17.4564 51.7628 17.4164C51.4108 17.4164 51.3388 17.3364 51.3388 17.2644C51.3388 17.1924 51.3388 17.1684 51.4428 17.1524C51.5468 17.1364 51.5308 16.8804 51.4988 16.6084L50.7708 8.77641H50.7308L47.0268 16.6804C46.7148 17.3444 46.6668 17.4804 46.5308 17.4804C46.3948 17.4804 46.3468 17.3284 46.0588 16.7844C45.6668 16.0404 44.3548 13.4164 44.2828 13.2644C44.1468 12.9844 42.4428 9.34441 42.2748 8.92841H42.2188L41.6108 15.9764C41.6108 16.2244 41.6108 16.4964 41.6108 16.7764C41.6122 16.8881 41.652 16.9958 41.7233 17.0817C41.7946 17.1676 41.8933 17.2265 42.0028 17.2484C42.1913 17.296 42.3844 17.3228 42.5788 17.3284C42.6428 17.3284 42.6988 17.3284 42.6988 17.4004C42.6988 17.4724 42.6108 17.5364 42.4268 17.5364C41.8668 17.5364 41.1388 17.4884 41.0188 17.4884C40.8988 17.4884 40.1548 17.5364 39.7388 17.5364C39.5868 17.5364 39.4828 17.5364 39.4828 17.4004C39.4828 17.2644 39.5548 17.3284 39.6348 17.3284C39.7881 17.3311 39.9413 17.3149 40.0908 17.2804C40.5948 17.1844 40.6348 16.5924 40.6988 16.0164L41.7788 6.08841C41.7788 5.92841 41.8508 5.81641 41.9388 5.81641C42.0268 5.81641 42.0908 5.88041 42.1708 6.04841L46.8188 15.6004L51.2828 6.06441C51.3468 5.92841 51.4028 5.81641 51.5068 5.81641C51.6108 5.81641 51.6588 5.94441 51.6908 6.23241L52.7068 15.5524Z" fill="white"/>
<path d="M63.8588 12.4884C63.9308 12.4884 63.9308 12.4404 63.9228 12.3844L62.4748 8.2804C62.4028 8.0484 62.3228 8.0484 62.2508 8.2804L60.9148 12.4004C60.9148 12.4724 60.9148 12.5044 60.9548 12.5044L63.8588 12.4884ZM62.2588 6.4084C62.4348 5.9124 62.4988 5.81641 62.5868 5.81641C62.6748 5.81641 62.7388 5.89641 62.9228 6.36841C63.1068 6.84041 65.5628 13.2004 66.4828 15.5204C67.0348 16.8724 67.4748 17.1204 67.7948 17.2084C67.9907 17.274 68.1962 17.3065 68.4028 17.3044C68.4908 17.3044 68.5548 17.3044 68.5548 17.3924C68.5548 17.4804 68.4188 17.5124 68.2508 17.5124C68.0828 17.5124 66.9148 17.5124 65.8508 17.5124C65.5628 17.5124 65.3948 17.5124 65.3948 17.4084C65.3948 17.3044 65.3948 17.3204 65.4988 17.3044C65.6028 17.2884 65.6828 17.1364 65.5868 16.8964L64.1788 13.1604C64.1699 13.1316 64.1518 13.1065 64.1272 13.0892C64.1025 13.0718 64.0729 13.0631 64.0428 13.0644H60.7868C60.7521 13.0663 60.7189 13.0788 60.6917 13.1003C60.6645 13.1218 60.6446 13.1512 60.6348 13.1844L59.7308 15.8404C59.6041 16.1679 59.5312 16.5137 59.5148 16.8644C59.5148 17.1684 59.8348 17.3044 60.0908 17.3044H60.2668C60.3708 17.3044 60.4188 17.3044 60.4188 17.3924C60.4188 17.4804 60.3308 17.5124 60.1948 17.5124C59.8268 17.5124 59.1708 17.4644 59.0108 17.4644C58.8508 17.4644 58.0028 17.5124 57.2908 17.5124C57.0908 17.5124 57.0028 17.5124 57.0028 17.3924C57.0028 17.2724 57.0668 17.3044 57.1388 17.3044H57.5788C58.2748 17.2084 58.5788 16.6324 58.8588 15.8724L62.2588 6.4084Z" fill="white"/>
<path d="M75.2348 15.664C76.1148 13.624 78.1548 8.328 78.4828 7.232C78.5555 7.04753 78.6013 6.85354 78.6188 6.656C78.6232 6.58519 78.6076 6.51456 78.5736 6.45227C78.5396 6.38998 78.4887 6.33858 78.4268 6.304C78.2445 6.25416 78.0556 6.23257 77.8668 6.24C77.7708 6.24 77.6988 6.24 77.6988 6.152C77.6988 6.064 77.7868 6.032 78.0268 6.032C78.6348 6.032 79.3388 6.08 79.5228 6.08C79.7068 6.08 80.2668 6 80.6908 6C80.8508 6 80.9468 6 80.9468 6.104C80.9468 6.208 80.8828 6.208 80.7628 6.208C80.5077 6.20023 80.2555 6.26397 80.0348 6.392C79.8348 6.528 79.6108 6.792 79.2348 7.824C79.0668 8.248 78.3068 10.072 77.5308 11.936C76.6028 14.152 75.9308 15.792 75.5708 16.536C75.1468 17.448 75.0828 17.696 74.9308 17.696C74.7788 17.696 74.6748 17.48 74.3868 16.752L70.6668 7.472C70.3308 6.624 70.1068 6.456 69.5708 6.304C69.3824 6.25773 69.1887 6.23621 68.9948 6.24C68.9068 6.24 68.8748 6.24 68.8748 6.136C68.8748 6.032 69.0268 6.032 69.2668 6.032C69.9948 6.032 70.8668 6.08 71.0428 6.08C71.2188 6.08 71.8428 6.032 72.4588 6.032C72.7308 6.032 72.8668 6.032 72.8668 6.136C72.8668 6.24 72.8188 6.24 72.7148 6.24C72.5196 6.23282 72.3246 6.25989 72.1388 6.32C72.0778 6.34338 72.0257 6.38529 71.9898 6.43982C71.954 6.49436 71.9361 6.55877 71.9388 6.624C72.0273 7.0602 72.167 7.48445 72.3548 7.888L75.2348 15.664Z" fill="white"/>
<path d="M86.8508 11.7597C86.8494 11.7969 86.8594 11.8337 86.8794 11.8651C86.8994 11.8966 86.9285 11.9212 86.9628 11.9357C87.4736 12.1266 88.0181 12.211 88.5628 12.1837C88.9619 12.2058 89.3583 12.1053 89.6988 11.8957C90.028 11.6064 90.2838 11.243 90.4451 10.8355C90.6064 10.428 90.6687 9.98799 90.6268 9.55172C90.6268 7.65572 89.6268 6.51972 88.0028 6.51972C87.6618 6.51022 87.321 6.53974 86.9868 6.60772C86.9481 6.62001 86.9147 6.64471 86.8915 6.67798C86.8684 6.71125 86.8569 6.75124 86.8588 6.79172L86.8508 11.7597ZM85.6428 10.4397C85.6428 8.03972 85.6428 7.63972 85.6428 7.15172C85.6428 6.66372 85.4908 6.39172 84.9868 6.28772C84.8165 6.27123 84.645 6.27123 84.4748 6.28772C84.4108 6.28772 84.3468 6.28772 84.3468 6.19172C84.3468 6.09572 84.4268 6.07172 84.5948 6.07172C85.2748 6.07172 86.2348 6.11972 86.3068 6.11972C86.3788 6.11972 87.5948 5.99972 88.0668 5.99972C89.0412 5.92598 90.0145 6.1581 90.8508 6.66372C91.1688 6.90919 91.4279 7.22262 91.6093 7.58111C91.7906 7.9396 91.8895 8.33409 91.8988 8.73572C91.8988 9.85572 91.4268 10.9837 90.0588 12.2397C91.3068 13.8397 92.3388 15.1837 93.2188 16.1277C93.6921 16.6967 94.348 17.084 95.0748 17.2237C95.2703 17.2568 95.4684 17.2729 95.6668 17.2717C95.7388 17.2717 95.8028 17.2717 95.8028 17.3597C95.8028 17.4477 95.7068 17.4797 95.4348 17.4797H94.3548C93.8052 17.5291 93.2526 17.4297 92.7548 17.1917C91.9257 16.5972 91.2172 15.8506 90.6668 14.9917C90.0268 14.1917 89.3148 13.1357 89.0108 12.7437C88.9868 12.7143 88.9561 12.6909 88.9214 12.6756C88.8866 12.6603 88.8487 12.6535 88.8108 12.6557H86.9468C86.8668 12.6557 86.8348 12.7037 86.8348 12.7757V13.1437C86.8348 14.5997 86.8348 15.7997 86.9148 16.4397C86.9628 16.8797 87.0508 17.2397 87.5068 17.2397C87.7321 17.2733 87.9591 17.2946 88.1868 17.3037C88.2828 17.3037 88.3148 17.3037 88.3148 17.3917C88.3148 17.4797 88.2348 17.5117 88.0668 17.5117C87.2668 17.5117 86.2748 17.4637 86.2028 17.4637C86.1308 17.4637 85.2268 17.5117 84.7708 17.5117C84.6028 17.5117 84.5308 17.5117 84.5308 17.3917C84.5308 17.2717 84.5308 17.3037 84.6508 17.3037C84.8046 17.2981 84.9574 17.2767 85.1068 17.2397C85.4108 17.1757 85.4828 16.8477 85.5468 16.4397C85.6268 15.7997 85.6268 14.5997 85.6268 13.1437L85.6428 10.4397Z" fill="white"/>
<path d="M100.739 11.7603C100.738 11.7965 100.747 11.8322 100.765 11.8633C100.784 11.8945 100.811 11.9198 100.843 11.9363C101.354 12.1272 101.898 12.2116 102.443 12.1843C102.844 12.2055 103.243 12.1052 103.587 11.8963C103.914 11.6058 104.169 11.2422 104.33 10.835C104.492 10.4278 104.555 9.98844 104.515 9.55233C104.515 7.65633 103.507 6.52033 101.883 6.52033C101.542 6.51083 101.201 6.54035 100.867 6.60833C100.829 6.62085 100.796 6.64588 100.775 6.67931C100.753 6.71274 100.743 6.7526 100.747 6.79233L100.739 11.7603ZM99.5228 10.4403C99.5228 8.04033 99.5228 7.64033 99.5228 7.15233C99.5228 6.66433 99.3708 6.39233 98.8668 6.28833C98.6965 6.27184 98.525 6.27184 98.3548 6.28833C98.2908 6.28833 98.2348 6.28833 98.2348 6.19233C98.2348 6.09633 98.3068 6.07233 98.4748 6.07233C99.1548 6.07233 100.075 6.12033 100.195 6.12033C100.315 6.12033 101.483 6.00033 101.955 6.00033C102.927 5.92774 103.897 6.15984 104.731 6.66433C105.05 6.90861 105.31 7.22179 105.492 7.58054C105.673 7.9393 105.771 8.33437 105.779 8.73633C105.779 9.85633 105.307 10.9843 103.939 12.2403C105.187 13.8403 106.219 15.1843 107.139 16.1283C107.612 16.6973 108.268 17.0846 108.995 17.2243C109.19 17.2574 109.388 17.2735 109.587 17.2723C109.659 17.2723 109.723 17.2723 109.723 17.3603C109.723 17.4483 109.635 17.4803 109.355 17.4803H108.267C107.717 17.529 107.165 17.4295 106.667 17.1923C105.849 16.5845 105.154 15.8271 104.619 14.9603C103.979 14.1603 103.267 13.1043 102.963 12.7123C102.94 12.683 102.911 12.6596 102.878 12.6443C102.844 12.6289 102.808 12.6221 102.771 12.6243H100.899C100.827 12.6243 100.795 12.6723 100.795 12.7443V13.1123C100.795 14.5683 100.795 15.7683 100.867 16.4083C100.915 16.8483 101.003 17.2083 101.459 17.2083C101.687 17.2419 101.916 17.2633 102.147 17.2723C102.235 17.2723 102.267 17.2723 102.267 17.3603C102.267 17.4483 102.187 17.4803 102.027 17.4803C101.227 17.4803 100.227 17.4323 100.155 17.4323C100.083 17.4323 99.1788 17.4803 98.7308 17.4803C98.5628 17.4803 98.4828 17.4803 98.4828 17.3603C98.4828 17.2403 98.4828 17.2723 98.6028 17.2723C98.7566 17.2667 98.9094 17.2453 99.0588 17.2083C99.3628 17.1443 99.4428 16.8163 99.4988 16.4083C99.5788 15.7683 99.5788 14.5683 99.5788 13.1123L99.5228 10.4403Z" fill="white"/>
<path d="M114.667 13.112C114.667 14.568 114.667 15.768 114.739 16.408C114.787 16.848 114.875 17.208 115.331 17.208C115.559 17.2416 115.788 17.2629 116.019 17.272C116.107 17.272 116.139 17.272 116.139 17.36C116.139 17.448 116.059 17.48 115.891 17.48C115.091 17.48 114.099 17.48 114.027 17.48C113.955 17.48 112.995 17.48 112.539 17.48C112.371 17.48 112.291 17.48 112.291 17.36C112.291 17.24 112.291 17.272 112.419 17.272C112.573 17.2664 112.725 17.2449 112.875 17.208C113.179 17.144 113.251 16.816 113.315 16.408C113.387 15.768 113.387 14.568 113.387 13.112V10.44C113.387 8.04 113.387 7.64 113.387 7.152C113.387 6.664 113.211 6.352 112.875 6.304C112.72 6.26527 112.562 6.24645 112.403 6.248C112.339 6.248 112.283 6.248 112.283 6.152C112.283 6.056 112.355 6.032 112.523 6.032C113.027 6.032 113.979 6.08 114.059 6.08C114.139 6.08 115.075 6 115.531 6C115.699 6 115.771 6 115.771 6.12C115.771 6.24 115.715 6.216 115.651 6.216C115.526 6.20375 115.4 6.20375 115.275 6.216C114.859 6.296 114.739 6.552 114.707 7.08C114.675 7.608 114.707 7.992 114.707 10.368L114.667 13.112Z" fill="white"/>
<path d="M126.707 17.1522C123.979 17.1522 121.851 14.8722 121.851 11.3282C121.851 8.00817 123.747 6.33617 126.283 6.33617C128.683 6.33617 130.899 8.29617 130.899 11.9362C130.899 16.3602 128.075 17.1522 126.707 17.1522ZM132.787 18.2242L129.667 16.6242C130.494 16.0539 131.172 15.2919 131.641 14.4031C132.111 13.5144 132.358 12.5253 132.363 11.5202C132.363 8.00017 129.811 5.82417 126.387 5.82417C125.6 5.81021 124.819 5.95413 124.09 6.24739C123.36 6.54066 122.697 6.97732 122.139 7.53154C121.581 8.08575 121.14 8.74626 120.841 9.47396C120.543 10.2017 120.394 10.9818 120.403 11.7682C120.403 14.4962 122.139 17.7362 126.347 17.7362C127.174 17.7306 127.991 17.5536 128.747 17.2162L130.667 18.2802H132.899C132.859 18.2664 132.822 18.2476 132.787 18.2242Z" fill="white"/>
</g>
<mask id="mask1_122_2496" style="mask-type:luminance" maskUnits="userSpaceOnUse" x="39" y="-26" width="94" height="53">
<path d="M132.899 -26H39.4668V26.664H132.899V-26Z" fill="white"/>
</mask>
<g mask="url(#mask1_122_2496)">
<path d="M41.7548 26.1354C41.551 25.955 41.3899 25.7314 41.2834 25.4809C41.1768 25.2305 41.1274 24.9594 41.1388 24.6874C41.1477 24.1813 41.3545 23.6989 41.7148 23.3434C41.9232 23.1549 42.1671 23.0098 42.4321 22.9164C42.6972 22.823 42.9782 22.7832 43.2588 22.7994C43.5051 22.8 43.7511 22.8187 43.9948 22.8554C44.1658 22.8936 44.3398 22.9177 44.5148 22.9274C44.5628 22.9274 44.5788 22.9274 44.5788 22.9834C44.5788 23.0394 44.5788 23.0794 44.5788 23.2554C44.5788 23.4314 44.5788 23.6954 44.5788 23.7594C44.5788 23.8234 44.5788 23.8634 44.5148 23.8634C44.4508 23.8634 44.5148 23.8634 44.5148 23.7594C44.5087 23.6689 44.4834 23.5808 44.4407 23.5008C44.3979 23.4208 44.3386 23.3508 44.2668 23.2954C43.9709 23.1006 43.6206 23.0053 43.2668 23.0234C42.8553 22.9861 42.4454 23.1094 42.1228 23.3674C41.9575 23.5342 41.8309 23.7354 41.7521 23.9566C41.6733 24.1778 41.6442 24.4137 41.6668 24.6474C41.6678 24.8824 41.7153 25.1148 41.8064 25.3314C41.8975 25.548 42.0305 25.7444 42.1978 25.9094C42.365 26.0744 42.5632 26.2048 42.781 26.293C42.9988 26.3812 43.2318 26.4255 43.4668 26.4234C43.6088 26.4401 43.7528 26.4281 43.8902 26.3883C44.0276 26.3485 44.1556 26.2815 44.2668 26.1914C44.3668 26.0745 44.4356 25.9341 44.4668 25.7834C44.4668 25.7274 44.4668 25.7114 44.5148 25.7114C44.5628 25.7114 44.5628 25.7114 44.5628 25.7834C44.5336 25.9934 44.4936 26.2016 44.4428 26.4074C44.4428 26.5034 44.4428 26.5194 44.3148 26.5514C44.0389 26.629 43.7533 26.6667 43.4668 26.6634C42.8628 26.7046 42.2656 26.516 41.7948 26.1354" fill="white"/>
<path d="M47.6428 26.4635C48.0988 26.4635 49.0188 26.2155 49.0188 24.7995C49.0456 24.5778 49.0258 24.353 48.9605 24.1395C48.8953 23.9259 48.786 23.7284 48.6399 23.5596C48.4937 23.3908 48.3138 23.2545 48.1118 23.1594C47.9097 23.0643 47.69 23.0126 47.4668 23.0075C47.2606 22.9985 47.0549 23.035 46.8644 23.1143C46.6738 23.1936 46.503 23.3139 46.3641 23.4665C46.2252 23.6192 46.1215 23.8005 46.0605 23.9977C45.9994 24.1949 45.9825 24.403 46.0108 24.6075C45.9828 24.8365 46.0031 25.0688 46.0701 25.2896C46.1372 25.5103 46.2497 25.7146 46.4003 25.8893C46.551 26.0641 46.7365 26.2054 46.9449 26.3043C47.1534 26.4032 47.3802 26.4574 47.6108 26.4635M47.5308 22.7995C47.7864 22.7748 48.0444 22.8042 48.2879 22.8856C48.5315 22.9671 48.7552 23.0988 48.9446 23.2723C49.1339 23.4458 49.2846 23.6572 49.387 23.8927C49.4894 24.1283 49.5411 24.3827 49.5388 24.6395C49.5469 24.9116 49.4985 25.1824 49.3966 25.4349C49.2947 25.6873 49.1416 25.9159 48.9469 26.1061C48.7521 26.2963 48.52 26.4441 48.2653 26.54C48.0105 26.636 47.7386 26.678 47.4668 26.6635C47.2075 26.6768 46.9482 26.6364 46.7053 26.5449C46.4623 26.4535 46.2407 26.3129 46.0545 26.132C45.8683 25.951 45.7215 25.7336 45.6231 25.4933C45.5247 25.253 45.477 24.9951 45.4828 24.7355C45.4835 24.4719 45.5378 24.2112 45.6424 23.9692C45.747 23.7273 45.8998 23.5091 46.0913 23.328C46.2829 23.1469 46.5093 23.0067 46.7568 22.9158C47.0042 22.825 47.2676 22.7854 47.5308 22.7995Z" fill="white"/>
<path d="M51.3787 24.7268C51.3787 24.7268 51.3787 24.7668 51.3787 24.7908C51.5601 24.8458 51.7493 24.8701 51.9387 24.8628C52.0701 24.8723 52.2012 24.8416 52.3147 24.7748C52.4231 24.6839 52.5074 24.5678 52.5604 24.4367C52.6134 24.3056 52.6334 24.1634 52.6187 24.0228C52.6366 23.9001 52.627 23.775 52.5908 23.6564C52.5546 23.5378 52.4926 23.4288 52.4092 23.337C52.3259 23.2452 52.2233 23.1731 52.1087 23.1256C51.9942 23.0782 51.8705 23.0568 51.7467 23.0628C51.6244 23.0503 51.5011 23.0503 51.3787 23.0628C51.3738 23.0713 51.3712 23.0809 51.3712 23.0908C51.3712 23.1006 51.3738 23.1103 51.3787 23.1188V24.7268ZM50.9467 24.3108C50.9467 23.5108 50.9467 23.4068 50.9467 23.2548C50.9467 23.1028 50.9067 23.0068 50.7387 22.9828H50.5707C50.5634 22.987 50.5551 22.9892 50.5467 22.9892C50.5383 22.9892 50.53 22.987 50.5227 22.9828C50.5227 22.9828 50.5227 22.9348 50.6107 22.9348H51.2107H51.8427C52.1718 22.9116 52.5004 22.9868 52.7867 23.1508C52.8926 23.2286 52.9794 23.3296 53.0404 23.4461C53.1014 23.5625 53.135 23.6914 53.1387 23.8228C53.1277 24.0448 53.0656 24.2614 52.9574 24.4556C52.8492 24.6498 52.6977 24.8165 52.5147 24.9428C52.9307 25.4548 53.3147 25.9028 53.5787 26.2068C53.7186 26.3843 53.9171 26.5062 54.1387 26.5508H54.3227C54.3288 26.5473 54.3357 26.5454 54.3427 26.5454C54.3497 26.5454 54.3566 26.5473 54.3627 26.5508C54.3627 26.5508 54.3627 26.5508 54.2427 26.5508H53.9307C53.7441 26.5658 53.5569 26.5327 53.3867 26.4548C53.112 26.2601 52.876 26.0159 52.6907 25.7348C52.4827 25.4628 52.2587 25.1508 52.1467 25.0148C52.0347 24.8788 52.1467 25.0148 52.0747 25.0148H51.4347V25.1988C51.4347 25.6708 51.4347 26.0468 51.4347 26.2468C51.4347 26.4468 51.4827 26.4868 51.6347 26.5108H51.8667C51.8667 26.5108 51.8667 26.5108 51.7787 26.5108H51.1627H50.6587C50.6027 26.5108 50.5787 26.5108 50.5787 26.5108H50.7307C50.8347 26.5108 50.8427 26.3908 50.8667 26.2468C50.8876 25.8951 50.8876 25.5425 50.8667 25.1908L50.9467 24.3108Z" fill="white"/>
<path d="M55.1628 24.3111C55.1628 23.5111 55.1628 23.4071 55.1628 23.2551C55.1628 23.1031 55.1228 23.0071 54.9548 22.9831H54.7788C54.7725 22.986 54.7657 22.9875 54.7588 22.9875C54.7519 22.9875 54.7451 22.986 54.7388 22.9831C54.7388 22.9831 54.7388 22.9351 54.8188 22.9351H55.4108H56.1308C56.4776 22.8985 56.825 22.999 57.0988 23.2151C57.1802 23.2906 57.245 23.3823 57.2891 23.4842C57.3332 23.5861 57.3555 23.6961 57.3548 23.8071C57.3535 23.9726 57.3176 24.136 57.2492 24.2868C57.1809 24.4376 57.0817 24.5723 56.9581 24.6824C56.8345 24.7925 56.6891 24.8754 56.5315 24.9258C56.3738 24.9762 56.2073 24.993 56.0428 24.9751H55.8988C55.8988 24.9751 55.8428 24.9751 55.8428 24.9271C55.8428 24.8791 55.8428 24.8791 55.9788 24.8791C56.0934 24.8912 56.2092 24.8798 56.3193 24.8457C56.4293 24.8115 56.5313 24.7553 56.6189 24.6804C56.7065 24.6056 56.7779 24.5136 56.8288 24.4103C56.8796 24.3069 56.9089 24.1942 56.9148 24.0791C56.9209 23.9419 56.8985 23.805 56.8489 23.6769C56.7993 23.5488 56.7237 23.4324 56.6268 23.3351C56.5373 23.249 56.4301 23.1836 56.3126 23.1435C56.1951 23.1035 56.0702 23.0897 55.9468 23.1031C55.8509 23.0974 55.7547 23.0974 55.6588 23.1031C55.6588 23.1031 55.6188 23.1031 55.6188 23.1911V25.1991C55.6188 25.6711 55.6188 26.0551 55.6188 26.2551C55.6188 26.4551 55.6668 26.4951 55.8188 26.5191H56.0508C56.0569 26.5156 56.0638 26.5138 56.0708 26.5138C56.0778 26.5138 56.0847 26.5156 56.0908 26.5191C56.0908 26.5191 56.0908 26.5191 56.0108 26.5191H55.3708H54.8748C54.8188 26.5191 54.7868 26.5191 54.7868 26.5191C54.7941 26.5149 54.8024 26.5127 54.8108 26.5127C54.8192 26.5127 54.8275 26.5149 54.8348 26.5191H54.9868C55.0828 26.5191 55.0988 26.3991 55.1228 26.2551C55.1468 26.1111 55.1228 25.6711 55.1228 25.1991L55.1628 24.3111Z" fill="white"/>
<path d="M60.4428 26.4635C60.8988 26.4635 61.8108 26.2155 61.8108 24.7995C61.8376 24.5785 61.818 24.3543 61.7532 24.1413C61.6884 23.9283 61.5799 23.7312 61.4346 23.5625C61.2892 23.3938 61.1103 23.2574 60.9092 23.1618C60.7081 23.0662 60.4893 23.0137 60.2668 23.0075C60.0599 22.9973 59.8533 23.0328 59.6618 23.1116C59.4702 23.1904 59.2984 23.3105 59.1586 23.4633C59.0188 23.6161 58.9144 23.7979 58.8529 23.9957C58.7914 24.1934 58.7743 24.4023 58.8028 24.6075C58.7761 24.8363 58.7972 25.0681 58.8647 25.2884C58.9323 25.5086 59.0448 25.7124 59.1952 25.8868C59.3456 26.0613 59.5306 26.2026 59.7385 26.3019C59.9464 26.4012 60.1726 26.4562 60.4028 26.4635M60.3228 22.7995C60.5784 22.7748 60.8364 22.8042 61.0799 22.8856C61.3235 22.9671 61.5472 23.0988 61.7365 23.2723C61.9259 23.4458 62.0766 23.6572 62.179 23.8927C62.2814 24.1283 62.3331 24.3827 62.3308 24.6395C62.3401 24.9112 62.2927 25.1819 62.1917 25.4343C62.0907 25.6867 61.9383 25.9154 61.7442 26.1057C61.5501 26.2961 61.3185 26.444 61.0642 26.54C60.8098 26.636 60.5383 26.6781 60.2668 26.6635C60.0072 26.678 59.7474 26.6385 59.5039 26.5474C59.2604 26.4564 59.0384 26.3159 58.8519 26.1347C58.6654 25.9535 58.5186 25.7356 58.4206 25.4948C58.3227 25.2539 58.2757 24.9954 58.2828 24.7355C58.2824 24.4723 58.3357 24.2117 58.4394 23.9698C58.5432 23.7279 58.6952 23.5096 58.8861 23.3284C59.077 23.1472 59.3029 23.0069 59.5499 22.9159C59.797 22.825 60.0599 22.7854 60.3228 22.7995Z" fill="white"/>
<path d="M64.1787 24.7268C64.1743 24.7369 64.172 24.7478 64.172 24.7588C64.172 24.7698 64.1743 24.7807 64.1787 24.7908C64.3602 24.845 64.5494 24.8694 64.7387 24.8628C64.8701 24.8723 65.0012 24.8416 65.1147 24.7748C65.2231 24.6839 65.3075 24.5678 65.3605 24.4367C65.4135 24.3056 65.4335 24.1634 65.4187 24.0228C65.4366 23.9001 65.4271 23.775 65.3908 23.6564C65.3546 23.5378 65.2926 23.4288 65.2093 23.337C65.1259 23.2452 65.0233 23.1731 64.9087 23.1256C64.7942 23.0782 64.6706 23.0568 64.5467 23.0628C64.4271 23.0497 64.3064 23.0497 64.1867 23.0628C64.1748 23.0663 64.1644 23.0738 64.1571 23.0839C64.1499 23.0941 64.1462 23.1063 64.1467 23.1188L64.1787 24.7268ZM63.7387 24.3108C63.7387 23.5108 63.7387 23.4068 63.7387 23.2548C63.7387 23.1028 63.6987 23.0068 63.5307 22.9828H63.3627C63.3564 22.9857 63.3496 22.9871 63.3427 22.9871C63.3358 22.9871 63.329 22.9857 63.3227 22.9828C63.3227 22.9828 63.3227 22.9348 63.4027 22.9348H64.0027H64.6347C64.9638 22.9116 65.2924 22.9868 65.5787 23.1508C65.6847 23.2286 65.7714 23.3296 65.8324 23.4461C65.8934 23.5625 65.927 23.6914 65.9307 23.8228C65.9197 24.0448 65.8577 24.2614 65.7494 24.4556C65.6412 24.6498 65.4897 24.8165 65.3067 24.9428C65.7227 25.4548 66.1067 25.9028 66.3707 26.2068C66.5136 26.3848 66.7148 26.5067 66.9387 26.5508H67.1147C67.122 26.5466 67.1303 26.5443 67.1387 26.5443C67.1471 26.5443 67.1554 26.5466 67.1627 26.5508C67.1627 26.5508 67.1627 26.5508 67.0427 26.5508H66.7227C66.5362 26.5658 66.3489 26.5327 66.1787 26.4548C65.9069 26.2593 65.6736 26.0152 65.4907 25.7348C65.2747 25.4628 65.0507 25.1508 64.9387 25.0148C64.929 25.0092 64.918 25.0062 64.9067 25.0062C64.8955 25.0062 64.8845 25.0092 64.8747 25.0148H64.2267V25.1988C64.2267 25.6708 64.2267 26.0468 64.2267 26.2468C64.2267 26.4468 64.2747 26.4868 64.4347 26.5108H64.6587H64.6987C64.6987 26.5108 64.6987 26.5108 64.6187 26.5108H63.9947H63.4907C63.4427 26.5108 63.4107 26.5108 63.4107 26.5108H63.4507H63.6107C63.7067 26.5108 63.7147 26.3908 63.7387 26.2468C63.7596 25.8951 63.7596 25.5425 63.7387 25.1908V24.3108Z" fill="white"/>
<path d="M69.3228 25.0308L68.8268 23.6868C68.8268 23.6068 68.7628 23.6068 68.7388 23.6868L68.2668 24.9988L69.3228 25.0308ZM68.7548 22.9908C68.8188 22.8308 68.8428 22.7988 68.8828 22.7988C68.9228 22.7988 68.9468 22.8708 69.0028 22.9748C69.0588 23.0788 69.9068 25.2068 70.2188 25.9508C70.4028 26.3908 70.5388 26.4548 70.6508 26.4868C70.7171 26.4967 70.7845 26.4967 70.8508 26.4868H70.9148C70.9148 26.4868 70.8588 26.4868 70.8028 26.4868C70.7468 26.4868 70.3468 26.4868 70.0028 26.4868C69.9068 26.4868 69.8268 26.4868 69.8268 26.4868C69.8394 26.4817 69.8509 26.474 69.8603 26.4642C69.8698 26.4543 69.877 26.4426 69.8815 26.4297C69.8861 26.4168 69.8878 26.4031 69.8866 26.3895C69.8855 26.3759 69.8814 26.3627 69.8748 26.3508L69.4188 25.2308C69.4188 25.2308 69.4188 25.2308 69.3708 25.2308H68.2668C68.2595 25.2266 68.2512 25.2244 68.2428 25.2244C68.2343 25.2244 68.2261 25.2266 68.2188 25.2308L67.9308 26.0308C67.8851 26.1346 67.858 26.2457 67.8508 26.3588C67.8508 26.4548 67.9388 26.4948 68.0268 26.4948H68.0748H68.1228C68.1228 26.4948 68.1228 26.4948 68.0508 26.4948H67.5948H67.0828C67.0188 26.4948 66.9788 26.4948 66.9788 26.4948C66.9861 26.4906 66.9943 26.4884 67.0028 26.4884C67.0112 26.4884 67.0195 26.4906 67.0268 26.4948H67.1788C67.4108 26.4948 67.5068 26.2948 67.6028 26.0468L68.7548 22.9908Z" fill="white"/>
<path d="M72.6668 25.1995C72.6668 25.6715 72.6668 26.0555 72.6668 26.2555C72.6668 26.4555 72.6668 26.4955 72.8588 26.5195H73.0908C73.0908 26.5195 73.0908 26.5195 73.0108 26.5195H72.3868H71.8588C71.8028 26.5195 71.7788 26.5195 71.7788 26.5195H71.8188H71.9708C72.0748 26.5195 72.0988 26.3915 72.1228 26.2475C72.1468 26.1035 72.1228 25.6635 72.1228 25.1915V23.1195H71.4668C71.1468 23.1195 71.0268 23.1595 70.9548 23.2715C70.9229 23.3221 70.8961 23.3756 70.8748 23.4315C70.8748 23.4715 70.8748 23.4795 70.8188 23.4795C70.8188 23.4235 70.9228 22.9835 70.9308 22.9435C70.9388 22.9035 70.9308 22.8555 70.9788 22.8555C71.052 22.8795 71.1269 22.8982 71.2028 22.9115H71.6028H73.5148C73.6374 22.9182 73.7602 22.9182 73.8828 22.9115H74.0268C74.0268 22.9115 74.0268 22.9115 74.0268 22.9675C74.0268 23.1195 74.0268 23.4715 74.0268 23.5275C74.0268 23.5835 74.0268 23.5915 73.9868 23.5915C73.9468 23.5915 73.9868 23.5915 73.9388 23.5035V23.4555C73.9388 23.3035 73.8108 23.1915 73.3228 23.1835H72.6668V25.1995Z" fill="white"/>
<path d="M75.4668 24.3115C75.4668 23.5115 75.4668 23.4075 75.4668 23.2555C75.4668 23.1035 75.4668 23.0075 75.2588 22.9835H75.0908C75.0835 22.9878 75.0752 22.99 75.0668 22.99C75.0584 22.99 75.0501 22.9878 75.0428 22.9835C75.0428 22.9835 75.0428 22.9355 75.1308 22.9355H75.7148H76.9228H77.1548H77.2268C77.2268 22.9355 77.2268 22.9355 77.2268 22.9835C77.2223 23.0608 77.2223 23.1383 77.2268 23.2155C77.2268 23.2635 77.2268 23.4795 77.2268 23.5355C77.2268 23.5915 77.2268 23.5915 77.1788 23.5915C77.1308 23.5915 77.1788 23.5915 77.1788 23.5275C77.1885 23.4693 77.1885 23.4098 77.1788 23.3515C77.1788 23.2715 77.0908 23.2395 76.8108 23.2075C76.7228 23.2075 76.1388 23.2075 76.0828 23.2075C76.0268 23.2075 76.0828 23.2075 76.0828 23.2635V24.4795V24.5355C76.0828 24.5355 76.8108 24.5355 76.9308 24.5355C77.0182 24.542 77.1054 24.5195 77.1788 24.4715L77.0668 24.3995C77.0467 24.4891 77.0333 24.58 77.0268 24.6715C77.0212 24.7755 77.0212 24.8796 77.0268 24.9835C77.0268 24.9835 77.0268 25.0795 76.9788 25.0795C76.9308 25.0795 76.9788 25.0795 76.9788 25.0315C76.9893 24.9787 76.9893 24.9244 76.9788 24.8715C76.9788 24.7995 76.9148 24.7435 76.7148 24.7195C76.5148 24.6955 76.0348 24.7195 75.9148 24.7195V24.7595V25.1995C75.9148 25.3675 75.9148 25.9355 75.9148 25.9995C75.9148 26.3275 76.0188 26.3915 76.5228 26.3915C76.6922 26.3994 76.8619 26.3832 77.0268 26.3435C77.0902 26.3122 77.1431 26.2629 77.1786 26.2017C77.2142 26.1405 77.231 26.0702 77.2268 25.9995C77.2268 25.9435 77.2268 25.9276 77.2828 25.9276C77.3388 25.9276 77.2828 25.9275 77.2828 25.9995C77.2698 26.1584 77.2457 26.3161 77.2108 26.4715C77.2108 26.5995 77.1228 26.5995 76.9308 26.5995H76.0508H75.4668H75.1708C75.1148 26.5995 75.0908 26.5995 75.0908 26.5995H75.2428C75.3468 26.5995 75.3548 26.4795 75.3788 26.3355C75.4323 25.9591 75.4617 25.5797 75.4668 25.1995V24.3115Z" fill="white"/>
<path d="M83.3868 24.3111C83.3868 23.5111 83.3868 23.4071 83.3868 23.2551C83.3868 23.1031 83.3468 23.0071 83.1788 22.9831H83.0108C83.0108 22.9831 83.0108 22.9351 83.0908 22.9351H83.6748H84.4028C84.7496 22.8985 85.097 22.999 85.3708 23.2151C85.4508 23.2913 85.5141 23.3833 85.5568 23.4852C85.5994 23.587 85.6206 23.6967 85.6188 23.8071C85.6128 23.9728 85.5718 24.1353 85.4986 24.2841C85.4253 24.4328 85.3214 24.5643 85.1938 24.6701C85.0661 24.7759 84.9175 24.8534 84.7578 24.8977C84.598 24.942 84.4307 24.952 84.2668 24.9271H84.1228C84.1228 24.9271 84.0668 24.9271 84.0668 24.8791C84.0668 24.8311 84.0668 24.8311 84.2028 24.8311C84.3174 24.8432 84.4332 24.8318 84.5433 24.7977C84.6533 24.7635 84.7553 24.7073 84.8429 24.6324C84.9304 24.5576 85.0019 24.4656 85.0527 24.3622C85.1036 24.2589 85.1329 24.1462 85.1388 24.0311C85.1449 23.8939 85.1225 23.757 85.0729 23.6289C85.0233 23.5008 84.9477 23.3844 84.8508 23.2871C84.7601 23.2004 84.6515 23.1346 84.5326 23.0946C84.4137 23.0545 84.2875 23.041 84.1628 23.0551C84.0695 23.0498 83.976 23.0498 83.8828 23.0551C83.8828 23.0551 83.8828 23.0551 83.8828 23.1431V25.1991C83.8828 25.6711 83.8828 26.0551 83.8828 26.2551C83.8828 26.4551 83.9308 26.4951 84.0828 26.5191H84.3068C84.3068 26.5191 84.3068 26.5191 84.2268 26.5191H83.5948H83.0908C83.0428 26.5191 83.0108 26.5191 83.0108 26.5191H83.1708C83.2668 26.5191 83.2748 26.3991 83.2988 26.2551C83.3197 25.9034 83.3197 25.5508 83.2988 25.1991L83.3868 24.3111Z" fill="white"/>
<path d="M87.4667 24.7268C87.4667 24.7268 87.4667 24.7668 87.4667 24.7908C87.6484 24.8444 87.8374 24.8687 88.0267 24.8628C88.1606 24.872 88.2942 24.8414 88.4107 24.7748C88.5191 24.6839 88.6035 24.5678 88.6565 24.4367C88.7095 24.3056 88.7295 24.1634 88.7147 24.0228C88.7311 23.9003 88.7206 23.7758 88.6838 23.6579C88.6471 23.5399 88.585 23.4315 88.5019 23.34C88.4189 23.2486 88.3169 23.1764 88.203 23.1285C88.0891 23.0806 87.9662 23.0582 87.8427 23.0628C87.7204 23.0503 87.5971 23.0503 87.4747 23.0628C87.4698 23.0713 87.4672 23.0809 87.4672 23.0908C87.4672 23.1006 87.4698 23.1103 87.4747 23.1188L87.4667 24.7268ZM87.0267 24.3108C87.0267 23.5108 87.0267 23.4068 87.0267 23.2548C87.0267 23.1028 87.0267 23.0068 86.8187 22.9828H86.6667C86.6605 22.9857 86.6536 22.9871 86.6467 22.9871C86.6398 22.9871 86.633 22.9857 86.6267 22.9828C86.6267 22.9828 86.6267 22.9348 86.7067 22.9348H87.3067H87.9467C88.2758 22.9116 88.6044 22.9868 88.8907 23.1508C88.9967 23.2286 89.0834 23.3296 89.1444 23.4461C89.2054 23.5625 89.239 23.6914 89.2427 23.8228C89.2317 24.0448 89.1697 24.2614 89.0614 24.4556C88.9532 24.6498 88.8017 24.8165 88.6187 24.9428C89.0347 25.4548 89.4187 25.9028 89.6827 26.2068C89.8217 26.3854 90.0206 26.5076 90.2427 26.5508H90.4187C90.426 26.5466 90.4343 26.5443 90.4427 26.5443C90.4512 26.5443 90.4594 26.5466 90.4667 26.5508C90.4667 26.5508 90.4667 26.5508 90.3467 26.5508H90.0347C89.8481 26.5669 89.6606 26.5338 89.4907 26.4548C89.2143 26.2621 88.9779 26.0176 88.7947 25.7348L88.2507 25.0148C88.2396 25.0092 88.2272 25.0062 88.2147 25.0062C88.2022 25.0062 88.1899 25.0092 88.1787 25.0148H87.5307V25.1988C87.5307 25.6708 87.5307 26.0468 87.5307 26.2468C87.5307 26.4468 87.5787 26.4868 87.7307 26.5108H87.9547C87.9547 26.5108 87.9547 26.5108 87.8747 26.5108H87.2507H86.7547C86.6987 26.5108 86.6747 26.5108 86.6747 26.5108H86.7147H86.8667C86.9627 26.5108 86.9787 26.3908 87.0027 26.2468C87.0267 26.1028 87.0027 25.6628 87.0027 25.1908L87.0267 24.3108Z" fill="white"/>
<path d="M92.8828 26.4635C93.3388 26.4635 94.2508 26.2155 94.2508 24.7995C94.2774 24.5811 94.2588 24.3595 94.1959 24.1486C94.133 23.9377 94.0273 23.7421 93.8854 23.5739C93.7435 23.4057 93.5685 23.2686 93.3712 23.1711C93.1739 23.0737 92.9586 23.018 92.7388 23.0075C92.5326 22.9985 92.3269 23.035 92.1364 23.1143C91.9458 23.1936 91.775 23.3139 91.6361 23.4665C91.4972 23.6192 91.3935 23.8005 91.3325 23.9977C91.2714 24.1949 91.2544 24.403 91.2828 24.6075C91.2548 24.8365 91.2751 25.0688 91.3421 25.2896C91.4092 25.5103 91.5217 25.7146 91.6723 25.8893C91.823 26.0641 92.0085 26.2054 92.2169 26.3043C92.4254 26.4032 92.6522 26.4574 92.8828 26.4635ZM92.7628 22.7995C93.0184 22.7748 93.2764 22.8042 93.5199 22.8856C93.7635 22.9671 93.9872 23.0988 94.1765 23.2723C94.3659 23.4458 94.5166 23.6572 94.619 23.8927C94.7214 24.1283 94.7731 24.3827 94.7708 24.6395C94.7764 24.9064 94.7275 25.1717 94.6269 25.419C94.5264 25.6663 94.3764 25.8904 94.1861 26.0777C93.9958 26.265 93.7693 26.4114 93.5204 26.508C93.2716 26.6046 93.0056 26.6494 92.7388 26.6395C92.4792 26.654 92.2194 26.6145 91.9759 26.5234C91.7324 26.4324 91.5104 26.2919 91.3239 26.1107C91.1374 25.9295 90.9906 25.7116 90.8927 25.4707C90.7947 25.2299 90.7477 24.9714 90.7548 24.7115C90.7578 24.4531 90.8125 24.1979 90.9157 23.961C91.0189 23.7241 91.1685 23.5103 91.3556 23.3321C91.5428 23.1539 91.7637 23.015 92.0054 22.9235C92.247 22.832 92.5046 22.7899 92.7628 22.7995Z" fill="white"/>
<path d="M96.1788 24.3115C96.1788 23.5115 96.1788 23.4075 96.1788 23.2555C96.1788 23.1035 96.1788 23.0075 95.9708 22.9835H95.7868C95.7805 22.9864 95.7737 22.9879 95.7668 22.9879C95.7599 22.9879 95.7531 22.9864 95.7468 22.9835C95.7468 22.9835 95.7468 22.9355 95.8268 22.9355H96.4028H97.7148C97.7919 22.943 97.8696 22.943 97.9468 22.9355H98.0188C98.0188 22.9355 98.0188 22.9355 98.0188 22.9835C98.0188 23.0315 98.0188 23.0795 98.0188 23.2155C98.0188 23.3515 98.0188 23.4795 98.0188 23.5355C98.0188 23.5915 98.0188 23.5915 97.9788 23.5915C97.9388 23.5915 97.9788 23.5915 97.9788 23.5355C97.9713 23.4723 97.9551 23.4104 97.9308 23.3515C97.8904 23.3003 97.8376 23.2602 97.7774 23.235C97.7173 23.2098 97.6516 23.2003 97.5868 23.2075H96.7868C96.7868 23.2075 96.7868 23.2075 96.7868 23.2635V24.5995V24.6475H97.7068C97.8268 24.6475 97.8988 24.6475 97.9468 24.5595C97.9948 24.4715 97.8668 24.3995 97.8668 24.3995C97.86 24.4901 97.86 24.581 97.8668 24.6715C97.8608 24.7808 97.8608 24.8903 97.8668 24.9995C97.8668 25.0475 97.8668 25.0955 97.8668 25.0955C97.8668 25.0955 97.8668 25.0955 97.8668 25.0475C97.8776 24.9894 97.8776 24.9297 97.8668 24.8715C97.8668 24.7995 97.7628 24.7355 97.6108 24.7195C97.4588 24.7035 96.8828 24.7195 96.8108 24.7195C96.7388 24.7195 96.8108 24.7195 96.8108 24.7675V25.1995C96.8108 25.6795 96.8108 26.0715 96.8108 26.2555C96.8108 26.4395 96.8108 26.4955 96.9948 26.5195H97.2188C97.2261 26.5153 97.2344 26.5131 97.2428 26.5131C97.2512 26.5131 97.2595 26.5153 97.2668 26.5195C97.2668 26.5195 97.2668 26.5195 97.1788 26.5195H96.5468H96.0428C95.9948 26.5195 95.9628 26.5195 95.9628 26.5195H96.1228C96.2188 26.5195 96.2348 26.3995 96.2508 26.2555C96.2717 25.9039 96.2717 25.5512 96.2508 25.1995L96.1788 24.3115Z" fill="white"/>
<path d="M99.6108 24.3115C99.6108 23.5115 99.6108 23.4075 99.6108 23.2555C99.6108 23.1035 99.6108 23.0075 99.4028 22.9835H99.2348C99.2348 22.9835 99.2348 22.9355 99.3148 22.9355H99.8988H101.067H101.299C101.299 22.9355 101.299 22.9355 101.363 22.9355C101.427 22.9355 101.363 22.9355 101.363 22.9835C101.363 23.0315 101.363 23.0795 101.363 23.2155C101.363 23.3515 101.363 23.4795 101.363 23.5355C101.363 23.5915 101.363 23.5915 101.363 23.5915C101.363 23.5915 101.363 23.5915 101.363 23.5275C101.372 23.4692 101.372 23.4099 101.363 23.3515C101.363 23.2715 101.275 23.2395 101.003 23.2075C100.915 23.2075 100.323 23.2075 100.267 23.2075C100.211 23.2075 100.267 23.2075 100.267 23.2635V24.4795V24.5355C100.267 24.5355 101.003 24.5355 101.115 24.5355C101.227 24.5355 101.315 24.5355 101.363 24.4715C101.411 24.4075 101.419 24.4075 101.435 24.4075C101.415 24.4971 101.401 24.588 101.395 24.6795C101.395 24.7755 101.395 24.9595 101.395 24.9915C101.395 25.0235 101.395 25.0875 101.347 25.0875C101.299 25.0875 101.347 25.0875 101.347 25.0395C101.357 24.9867 101.357 24.9324 101.347 24.8795C101.347 24.8075 101.283 24.7515 101.091 24.7275C100.899 24.7035 100.411 24.7275 100.291 24.7275V24.7675V25.9995C100.291 26.3275 100.395 26.3915 100.899 26.3915C101.071 26.3994 101.243 26.3832 101.411 26.3435C101.478 26.3149 101.535 26.267 101.575 26.2057C101.615 26.1444 101.636 26.0727 101.635 25.9995C101.635 25.9435 101.635 25.9276 101.691 25.9276C101.747 25.9276 101.691 25.9275 101.691 25.9995C101.691 26.0715 101.651 26.3675 101.627 26.4715C101.603 26.5755 101.539 26.5995 101.339 26.5995H100.459H99.8188H99.5228C99.4748 26.5995 99.4428 26.5995 99.4428 26.5995H99.6028C99.6988 26.5995 99.7068 26.4795 99.7308 26.3355C99.7517 25.9839 99.7517 25.6312 99.7308 25.2795L99.6108 24.3115Z" fill="white"/>
<path d="M102.707 26.5274C102.635 26.5274 102.635 26.4794 102.635 26.3434C102.635 26.2074 102.635 25.9034 102.635 25.8234C102.635 25.7434 102.635 25.7434 102.675 25.7434C102.715 25.7434 102.723 25.7434 102.723 25.7994C102.716 25.8606 102.716 25.9223 102.723 25.9834C102.783 26.1418 102.894 26.2754 103.039 26.3625C103.185 26.4496 103.355 26.4852 103.523 26.4634C104.027 26.4634 104.283 26.1834 104.283 25.8154C104.283 25.4474 104.099 25.2954 103.643 24.9594L103.467 24.7914C102.915 24.3754 102.739 24.0794 102.739 23.7354C102.739 23.1594 103.195 22.8154 103.859 22.8154C104.036 22.8173 104.213 22.8361 104.387 22.8714C104.445 22.8799 104.504 22.8799 104.563 22.8714C104.563 22.8714 104.619 22.8714 104.619 22.9114C104.61 23.082 104.61 23.2529 104.619 23.4234C104.619 23.5034 104.619 23.5354 104.579 23.5354C104.539 23.5354 104.579 23.5354 104.531 23.4714C104.515 23.3891 104.491 23.3087 104.459 23.2314C104.375 23.1444 104.272 23.0776 104.158 23.0361C104.045 22.9945 103.923 22.9792 103.803 22.9914C103.427 22.9914 103.123 23.1754 103.123 23.5194C103.123 23.8634 103.283 24.0074 103.779 24.3194L103.923 24.4154C104.539 24.8394 104.723 25.2154 104.723 25.5994C104.719 25.762 104.674 25.9209 104.591 26.0609C104.508 26.2009 104.391 26.3175 104.251 26.3994C104.004 26.5265 103.728 26.5872 103.451 26.5754C103.199 26.579 102.949 26.5328 102.715 26.4394" fill="white"/>
<path d="M106.075 26.5274C106.003 26.5274 105.995 26.4794 105.995 26.3434C105.985 26.1702 105.985 25.9966 105.995 25.8234C105.995 25.7754 105.995 25.7434 105.995 25.7434C105.995 25.7434 106.043 25.7434 106.043 25.7994C106.036 25.8606 106.036 25.9223 106.043 25.9834C106.103 26.1418 106.214 26.2754 106.359 26.3625C106.505 26.4496 106.675 26.4852 106.843 26.4634C107.347 26.4634 107.643 26.1834 107.643 25.8154C107.643 25.4474 107.451 25.2954 107.003 24.9594L106.771 24.7914C106.227 24.3754 106.051 24.0794 106.051 23.7354C106.051 23.1594 106.507 22.8154 107.171 22.8154C107.348 22.8178 107.525 22.8365 107.699 22.8714C107.757 22.8799 107.816 22.8799 107.875 22.8714C107.915 22.8714 107.931 22.8714 107.931 22.9114C107.922 23.082 107.922 23.2529 107.931 23.4234C107.931 23.5034 107.931 23.5354 107.931 23.5354C107.931 23.5354 107.931 23.5354 107.883 23.4714C107.868 23.3879 107.841 23.307 107.803 23.2314C107.803 23.1754 107.603 22.9914 107.147 22.9914C106.691 22.9914 106.475 23.1754 106.475 23.5194C106.475 23.8634 106.627 24.0074 107.131 24.3194L107.275 24.4154C107.891 24.8394 108.075 25.2154 108.075 25.5994C108.071 25.762 108.026 25.9209 107.943 26.0609C107.86 26.2009 107.743 26.3175 107.603 26.3994C107.356 26.5265 107.08 26.5872 106.803 26.5754C106.551 26.5799 106.301 26.5336 106.067 26.4394" fill="white"/>
<path d="M110.211 25.1994C110.211 25.6714 110.211 26.0554 110.211 26.2554C110.211 26.4554 110.211 26.4954 110.395 26.5194H110.627C110.627 26.5194 110.627 26.5194 110.547 26.5194H109.915H109.411C109.355 26.5194 109.331 26.5194 109.331 26.5194H109.483C109.587 26.5194 109.603 26.3994 109.619 26.2554C109.635 26.1114 109.619 25.6714 109.619 25.1994V24.3114C109.619 23.5114 109.619 23.4074 109.619 23.2554C109.619 23.1034 109.571 23.0154 109.459 22.9914C109.406 22.9842 109.352 22.9842 109.299 22.9914C109.299 22.9914 109.299 22.9434 109.379 22.9434H109.899H110.403C110.459 22.9434 110.483 22.9434 110.483 22.9914C110.477 22.9942 110.47 22.9957 110.463 22.9957C110.456 22.9957 110.449 22.9942 110.443 22.9914H110.315C110.179 22.9914 110.147 23.0874 110.139 23.2634C110.131 23.4394 110.139 23.5594 110.139 24.3194L110.211 25.1994Z" fill="white"/>
<path d="M113.811 26.4635C114.267 26.4635 115.179 26.2155 115.179 24.7995C115.205 24.5811 115.187 24.3595 115.124 24.1486C115.061 23.9377 114.955 23.7421 114.813 23.5739C114.672 23.4057 114.496 23.2686 114.299 23.1711C114.102 23.0737 113.887 23.018 113.667 23.0075C113.461 22.9985 113.255 23.035 113.064 23.1143C112.874 23.1936 112.703 23.3139 112.564 23.4665C112.425 23.6192 112.322 23.8005 112.26 23.9977C112.199 24.1949 112.182 24.403 112.211 24.6075C112.183 24.8365 112.203 25.0688 112.27 25.2896C112.337 25.5103 112.45 25.7146 112.6 25.8893C112.751 26.0641 112.936 26.2054 113.145 26.3043C113.353 26.4032 113.58 26.4574 113.811 26.4635ZM113.691 22.7995C113.946 22.7748 114.204 22.8042 114.448 22.8856C114.691 22.9671 114.915 23.0988 115.105 23.2723C115.294 23.4458 115.445 23.6572 115.547 23.8927C115.649 24.1283 115.701 24.3827 115.699 24.6395C115.704 24.9064 115.655 25.1717 115.555 25.419C115.454 25.6663 115.304 25.8904 115.114 26.0777C114.924 26.265 114.697 26.4114 114.448 26.508C114.2 26.6046 113.934 26.6494 113.667 26.6395C113.407 26.654 113.147 26.6145 112.904 26.5234C112.66 26.4324 112.438 26.2919 112.252 26.1107C112.065 25.9295 111.919 25.7116 111.821 25.4707C111.723 25.2299 111.676 24.9714 111.683 24.7115C111.686 24.4531 111.741 24.1979 111.844 23.961C111.947 23.7241 112.096 23.5103 112.284 23.3321C112.471 23.1539 112.692 23.015 112.933 22.9235C113.175 22.832 113.433 22.7899 113.691 22.7995Z" fill="white"/>
<path d="M117.323 25.9272C117.323 26.3352 117.379 26.4552 117.515 26.4872C117.6 26.4963 117.686 26.4963 117.771 26.4872H117.811C117.811 26.4872 117.811 26.4872 117.723 26.4872C117.435 26.4872 117.227 26.4872 117.187 26.4872H116.691C116.643 26.4872 116.611 26.4872 116.611 26.4872C116.68 26.4963 116.75 26.4963 116.819 26.4872C116.947 26.4872 116.963 26.3192 116.963 25.8792V23.0712C116.963 22.8712 116.963 22.8232 117.035 22.8232C117.107 22.8232 117.179 22.9192 117.227 22.9752L118.827 24.6472L120.027 25.9032L119.971 23.4472C119.971 23.1352 119.971 23.0232 119.779 22.9912C119.696 22.9848 119.613 22.9848 119.531 22.9912C119.531 22.9912 119.531 22.9912 119.531 22.9432C119.531 22.8952 119.531 22.9432 119.635 22.9432H120.163H120.595C120.643 22.9432 120.683 22.9432 120.683 22.9432C120.681 22.9567 120.674 22.9689 120.664 22.9778C120.653 22.9866 120.64 22.9914 120.627 22.9912H120.507C120.339 22.9912 120.331 23.1272 120.331 23.4152V26.2872C120.331 26.6152 120.331 26.6392 120.331 26.6392C120.331 26.6392 120.227 26.5992 119.947 26.3432C119.899 26.2952 119.147 25.5432 118.627 25.0152C118.107 24.4872 117.419 23.7912 117.267 23.5992L117.323 25.9272Z" fill="white"/>
<path d="M123.595 25.0308L123.091 23.6868C123.091 23.6068 123.035 23.6068 123.011 23.6868L122.531 25.0308H123.595ZM123.027 22.9908C123.091 22.8308 123.115 22.7988 123.147 22.7988C123.179 22.7988 123.219 22.8708 123.275 22.9748C123.331 23.0788 124.179 25.2068 124.491 25.9508C124.675 26.3908 124.811 26.4548 124.923 26.4868C124.989 26.4972 125.056 26.4972 125.123 26.4868H125.187C125.187 26.4868 125.131 26.4868 125.067 26.4868C125.003 26.4868 124.619 26.4868 124.267 26.4868C124.171 26.4868 124.091 26.4868 124.091 26.4868C124.103 26.4817 124.115 26.474 124.124 26.4642C124.134 26.4543 124.141 26.4426 124.146 26.4297C124.15 26.4168 124.152 26.4031 124.151 26.3895C124.149 26.3759 124.145 26.3627 124.139 26.3508L123.683 25.2308C123.683 25.2308 123.683 25.2308 123.635 25.2308H122.467C122.467 25.2308 122.427 25.2308 122.411 25.2308L122.123 26.0308C122.083 26.1361 122.059 26.2466 122.051 26.3588C122.051 26.4548 122.139 26.4948 122.227 26.4948H122.267C122.315 26.4948 122.323 26.4948 122.323 26.4948C122.323 26.4948 122.323 26.4948 122.251 26.4948H121.795H121.283C121.219 26.4948 121.179 26.4948 121.179 26.4948C121.186 26.4906 121.194 26.4884 121.203 26.4884C121.211 26.4884 121.219 26.4906 121.227 26.4948H121.379C121.611 26.4948 121.707 26.2948 121.803 26.0468L123.027 22.9908Z" fill="white"/>
<path d="M126.667 25.1994C126.667 25.9194 126.667 26.2154 126.771 26.3034C126.875 26.3914 127.051 26.4154 127.451 26.4154C127.715 26.4154 127.939 26.4154 128.059 26.2714C128.121 26.1894 128.163 26.0932 128.179 25.9914C128.179 25.9914 128.179 25.9274 128.235 25.9274C128.291 25.9274 128.235 25.9274 128.235 26.0074C128.224 26.1717 128.2 26.3349 128.163 26.4954C128.123 26.6074 128.107 26.6234 127.835 26.6234C127.563 26.6234 127.195 26.6234 126.955 26.6234H126.155H125.859C125.811 26.6234 125.779 26.6234 125.779 26.6234H125.931C126.035 26.6234 126.043 26.5114 126.067 26.3674C126.087 26.013 126.087 25.6577 126.067 25.3034V24.3114C126.067 23.5114 126.067 23.4074 126.067 23.2554C126.067 23.1034 126.027 23.0074 125.859 22.9834H125.691C125.684 22.9862 125.678 22.9877 125.671 22.9877C125.664 22.9877 125.657 22.9862 125.651 22.9834C125.651 22.9834 125.651 22.9434 125.731 22.9434H126.867C126.915 22.9434 126.947 22.9434 126.947 22.9834H126.779C126.627 22.9834 126.603 23.0874 126.587 23.2634C126.571 23.4394 126.587 23.5594 126.587 24.3194L126.667 25.1994Z" fill="white"/>
<path d="M129.203 26.5274C129.139 26.5274 129.131 26.4794 129.131 26.3434C129.131 26.2074 129.131 25.9034 129.131 25.8234C129.131 25.7434 129.131 25.7434 129.131 25.7434C129.131 25.7434 129.179 25.7434 129.179 25.7994C129.172 25.8606 129.172 25.9223 129.179 25.9834C129.239 26.1418 129.35 26.2754 129.495 26.3625C129.641 26.4496 129.811 26.4852 129.979 26.4634C130.475 26.4634 130.779 26.1834 130.779 25.8154C130.779 25.4474 130.587 25.2954 130.139 24.9594L129.907 24.7914C129.355 24.3754 129.179 24.0794 129.179 23.7354C129.179 23.1594 129.635 22.8154 130.307 22.8154C130.481 22.8177 130.656 22.8365 130.827 22.8714C130.888 22.8804 130.95 22.8804 131.011 22.8714C131.051 22.8714 131.059 22.8714 131.059 22.9114C131.05 23.082 131.05 23.2529 131.059 23.4234C131.059 23.5034 131.059 23.5354 131.059 23.5354C131.059 23.5354 131.059 23.5354 131.011 23.4714C131 23.3881 130.975 23.3072 130.939 23.2314C130.939 23.1754 130.739 22.9914 130.283 22.9914C129.827 22.9914 129.603 23.1754 129.603 23.5194C129.603 23.8634 129.763 24.0074 130.267 24.3194L130.411 24.4154C131.027 24.8394 131.211 25.2154 131.211 25.5994C131.209 25.7623 131.164 25.9218 131.081 26.0621C130.998 26.2024 130.88 26.3187 130.739 26.3994C130.492 26.5265 130.216 26.5872 129.939 26.5754C129.687 26.579 129.437 26.5328 129.203 26.4394" fill="white"/>
</g>
</g>
<g clip-path="url(#clip1_122_2496)">
<mask id="mask2_122_2496" style="mask-type:luminance" maskUnits="userSpaceOnUse" x="-46" y="0" width="125" height="71">
<path d="M78.7096 0H-45.8664V70.2187H78.7096V0Z" fill="white"/>
</mask>
<g mask="url(#mask2_122_2496)">
<path d="M16.4162 1.4826C13.5597 1.4826 10.7673 2.32965 8.39224 3.91663C6.01715 5.50361 4.166 7.75924 3.07287 10.3983C1.97974 13.0373 1.69372 15.9413 2.251 18.7429C2.80827 21.5445 4.1838 24.1179 6.20364 26.1378C8.22349 28.1576 10.7969 29.5331 13.5985 30.0904C16.4001 30.6477 19.3041 30.3617 21.9431 29.2686C24.5822 28.1754 26.8378 26.3243 28.4248 23.9492C30.0118 21.5741 30.8588 18.7818 30.8588 15.9253C30.856 12.0957 29.3335 8.42379 26.6255 5.71588C23.9176 3.00796 20.2457 1.48542 16.4162 1.4826ZM16.4162 31.8399C13.266 31.8399 10.1865 30.9057 7.5674 29.1553C4.94827 27.4049 2.90708 24.9171 1.70204 22.0065C0.497006 19.0959 0.182256 15.8933 0.797604 12.8038C1.41295 9.71429 2.93075 6.87669 5.15902 4.64992C7.38728 2.42314 10.2259 0.907244 13.3158 0.293966C16.4057 -0.319311 19.6081 -0.00241407 22.5179 1.20457C25.4277 2.41156 27.9142 4.45441 29.6628 7.07472C31.4114 9.69503 32.3436 12.7751 32.3415 15.9253C32.3387 20.1471 30.6596 24.195 27.6733 27.1793C24.687 30.1636 20.638 31.8399 16.4162 31.8399Z" fill="white"/>
</g>
<path d="M18.7309 6.21875L10.7736 9.10942L23.2216 21.5681L26.1229 13.6108L18.7309 6.21875Z" fill="white"/>
<path d="M14.1015 25.6208L22.0695 22.7302L9.61082 10.2715L6.70949 18.2288L14.1015 25.6208Z" fill="white"/>
</g>
<defs>
<clipPath id="clip0_122_2496">
<rect width="93.6" height="21.6" fill="white" transform="translate(39.4668 5.2002)"/>
</clipPath>
<clipPath id="clip1_122_2496">
<rect width="33.0667" height="32" fill="white"/>
</clipPath>
</defs>
</svg>
