<svg width="60" height="60" viewBox="0 0 60 60" fill="none" xmlns="http://www.w3.org/2000/svg">
<rect width="60" height="60" rx="10" fill="#5D50A2"/>
<path fill-rule="evenodd" clip-rule="evenodd" d="M44.1944 26.2699V41.1458C44.1944 42.4804 43.1123 43.5625 41.7778 43.5625H18.8194C17.262 43.5625 16 42.3005 16 40.7431V40.7404C16 39.9925 16.2967 39.2769 16.8244 38.748C17.3533 38.2203 18.0689 37.9236 18.8168 37.9236H22.4444C22.8888 37.9236 23.25 37.5625 23.25 37.1181V24.2292H28.0175C28.3451 25.467 28.9117 26.7264 29.6152 27.9226C31.0988 30.44 34.2002 33.7522 34.2002 33.7522C34.8003 34.3604 35.6206 34.7014 36.4759 34.7014C37.3298 34.7014 38.1488 34.359 38.7502 33.7508L38.7556 33.7455C39.7948 32.6862 41.8503 30.44 43.3325 27.9226C43.652 27.3816 43.942 26.8284 44.1944 26.2699ZM21.6389 23.4236V36.3125H18.8168C17.7843 36.3125 16.7894 36.6723 16 37.3235V25.8403C16 24.7716 16.4243 23.7472 17.1801 22.9926C17.9347 22.2368 18.9591 21.8125 20.0278 21.8125H21.6389V23.4236Z" fill="white"/>
<path fill-rule="evenodd" clip-rule="evenodd" d="M36.4741 14.5625C40.5744 14.5625 43.9027 17.8908 43.9027 21.9911C43.9027 23.68 43.1857 25.5275 42.1761 27.2406C40.7583 29.6479 38.7901 31.792 37.7966 32.8043L37.7939 32.807C37.4461 33.1601 36.9709 33.3588 36.4741 33.3588C35.9787 33.3588 35.5034 33.1601 35.1543 32.8083L35.1516 32.8043C34.1581 31.792 32.1899 29.6479 30.7721 27.2406C29.7625 25.5275 29.0455 23.68 29.0455 21.9911C29.0455 17.8908 32.3738 14.5625 36.4741 14.5625ZM36.4741 18.5903C34.8066 18.5903 33.4533 19.9436 33.4533 21.6111C33.4533 23.2786 34.8066 24.6319 36.4741 24.6319C38.1416 24.6319 39.4949 23.2786 39.4949 21.6111C39.4949 19.9436 38.1416 18.5903 36.4741 18.5903ZM36.4741 20.6042C37.0299 20.6042 37.481 21.0553 37.481 21.6111C37.481 22.1669 37.0299 22.6181 36.4741 22.6181C35.9183 22.6181 35.4672 22.1669 35.4672 21.6111C35.4672 21.0553 35.9183 20.6042 36.4741 20.6042Z" fill="white"/>
</svg>
