<svg width="60" height="60" viewBox="0 0 60 60" fill="none" xmlns="http://www.w3.org/2000/svg">
<rect width="60" height="60" rx="10" fill="#5D50A2"/>
<path d="M18.4787 33.75H15.04V32.5C15.0211 30.7473 15.4852 29.0233 16.3816 27.5171C17.2779 26.0109 18.5718 24.7806 20.1213 23.9613C21.6477 23.2086 23.3008 22.7466 24.9963 22.5988C24.2554 23.5154 23.5125 24.4896 22.7675 25.5213C21.0895 28.1274 19.6539 30.8818 18.4787 33.75ZM34.5187 37.2663C31.9129 38.9464 29.1584 40.3841 26.29 41.5613V45H27.54C29.2927 45.0189 31.0167 44.5548 32.5229 43.6584C34.0291 42.7621 35.2594 41.4682 36.0787 39.9188C36.8314 38.3923 37.2934 36.7392 37.4412 35.0438C36.5287 35.7813 35.5546 36.5221 34.5187 37.2663ZM45.04 18.7388C44.8737 24.18 40.9562 29.5763 33.0625 35.2388C30.9144 36.6313 28.6482 37.8326 26.29 38.8288V38.125C26.2844 36.9664 25.8217 35.8568 25.0024 35.0376C24.1832 34.2183 23.0736 33.7556 21.915 33.75H21.2112C22.2086 31.3918 23.4116 29.126 24.8063 26.9788C30.455 19.0975 35.8425 15.18 41.275 15C43.9825 15 45.04 16.1063 45.04 18.7388ZM37.54 25.625C37.54 24.7962 37.2108 24.0013 36.6247 23.4153C36.0387 22.8292 35.2438 22.5 34.415 22.5C33.5862 22.5 32.7913 22.8292 32.2053 23.4153C31.6192 24.0013 31.29 24.7962 31.29 25.625C31.29 26.4538 31.6192 27.2487 32.2053 27.8347C32.7913 28.4208 33.5862 28.75 34.415 28.75C35.2438 28.75 36.0387 28.4208 36.6247 27.8347C37.2108 27.2487 37.54 26.4538 37.54 25.625ZM16.7575 44.7313C18.165 44.4813 21.5588 43.7838 22.6925 42.6513C23.0407 42.303 23.317 41.8896 23.5055 41.4346C23.6939 40.9796 23.7909 40.4919 23.7909 39.9994C23.7909 39.5069 23.6939 39.0192 23.5055 38.5642C23.317 38.1092 23.0407 37.6958 22.6925 37.3475C22.3443 36.9993 21.9308 36.723 21.4758 36.5345C21.0208 36.3461 20.5331 36.2491 20.0406 36.2491C19.046 36.2491 18.0921 36.6442 17.3887 37.3475C16.2562 38.4813 15.5575 41.875 15.3088 43.2825L15 45.04L16.7575 44.7313Z" fill="white"/>
</svg>
