<svg width="60" height="60" viewBox="0 0 60 60" fill="none" xmlns="http://www.w3.org/2000/svg">
<rect width="60" height="60" rx="10" fill="#5D50A2"/>
<path d="M30.705 38.6841C29.9328 37.9118 28.6807 37.9118 27.9083 38.6841C28.6806 37.9118 28.6806 36.6597 27.9083 35.8874C27.1361 35.1151 25.8839 35.1151 25.1117 35.8874C25.8839 35.1151 25.8839 33.863 25.1117 33.0907C24.3394 32.3185 23.0873 32.3185 22.315 33.0907C23.0872 32.3185 23.0872 31.0663 22.315 30.294C21.5427 29.5218 20.2906 29.5218 19.5183 30.294L16.9288 32.8835C16.1565 33.6558 16.1565 34.9079 16.9288 35.6802C17.7011 36.4525 18.9532 36.4525 19.7255 35.6802L18.8969 36.5089C18.1246 37.2812 18.1246 38.5333 18.8969 39.3056C19.6691 40.0779 20.9212 40.0779 21.6935 39.3056L22.5222 38.477C21.7499 39.2492 21.7499 40.5014 22.5222 41.2736C23.2944 42.0459 24.5465 42.0459 25.3188 41.2736L26.1475 40.445C25.3752 41.2173 25.3752 42.4694 26.1475 43.2417C26.9197 44.0139 28.1718 44.0139 28.9442 43.2417L30.705 41.4808C31.4773 40.7085 31.4773 39.4564 30.705 38.6841Z" fill="white"/>
<path d="M34.0604 23.8737L31.6707 26.2633C29.8887 28.0453 26.9893 28.0453 25.2073 26.2633C24.065 25.121 24.065 23.2624 25.2073 22.1201L28.757 18.5704L28.5035 18.3168C25.4144 15.2277 20.406 15.2277 17.3168 18.3168C14.2277 21.406 14.2277 26.4144 17.3168 29.5035L17.5704 29.757L18.2756 29.0519C19.732 27.5954 22.1017 27.5955 23.5581 29.0519C24.0714 29.5651 24.4029 30.192 24.5545 30.8522C25.2146 31.0037 25.8415 31.3352 26.3548 31.8485C26.8681 32.3618 27.1996 32.9887 27.3511 33.6488C28.0113 33.8003 28.6382 34.1319 29.1514 34.6452C29.6647 35.1584 29.9962 35.7853 30.1478 36.4455C30.808 36.597 31.4348 36.9286 31.9481 37.4418C33.4045 38.8982 33.4045 41.268 31.9481 42.7244L31.2558 43.4168C32.031 44.0089 33.1435 43.951 33.8522 43.2423C34.6245 42.4701 34.6245 41.2179 33.8522 40.4456L34.6809 41.2743C35.4531 42.0465 36.7052 42.0465 37.4775 41.2743C38.2498 40.502 38.2498 39.2499 37.4775 38.4776L38.3062 39.3062C39.0784 40.0785 40.3306 40.0785 41.1029 39.3062C41.8751 38.534 41.8751 37.2819 41.1029 36.5096L40.2742 35.6809C41.0465 36.4532 42.2986 36.4532 43.0709 35.6809C43.8432 34.9087 43.8432 33.6566 43.0709 32.8842L34.0604 23.8737Z" fill="white"/>
<path d="M26.4506 25.0204C27.549 26.1187 29.3298 26.1187 30.4281 25.0204L33.4392 22.0092C33.7825 21.666 34.3389 21.666 34.6822 22.0092L42.43 29.757L42.6835 29.5035C45.7726 26.4144 45.7726 21.406 42.6835 18.3168C39.5944 15.2277 34.586 15.2277 31.4968 18.3168L26.4506 23.3631C25.993 23.8207 25.993 24.5628 26.4506 25.0204Z" fill="white"/>
</svg>
