<svg width="60" height="60" viewBox="0 0 60 60" fill="none" xmlns="http://www.w3.org/2000/svg">
<rect width="60" height="60" rx="10" fill="#5D50A2"/>
<path d="M39.1406 22.5C40.6939 22.5 41.9531 21.2408 41.9531 19.6875C41.9531 18.1342 40.6939 16.875 39.1406 16.875C37.5873 16.875 36.3281 18.1342 36.3281 19.6875C36.3281 21.2408 37.5873 22.5 39.1406 22.5Z" fill="white"/>
<path d="M20.8594 22.5C22.4127 22.5 23.6719 21.2408 23.6719 19.6875C23.6719 18.1342 22.4127 16.875 20.8594 16.875C19.3061 16.875 18.0469 18.1342 18.0469 19.6875C18.0469 21.2408 19.3061 22.5 20.8594 22.5Z" fill="white"/>
<path d="M23.9109 23.8869C22.9479 23.2836 21.827 22.9814 20.6913 23.0187C19.5557 23.056 18.457 23.4313 17.5358 24.0965C16.6146 24.7616 15.9127 25.6865 15.52 26.7527C15.1272 27.8189 15.0615 28.9781 15.3311 30.0819C15.3496 30.1586 15.3934 30.2268 15.4554 30.2756C15.5173 30.3244 15.5939 30.3509 15.6728 30.3509H22.5297C22.5859 30.3504 22.6412 30.3365 22.691 30.3103C22.7408 30.2841 22.7837 30.2465 22.816 30.2004C22.8483 30.1544 22.8692 30.1013 22.8769 30.0456C22.8847 29.9899 22.879 29.9332 22.8604 29.8801C22.4095 27.9943 22.926 25.966 24.0138 24.3868C24.0408 24.3475 24.0596 24.3032 24.069 24.2565C24.0785 24.2097 24.0784 24.1616 24.0688 24.1149C24.0592 24.0682 24.0402 24.024 24.0131 23.9848C23.986 23.9456 23.9512 23.9123 23.9109 23.8869Z" fill="white"/>
<path d="M37.4712 30.3506H44.328C44.4069 30.3506 44.4835 30.3241 44.5455 30.2752C44.6075 30.2264 44.6512 30.1582 44.6698 30.0815C44.9339 28.9788 44.8643 27.8224 44.47 26.7592C44.0757 25.696 43.3743 24.774 42.4549 24.1102C41.5356 23.4464 40.4397 23.0707 39.3065 23.0309C38.1732 22.9911 37.0537 23.2889 36.09 23.8865C36.0497 23.912 36.0149 23.9453 35.9878 23.9844C35.9606 24.0236 35.9417 24.0679 35.9321 24.1146C35.9225 24.1613 35.9224 24.2094 35.9318 24.2561C35.9413 24.3029 35.9601 24.3472 35.9871 24.3865C37.0748 25.9659 37.5914 27.994 37.1405 29.8797C37.1219 29.9328 37.1162 29.9896 37.1239 30.0453C37.1316 30.101 37.1525 30.1541 37.1849 30.2001C37.2172 30.2461 37.26 30.2838 37.3098 30.31C37.3596 30.3361 37.4149 30.3501 37.4712 30.3506Z" fill="white"/>
<path d="M24.5154 30.3524H35.4841C35.7394 30.3502 35.9854 30.2564 36.1774 30.0882C36.3695 29.92 36.4949 29.6886 36.5308 29.4358C36.5726 29.1438 36.5938 28.8493 36.5943 28.5543C36.5995 27.6849 36.4328 26.8231 36.1037 26.0184C35.7746 25.2138 35.2896 24.4821 34.6767 23.8655C34.0638 23.2489 33.335 22.7596 32.5323 22.4257C31.7296 22.0918 30.8688 21.9199 29.9994 21.9199C29.13 21.9199 28.2692 22.0918 27.4665 22.4257C26.6638 22.7596 25.935 23.2489 25.3221 23.8655C24.7092 24.4821 24.2242 25.2138 23.8951 26.0184C23.566 26.8231 23.3992 27.6849 23.4044 28.5543C23.4048 28.8493 23.426 29.144 23.4677 29.436C23.5037 29.6889 23.6292 29.9205 23.8215 30.0886C24.0137 30.2568 24.2599 30.3504 24.5154 30.3524Z" fill="white"/>
<path d="M30 21.3281C31.7475 21.3281 33.1641 19.9115 33.1641 18.1641C33.1641 16.4166 31.7475 15 30 15C28.2525 15 26.8359 16.4166 26.8359 18.1641C26.8359 19.9115 28.2525 21.3281 30 21.3281Z" fill="white"/>
<path d="M44.6484 31.0547H34.9606C34.884 31.0547 34.8096 31.0797 34.7485 31.1259C34.6875 31.1721 34.6432 31.237 34.6224 31.3106C34.337 32.3166 33.7313 33.2021 32.897 33.8326C32.0628 34.4631 31.0457 34.8042 30 34.8042C28.9543 34.8042 27.9372 34.4631 27.103 33.8326C26.2688 33.2021 25.663 32.3166 25.3777 31.3106C25.3568 31.237 25.3125 31.1721 25.2515 31.1259C25.1905 31.0797 25.116 31.0547 25.0395 31.0547H15.3516C15.2583 31.0547 15.1689 31.0917 15.103 31.1577C15.0371 31.2236 15 31.313 15 31.4063V31.4531C14.9983 31.9004 15.1713 32.3306 15.4821 32.6522C15.793 32.9737 16.217 33.1613 16.6641 33.1748L17.4223 33.2011C17.7267 34.4076 18.2045 35.5635 18.8407 36.6328L18.3251 37.1859C18.0187 37.5116 17.8515 37.944 17.8592 38.391C17.8669 38.8381 18.0489 39.2645 18.3663 39.5794L20.4216 41.6351C20.7366 41.9524 21.163 42.1343 21.6101 42.1419C22.0571 42.1496 22.4895 41.9824 22.8152 41.6761L23.3712 41.1574C24.4392 41.7944 25.5938 42.2734 26.7992 42.5794L26.8254 43.3373C26.8393 43.7841 27.027 44.2078 27.3485 44.5183C27.67 44.8288 28.0999 45.0016 28.5469 45H31.4531C31.9004 45.0017 32.3306 44.8287 32.6522 44.5179C32.9738 44.207 33.1613 43.783 33.1749 43.3359L33.2011 42.5775C34.4076 42.2732 35.5635 41.7955 36.6328 41.1593L37.1859 41.6749C37.5116 41.9814 37.944 42.1486 38.3911 42.1409C38.8382 42.1333 39.2647 41.9513 39.5796 41.6339L41.6351 39.5782C41.9524 39.2633 42.1343 38.8369 42.142 38.3899C42.1497 37.9428 41.9826 37.5105 41.6763 37.1848L41.1563 36.6293C41.7934 35.5614 42.2724 34.4067 42.5782 33.2013L43.3362 33.1751C43.7832 33.1615 44.2073 32.9739 44.5181 32.6523C44.8289 32.3307 45.0018 31.9004 45 31.4531V31.4063C45 31.313 44.963 31.2236 44.897 31.1577C44.8311 31.0917 44.7417 31.0547 44.6484 31.0547Z" fill="white"/>
</svg>
