<svg width="60" height="60" viewBox="0 0 60 60" fill="none" xmlns="http://www.w3.org/2000/svg">
<rect width="60" height="60" rx="10" fill="#5D50A2"/>
<path d="M35.8029 16.0014C34.8898 15.973 34.0214 16.3937 33.4738 17.1237L27.8399 24.6374C26.483 26.4466 27.8209 29.1507 30.0846 29.1507H31.0273V43.228C31.0283 43.4757 31.1271 43.7131 31.3023 43.8883C31.4775 44.0635 31.7148 44.1623 31.9626 44.1633H37.5983C39.1433 44.1635 40.4136 42.8951 40.4134 41.35V29.1507H41.356C43.6205 29.1507 44.9668 26.4489 43.6081 24.6374L37.9724 17.1237C37.4572 16.4368 36.6594 16.0251 35.8029 16.0014ZM26.3361 31.0213C24.7918 31.0213 23.5136 32.2902 23.5136 33.8346V43.228C23.5117 43.7494 23.9349 44.1726 24.4563 44.1706H29.1493V31.0213H26.3361ZM18.8224 34.779C17.2781 34.779 16 36.048 16 37.5923V41.35C16 42.8943 17.2781 44.1706 18.8224 44.1706H21.6375V34.779H18.8224Z" fill="white"/>
</svg>
