<svg width="60" height="60" viewBox="0 0 60 60" fill="none" xmlns="http://www.w3.org/2000/svg">
<rect width="60" height="60" rx="10" fill="#5D50A2"/>
<path d="M16.4648 28.7988V17.0684C16.4648 16.8398 16.6465 16.6582 16.875 16.6582H28.2012C28.4297 16.6582 28.6113 16.8398 28.6113 17.0684V20.0391C28.6113 20.2441 28.459 20.4141 28.2598 20.4434C27.0234 20.6133 26.0918 21.6855 26.0918 22.9336C26.0918 24.1875 27.0234 25.2539 28.2598 25.4238C28.4648 25.4531 28.6113 25.623 28.6113 25.8281V28.793C28.6113 29.0215 28.4297 29.2031 28.2012 29.2031H25.6465C25.4473 30.627 24.2227 31.7285 22.7402 31.7285C21.2637 31.7285 20.0391 30.627 19.834 29.2031H16.875C16.6465 29.2031 16.4648 29.0215 16.4648 28.7988ZM27.5508 35.3086V32.7539C27.5508 32.5254 27.3691 32.3438 27.1406 32.3438H24.1758C23.9707 32.3438 23.8008 32.4961 23.7715 32.6953C23.6016 33.9316 22.5293 34.8633 21.2812 34.8633C20.0332 34.8633 18.9609 33.9316 18.791 32.6953C18.7617 32.4902 18.5918 32.3438 18.3867 32.3438H15.4102C15.1816 32.3438 15 32.5254 15 32.7539V44.0801C15 44.3086 15.1816 44.4902 15.4102 44.4902H27.1406C27.3691 44.4902 27.5508 44.3086 27.5508 44.0801V41.1152C28.9746 40.916 30.0762 39.6914 30.0762 38.2148C30.0703 36.7324 28.9746 35.5078 27.5508 35.3086ZM42.2461 31.2832H39.2871C39.0879 29.8594 37.8633 28.7578 36.3867 28.7578C34.9102 28.7578 33.6855 29.8594 33.4805 31.2832H30.9258C30.6973 31.2832 30.5156 31.4648 30.5156 31.6934V34.6582C30.5156 34.8633 30.668 35.0332 30.8672 35.0625C32.1035 35.2324 33.0352 36.3047 33.0352 37.5527C33.0352 38.8008 32.1035 39.873 30.8672 40.043C30.6621 40.0723 30.5156 40.2422 30.5156 40.4473V43.4121C30.5156 43.6406 30.6973 43.8223 30.9258 43.8223H42.252C42.4805 43.8223 42.6621 43.6406 42.6621 43.4121V31.6934C42.6562 31.4648 42.4746 31.2832 42.2461 31.2832ZM44.0625 15H32.332C32.1035 15 31.9219 15.1816 31.9219 15.4102V18.3691C30.4805 18.5684 29.3965 19.8164 29.3965 21.2695C29.3965 22.7227 30.4805 23.9707 31.9219 24.1699V26.7305C31.9219 26.959 32.1035 27.1406 32.332 27.1406H35.2969C35.502 27.1406 35.6719 26.9883 35.7012 26.7891C35.8711 25.5527 36.9434 24.6211 38.1914 24.6211C39.4453 24.6211 40.5117 25.5527 40.6816 26.7891C40.7109 26.9941 40.8809 27.1406 41.0859 27.1406H44.0508C44.2793 27.1406 44.4609 26.959 44.4609 26.7305V15.4102C44.4727 15.1816 44.291 15 44.0625 15Z" fill="white"/>
</svg>
