<svg width="60" height="60" viewBox="0 0 60 60" fill="none" xmlns="http://www.w3.org/2000/svg">
<rect width="60" height="60" rx="10" fill="#5D50A2"/>
<path d="M45 30.0446C44.976 38.2706 38.1146 45.0001 29.8887 45.0001H29.5131C28.5422 45.0001 27.7553 44.2132 27.7553 43.2423C27.7553 42.2714 28.5422 41.4844 29.5131 41.4844H29.8963C36.2508 41.4844 41.5213 36.2854 41.4838 29.9315C41.4469 23.6532 36.3469 18.5532 30.0691 18.5157C23.7146 18.4782 18.5156 23.7493 18.5156 30.1032V30.4864C18.5156 31.4573 17.7287 32.2442 16.7578 32.2442C15.7869 32.2442 15 31.4573 15 30.4864V30.1108C15 21.8854 21.7295 15.0241 29.9555 15.0001C38.2752 14.976 45.024 21.7249 45 30.0446ZM30.0551 20.8594C24.9973 20.8296 20.8594 25.0249 20.8594 30.0821V30.4864C20.8594 31.4573 21.6463 32.2442 22.6172 32.2442C23.5881 32.2442 24.375 31.4573 24.375 30.4864V30.0733C24.375 27.0188 26.8729 24.4143 29.9268 24.3757C33.0861 24.3352 35.6648 26.9139 35.6244 30.0733C35.5852 33.1278 32.9813 35.6251 29.9268 35.6251H29.5131C28.5422 35.6251 27.7553 36.412 27.7553 37.3829C27.7553 38.3538 28.5422 39.1407 29.5131 39.1407H29.9174C34.9746 39.1407 39.1699 35.0028 39.14 29.945C39.1107 24.9487 35.0514 20.8893 30.0551 20.8594ZM30 26.7188C28.1877 26.7188 26.7188 28.1878 26.7188 30.0001C26.7188 30.477 26.8213 30.9294 27.0041 31.3383L24.0023 34.3401L20.0613 33.0264C19.4297 32.8161 18.733 32.9801 18.2625 33.4512L15.3439 36.3698C14.7281 36.9856 14.9754 38.0344 15.8021 38.3104L18.975 39.368L18.6574 39.6856C18.1998 40.1432 18.1998 40.885 18.6574 41.3426C19.115 41.8003 19.8568 41.8003 20.3145 41.3426L20.632 41.0251L21.6896 44.1979C21.965 45.0241 23.0139 45.2719 23.6303 44.6561L26.5494 41.737C27.0199 41.2665 27.1846 40.5698 26.9742 39.9381L25.6605 35.9971L28.6623 32.9954C29.0713 33.1782 29.5236 33.2807 30.0006 33.2807C31.8129 33.2807 33.2818 31.8118 33.2818 29.9995C33.2818 28.1872 31.8123 26.7188 30 26.7188Z" fill="white"/>
</svg>
