<svg width="60" height="60" viewBox="0 0 60 60" fill="none" xmlns="http://www.w3.org/2000/svg">
<rect width="60" height="60" rx="10" fill="#5D50A2"/>
<path d="M33.75 22.625C33.06 22.625 32.5 22.065 32.5 21.375V19.5H27.5V21.375C27.5 22.065 26.94 22.625 26.25 22.625C25.56 22.625 25 22.065 25 21.375V19.5C25 18.1212 26.1212 17 27.5 17H32.5C33.8787 17 35 18.1212 35 19.5V21.375C35 22.065 34.44 22.625 33.75 22.625Z" fill="white"/>
<path d="M30.8875 33.7254C30.6625 33.8129 30.3375 33.8754 30 33.8754C29.6625 33.8754 29.3375 33.8129 29.0375 33.7004L15 29.0254V38.5629C15 40.4629 16.5375 42.0004 18.4375 42.0004H41.5625C43.4625 42.0004 45 40.4629 45 38.5629V29.0254L30.8875 33.7254Z" fill="white"/>
<path d="M45 24.1875V27.05L30.3 31.95C30.2 31.9875 30.1 32 30 32C29.9 32 29.8 31.9875 29.7 31.95L15 27.05V24.1875C15 22.2875 16.5375 20.75 18.4375 20.75H41.5625C43.4625 20.75 45 22.2875 45 24.1875Z" fill="white"/>
</svg>
