<svg width="60" height="60" viewBox="0 0 60 60" fill="none" xmlns="http://www.w3.org/2000/svg">
<rect width="60" height="60" rx="10" fill="#3763EB"/>
<path d="M34.6294 31.8639C34.6294 33.2115 35.7257 34.3078 37.0733 34.3078H44.9999V29.4199H37.0734C35.7258 29.42 34.6294 30.5163 34.6294 31.8639ZM38.4098 31.9357C38.4098 32.4798 37.9687 32.9209 37.4246 32.9209C36.8805 32.9209 36.4394 32.4798 36.4394 31.9357C36.4394 31.3916 36.8805 30.9505 37.4246 30.9505C37.9687 30.9505 38.4098 31.3916 38.4098 31.9357Z" fill="white"/>
<path d="M37.0734 36.2006C34.6822 36.2006 32.7369 34.2552 32.7369 31.8641C32.7369 29.4729 34.6823 27.5275 37.0734 27.5275H45V24.2251C45 21.9912 43.1826 20.1738 40.9487 20.1738H19.0513C16.8174 20.1738 15 21.9912 15 24.2251V39.3854C15 41.6193 16.8174 43.4367 19.0513 43.4367H40.9488C43.1827 43.4367 45.0001 41.6193 45.0001 39.3854V36.2006H37.0734Z" fill="white"/>
<path d="M19.0512 18.2816C42.8535 18.2816 41.1477 18.262 41.6703 18.3255C41.021 16.9524 39.6229 16 38.006 16H19.0512C16.876 16 15.0964 17.7234 15.0044 19.8763C16.0662 18.8875 17.4892 18.2816 19.0512 18.2816Z" fill="white"/>
</svg>
