<svg width="60" height="60" viewBox="0 0 60 60" fill="none" xmlns="http://www.w3.org/2000/svg">
<rect width="60" height="60" rx="10" fill="#5D50A2"/>
<path fill-rule="evenodd" clip-rule="evenodd" d="M28.9263 20.5249C27.5263 20.4793 26.1613 20.3466 24.8406 20.1284C24.9197 19.9254 25.0021 19.7268 25.0876 19.5323C26.1264 17.1642 27.5074 15.5416 28.9263 15V20.5249ZM38.9601 28.7597C38.884 26.2871 38.5357 23.8946 37.9497 21.7409C39.2831 21.4067 40.5595 20.9855 41.7662 20.4822C43.6032 22.7883 44.7782 25.6441 44.9999 28.7597H38.9601ZM37.9497 37.9266C38.5356 35.7722 38.884 33.3791 38.9601 30.908H45C44.7783 34.0236 43.6032 36.8795 41.7663 39.1856C40.5595 38.682 39.2831 38.2611 37.9497 37.9266ZM36.876 41.0074C37.0218 40.6738 37.1611 40.3295 37.2941 39.9758C38.2981 40.2229 39.2705 40.5228 40.1985 40.874C38.7605 42.2023 37.0661 43.2558 35.1974 43.9459C35.815 43.1168 36.382 42.1321 36.876 41.0074ZM22.7058 39.9758C22.8579 40.3777 23.0162 40.768 23.1841 41.1445C23.6655 42.2131 24.2103 43.1513 24.8026 43.9459C22.9339 43.2551 21.2362 42.2023 19.8015 40.874C20.7295 40.5228 21.6987 40.2229 22.7058 39.9758ZM21.0367 30.9081C21.1159 33.382 21.4643 35.7732 22.0502 37.9267C20.7168 38.2611 19.4404 38.6821 18.2337 39.1856C16.3968 36.8796 15.2217 34.0236 15 30.9081H21.0367ZM22.0502 21.7409C21.4643 23.8952 21.1159 26.2887 21.0367 28.7597H15C15.2217 25.6441 16.3968 22.7883 18.2337 20.4822C19.4405 20.9864 20.7169 21.4067 22.0502 21.7409ZM23.1207 18.6696C22.9751 19.0005 22.8388 19.3417 22.7058 19.692C21.7018 19.4449 20.7295 19.145 19.8015 18.7937C21.2394 17.465 22.9339 16.4116 24.8057 15.7209C24.1818 16.5536 23.6149 17.5411 23.1207 18.6696ZM36.838 18.5784C36.3534 17.4872 35.8023 16.5308 35.1974 15.7215C37.0661 16.4126 38.7605 17.4651 40.1984 18.7938C39.2704 19.145 38.2981 19.4449 37.294 19.692C37.1516 19.3093 36.9995 18.9375 36.838 18.5784ZM31.0737 20.5249V15C32.4768 15.5362 33.8419 17.1243 34.8775 19.4515C34.9757 19.6717 35.0675 19.8981 35.1594 20.1284C33.8387 20.3466 32.4704 20.4793 31.0737 20.5249ZM31.0737 28.7597V22.6742C32.708 22.6245 34.3074 22.462 35.8467 22.1899C36.4042 24.1894 36.7335 26.4302 36.8128 28.7597L31.0737 28.7597ZM31.0737 36.9936V30.9081H36.8127C36.7335 33.2363 36.401 35.4778 35.8467 37.4775C34.3074 37.2057 32.708 37.0433 31.0737 36.9936ZM31.0737 39.1431C32.4704 39.1881 33.8387 39.3212 35.1594 39.5394C35.0771 39.7449 34.9947 39.9466 34.9092 40.1443C33.8704 42.5074 32.4926 44.1258 31.0737 44.6677V39.1431ZM28.9263 39.1431V44.6671C27.5327 44.1347 26.1771 42.5675 25.1446 40.265C25.0401 40.0294 24.9387 39.787 24.8405 39.5394C26.1613 39.3212 27.5264 39.1881 28.9263 39.1431ZM28.9263 30.9081V36.9936C27.292 37.0433 25.6925 37.2057 24.1533 37.4775C23.5958 35.479 23.2665 33.2388 23.1873 30.9081H28.9263ZM28.9263 22.6742V28.7597H23.1873C23.2665 26.4315 23.5959 24.1897 24.1533 22.1899C25.6925 22.462 27.292 22.6245 28.9263 22.6742Z" fill="white"/>
</svg>
