<svg width="60" height="60" viewBox="0 0 60 60" fill="none" xmlns="http://www.w3.org/2000/svg">
<rect width="60" height="60" rx="10" fill="#5D50A2"/>
<path d="M33.007 20.3027H27.0088V22.0898H33.007V20.3027Z" fill="white"/>
<mask id="mask0_505_12077" style="mask-type:luminance" maskUnits="userSpaceOnUse" x="15" y="15" width="30" height="30">
<path d="M15 15H45V45H15V15Z" fill="white"/>
</mask>
<g mask="url(#mask0_505_12077)">
<path d="M33.007 15.8789C33.007 15.3935 32.6136 15 32.1281 15H27.8877C27.4023 15 27.0088 15.3935 27.0088 15.8789V18.5449H33.007V15.8789Z" fill="white"/>
<path d="M33.007 23.8474H27.0088V25.6387H33.007V23.8474Z" fill="white"/>
<path d="M43.9482 26.4839C43.9482 25.9985 43.5547 25.605 43.0693 25.605H41.1357C40.6503 25.605 40.2568 25.9985 40.2568 26.4839V29.1875H43.9482V26.4839Z" fill="white"/>
<path d="M25.2501 17.9899C25.2501 17.7915 25.0352 17.6676 24.8634 17.7669L21.4011 19.7696C21.3215 19.8155 21.2725 19.9006 21.2725 19.9926V29.1875H25.2501V17.9899Z" fill="white"/>
<path d="M19.5146 24.7818C19.5146 24.2964 19.1211 23.9029 18.6357 23.9029H16.7021C16.2168 23.9029 15.8232 24.2964 15.8232 24.7818V29.1875H19.5146V24.7818Z" fill="white"/>
<path d="M33.007 27.3962H27.0088V29.1875H33.007V27.3962Z" fill="white"/>
<path d="M38.4997 20.6831C38.4997 20.1977 38.1062 19.8042 37.6208 19.8042H35.6436C35.1582 19.8042 34.7646 20.1977 34.7646 20.6831V29.1875H38.4997V20.6831Z" fill="white"/>
<path d="M29.9466 34.3008C31.9905 34.3008 33.7041 32.8635 34.1325 30.9468H25.7607C26.1891 32.8635 27.9026 34.3008 29.9466 34.3008Z" fill="white"/>
<path d="M35.9215 30.9459C35.4703 33.8377 32.9627 36.0577 29.9463 36.0577C26.9298 36.0577 24.4222 33.8377 23.971 30.9459H15V31.825C15 32.188 15.2232 32.5137 15.5617 32.6447L19.542 34.1851C19.5868 34.2973 19.6332 34.4085 19.6813 34.5185L17.9626 38.4069C17.8155 38.7396 17.8886 39.1285 18.1464 39.3851L20.6439 41.8709C20.9 42.1256 21.2858 42.1978 21.6165 42.053L25.5726 40.3205C25.6644 40.3592 25.7567 40.3967 25.8495 40.433L27.4158 44.441C27.5475 44.7782 27.8725 45 28.2344 45H31.7664C32.1284 45 32.4534 44.7781 32.5851 44.441L34.1759 40.3696C34.2382 40.3441 34.3003 40.3181 34.3622 40.2914L38.3841 42.0524C38.7149 42.1973 39.1007 42.1251 39.3567 41.8703L41.8542 39.3846C42.112 39.128 42.1851 38.739 42.038 38.4062L40.2505 34.3632C40.2669 34.3242 40.2831 34.2853 40.299 34.2462L44.4384 32.6439C44.7769 32.5128 45 32.1872 45 31.8242V30.9459H35.9215Z" fill="white"/>
</g>
</svg>
