<svg width="60" height="60" viewBox="0 0 60 60" fill="none" xmlns="http://www.w3.org/2000/svg">
<rect width="60" height="60" rx="10" fill="#5D50A2"/>
<path d="M30.7599 17C29.6046 16.9967 29.0212 17.6077 29.0036 20.612C28.9975 23.1804 26.7699 25.308 25.0153 26.5814C24.8384 26.7098 24.694 26.8779 24.5939 27.0722C24.4937 27.2665 24.4405 27.4816 24.4385 27.7002C24.408 32.1236 24.4487 36.5472 24.5606 40.9709C24.5679 41.2228 24.6464 41.4675 24.787 41.6766C24.9276 41.8858 25.1246 42.0508 25.3551 42.1527C27.4296 43.041 30.9162 44.1459 35.9674 43.9841C36.585 43.9635 37.2023 43.9399 37.8193 43.9134C40.0656 43.8112 42.1097 42.035 42.6257 39.7864C43.1992 37.239 43.7306 34.7076 44.2085 32.195C44.7461 29.3736 42.4147 26.7527 39.4452 26.6936C37.5576 26.6667 35.67 26.6483 33.7824 26.6383C33.7824 26.6383 34.673 24.8434 34.6238 21.8484C34.5464 18.2519 31.9073 16.9984 30.7599 17Z" fill="white"/>
<path d="M16.6111 40.7365C16.8221 42.0033 18.0011 43.0839 19.3861 43.2607C19.8439 43.3192 20.3017 43.3732 20.7595 43.4226C21.8606 43.5435 22.755 42.7596 22.7191 41.7243C22.546 36.9878 22.4828 32.2517 22.5296 27.516C22.539 26.479 21.5904 25.674 20.4562 25.7602C19.9855 25.7949 19.5143 25.8332 19.0425 25.8751C17.6154 26.0039 16.4503 27.0353 16.3011 28.2944C15.8105 32.4484 15.9232 36.5654 16.6111 40.7365Z" fill="white"/>
</svg>
