<svg width="60" height="60" viewBox="0 0 60 60" fill="none" xmlns="http://www.w3.org/2000/svg">
<rect width="60" height="60" rx="10" fill="#5D50A2"/>
<path d="M30 27.1953C32.8154 27.1953 35.0977 24.913 35.0977 22.0977C35.0977 19.2823 32.8154 17 30 17C27.1846 17 24.9023 19.2823 24.9023 22.0977C24.9023 24.913 27.1846 27.1953 30 27.1953Z" fill="white"/>
<path d="M40.3125 27.1953C42.0923 27.1953 43.5352 25.7525 43.5352 23.9727C43.5352 22.1928 42.0923 20.75 40.3125 20.75C38.5327 20.75 37.0898 22.1928 37.0898 23.9727C37.0898 25.7525 38.5327 27.1953 40.3125 27.1953Z" fill="white"/>
<path d="M19.6875 27.1953C21.4673 27.1953 22.9102 25.7525 22.9102 23.9727C22.9102 22.1928 21.4673 20.75 19.6875 20.75C17.9077 20.75 16.4648 22.1928 16.4648 23.9727C16.4648 25.7525 17.9077 27.1953 19.6875 27.1953Z" fill="white"/>
<path d="M22.8627 30.0894C21.5941 29.0501 20.4453 29.1877 18.9785 29.1877C16.7848 29.1877 15 30.9619 15 33.1422V39.5412C15 40.4881 15.7729 41.258 16.7232 41.258C20.8263 41.258 20.332 41.3322 20.332 41.081C20.332 36.5467 19.795 33.2214 22.8627 30.0894Z" fill="white"/>
<path d="M31.395 29.2117C28.8331 28.998 26.6062 29.2142 24.6855 30.7996C21.4712 33.3742 22.0898 36.8408 22.0898 41.0816C22.0898 42.2037 23.0027 43.1336 24.1417 43.1336C36.5098 43.1336 37.0021 43.5326 37.7355 41.9084C37.976 41.3591 37.9101 41.5337 37.9101 36.2793C37.9101 32.1059 34.2964 29.2117 31.395 29.2117Z" fill="white"/>
<path d="M41.0219 29.1875C39.5471 29.1875 38.4046 29.0514 37.1377 30.0893C40.1825 33.198 39.6684 36.2964 39.6684 41.0809C39.6684 41.3337 39.258 41.2578 43.2156 41.2578C44.2 41.2578 45.0004 40.4604 45.0004 39.4801V33.142C45.0004 30.9617 43.2156 29.1875 41.0219 29.1875Z" fill="white"/>
</svg>
