<svg width="60" height="60" viewBox="0 0 60 60" fill="none" xmlns="http://www.w3.org/2000/svg">
<rect width="60" height="60" rx="10" fill="#5D50A2"/>
<path d="M37.337 20.3567C32.7785 18.4795 27.8896 18.6164 23.6649 20.3596C19.4409 22.1049 15.8864 25.456 14 30.0001C15.751 34.2113 19.1109 37.7587 23.6628 39.6414C28.22 41.5212 33.1102 41.3842 37.335 39.6385C41.5577 37.8932 45.1134 34.5417 46.9998 30.0001C45.2504 25.7864 41.8889 22.2393 37.337 20.3567ZM30.4999 36.8752C26.7024 36.8752 23.6248 33.7975 23.6248 30.0001C23.6248 26.2002 26.7024 23.1254 30.4999 23.1254C34.2986 23.1254 37.375 26.2001 37.375 30.0001C37.375 33.7975 34.2986 36.8752 30.4999 36.8752Z" fill="white"/>
<path d="M30.5001 27.25C28.9813 27.25 27.75 28.4797 27.75 29.9997C27.75 31.5202 28.9813 32.7498 30.5001 32.7498C32.0202 32.7498 33.2502 31.5202 33.2502 29.9997C33.2502 28.4797 32.0202 27.25 30.5001 27.25Z" fill="white"/>
</svg>
