<svg width="50" height="50" viewBox="0 0 50 50" fill="none" xmlns="http://www.w3.org/2000/svg">
<rect width="50" height="50" rx="8" fill="#5D50A2"/>
<path d="M27.464 21.288C27.464 22.136 27.264 22.936 26.864 23.688C26.464 24.44 25.824 25.056 24.944 25.536C24.064 26 22.936 26.232 21.56 26.232H18.536V33H15.8V16.32H21.56C22.84 16.32 23.92 16.544 24.8 16.992C25.696 17.424 26.36 18.016 26.792 18.768C27.24 19.52 27.464 20.36 27.464 21.288ZM21.56 24C22.6 24 23.376 23.768 23.888 23.304C24.4 22.824 24.656 22.152 24.656 21.288C24.656 19.464 23.624 18.552 21.56 18.552H18.536V24H21.56Z" fill="white"/>
</svg>
