<svg width="50" height="50" viewBox="0 0 50 50" fill="none" xmlns="http://www.w3.org/2000/svg">
<rect width="50" height="50" rx="8" fill="#3763EB"/>
<path d="M25.296 33.168C24.176 33.168 23.168 32.976 22.272 32.592C21.376 32.192 20.672 31.632 20.16 30.912C19.648 30.192 19.392 29.352 19.392 28.392H22.32C22.384 29.112 22.664 29.704 23.16 30.168C23.672 30.632 24.384 30.864 25.296 30.864C26.24 30.864 26.976 30.64 27.504 30.192C28.032 29.728 28.296 29.136 28.296 28.416C28.296 27.856 28.128 27.4 27.792 27.048C27.472 26.696 27.064 26.424 26.568 26.232C26.088 26.04 25.416 25.832 24.552 25.608C23.464 25.32 22.576 25.032 21.888 24.744C21.216 24.44 20.64 23.976 20.16 23.352C19.68 22.728 19.44 21.896 19.44 20.856C19.44 19.896 19.68 19.056 20.16 18.336C20.64 17.616 21.312 17.064 22.176 16.68C23.04 16.296 24.04 16.104 25.176 16.104C26.792 16.104 28.112 16.512 29.136 17.328C30.176 18.128 30.752 19.232 30.864 20.64H27.84C27.792 20.032 27.504 19.512 26.976 19.08C26.448 18.648 25.752 18.432 24.888 18.432C24.104 18.432 23.464 18.632 22.968 19.032C22.472 19.432 22.224 20.008 22.224 20.76C22.224 21.272 22.376 21.696 22.68 22.032C23 22.352 23.4 22.608 23.88 22.8C24.36 22.992 25.016 23.2 25.848 23.424C26.952 23.728 27.848 24.032 28.536 24.336C29.24 24.64 29.832 25.112 30.312 25.752C30.808 26.376 31.056 27.216 31.056 28.272C31.056 29.12 30.824 29.92 30.36 30.672C29.912 31.424 29.248 32.032 28.368 32.496C27.504 32.944 26.48 33.168 25.296 33.168Z" fill="white"/>
</svg>
